<?xml version="1.0" encoding="UTF-8" standalone="no"?>
<!DOCTYPE svg PUBLIC "-//W3C//DTD SVG 1.1//EN" "http://www.w3.org/Graphics/SVG/1.1/DTD/svg11.dtd">
<!-- Generated by Microsoft Visio, SVG Export Snowflake Outline No Skeleton.svg Page-1 -->
<svg xmlns="http://www.w3.org/2000/svg" xmlns:xlink="http://www.w3.org/1999/xlink" xmlns:ev="http://www.w3.org/2001/xml-events"
		xmlns:v="http://schemas.microsoft.com/visio/2003/SVGExtensions/" width="16.0354in" height="11.6929in"
		viewBox="0 0 1154.55 841.89" xml:space="preserve" color-interpolation-filters="sRGB" class="st4">
	<v:documentProperties v:langID="1033" v:metric="true" v:viewMarkup="false">
		<v:userDefs>
			<v:ud v:nameU="msvNoAutoConnect" v:val="VT0(1):26"/>
		</v:userDefs>
	</v:documentProperties>

	<style type="text/css">
	<![CDATA[
		.st1 {fill:none;stroke:#000000;stroke-width:0.25}
		.st2 {fill:none}
		.st3 {stroke:#000000;stroke-linecap:round;stroke-linejoin:round;stroke-width:0.25}
		.st4 {fill:none;fill-rule:evenodd;font-size:12px;overflow:visible;stroke-linecap:square;stroke-miterlimit:3}
	]]>
	</style>

	<g v:mID="0" v:index="1" v:groupContext="foregroundPage">
		<title>Page-1</title>
		<v:pageProperties v:drawingScale="0.0393701" v:pageScale="0.0393701" v:drawingUnits="24" v:shadowOffsetX="8.50394"
				v:shadowOffsetY="-8.50394"/>
		<g id="shape155-1" v:mID="155" v:groupContext="shape" transform="translate(162.402,-683.656)">
			<title>Sheet.155</title>
			<path d="M0.71 841.13 L2.89 841.89 L14.11 841.89 L16.67 841.28 L17.13 839.06 L17.13 823.11 L16.65 821.24 L15.24 820.63
						 L2.01 820.63 L0.59 821.17 L0.12 822.91 L0 839.15 L0.71 841.13 Z" class="st1"/>
		</g>
		<g id="shape157-3" v:mID="157" v:groupContext="shape" transform="translate(18.8976,-18.7738)">
			<title>Sheet.157</title>
			<path d="M175.13 182.16 L175.13 182.19 L175.13 182.16 ZM864.07 413.35 L752.29 413.31 L811.19 311.46 L754.41 278.58 L676.46
						 413.31 L490.1 413.31 L490.09 412.62 L489.47 412.26 L582.62 250.91 L738.14 250.85 L738.13 185.32 L738.14
						 180.8 L738.14 185.14 L738.14 180.57 L738.52 144.21 L737.56 142.51 L734.61 141.06 L692.31 141.09 L689.62
						 141.94 L688.77 144.63 L688.63 182.19 L687.78 184.18 L685.65 185.17 L685.65 185.31 L620.47 185.37 L676.44
						 88.45 L619.58 55.62 L563.66 152.41 L504.91 50.47 L448.04 83.2 L525.74 218.07 L432.84 378.99 L431.98 378.49
						 L431.13 378.98 L338.21 218.02 L415.91 83.31 L359.15 50.55 L300.36 152.48 L244.41 55.55 L187.56 88.37 L243.41
						 185.2 L180.52 185.17 L177.26 184.03 L175.13 182.19 L175.28 143.21 L174.71 141.51 L172.58 140.52 L128.65
						 140.52 L126.52 141.66 L126.58 141.66 L125.73 143.44 L125.73 177.44 L125.73 185.05 L125.73 177.65 L125.76
						 185.11 L125.67 250.72 L281.33 250.86 L374.15 411.64 L373.13 412.22 L373.14 413.34 L187.61 413.34 L109.8
						 278.69 L53.05 311.46 L111.92 413.34 L0 413.32 L0 478.98 L111.78 479.01 L52.88 580.86 L109.65 613.74 L187.61
						 479.01 L373.55 479.01 L373.56 480.08 L374.32 480.52 L281.41 641.45 L125.89 641.51 L125.9 707.04 L243.56
						 706.99 L187.59 803.91 L244.45 836.74 L300.37 739.95 L359.12 841.89 L415.99 809.16 L338.28 674.29 L431.36
						 513.07 L431.98 513.42 L432.68 513.02 L525.78 674.27 L448.08 808.98 L504.83 841.74 L563.62 739.82 L619.57
						 836.75 L676.43 803.92 L620.57 707.1 L738.22 707.19 L738.31 641.58 L582.66 641.43 L489.69 480.4 L490.54 479.91
						 L490.54 478.99 L676.46 478.99 L754.27 613.63 L811.02 580.87 L752.15 478.99 L864.07 479 L864.07 413.35 Z"
					class="st2"/>
			<path d="M175.13 182.16 L175.13 182.19" class="st3"/>
			<path d="" class="st3"/>
			<path d="M175.28 160.05 L175.22 164.33" class="st3"/>
			<path d="M864.07 413.35 L752.29 413.31 L811.19 311.46 L754.41 278.58 L676.46 413.31 L490.1 413.31 L490.09 412.62 L489.47
						 412.26 L582.62 250.91 L738.14 250.85 L738.13 185.32 L738.14 180.8 L738.14 185.14 L738.14 180.57 L738.52
						 144.21 L737.56 142.51 L734.61 141.06 L692.31 141.09 L689.62 141.94 L688.77 144.63 L688.63 182.19 L687.78
						 184.18 L685.65 185.17 L685.65 185.31 L620.47 185.37 L676.44 88.45 L619.58 55.62 L563.66 152.41 L504.91 50.47
						 L448.04 83.2 L525.74 218.07 L432.84 378.99 L431.98 378.49 L431.13 378.98 L338.21 218.02 L415.91 83.31 L359.15
						 50.55 L300.36 152.48 L244.41 55.55 L187.56 88.37 L243.41 185.2 L180.52 185.17 L177.26 184.03 L175.13 182.19
						 L175.28 143.21 L174.71 141.51 L172.58 140.52 L128.65 140.52 L126.52 141.66 L126.58 141.66 L125.73 143.44
						 L125.73 177.44 L125.73 185.05 L125.73 177.65 L125.76 185.11 L125.67 250.72 L281.33 250.86 L374.15 411.64
						 L373.13 412.22 L373.14 413.34 L187.61 413.34 L109.8 278.69 L53.05 311.46 L111.92 413.34 L0 413.32 L0 478.98
						 L111.78 479.01 L52.88 580.86 L109.65 613.74 L187.61 479.01 L373.55 479.01 L373.56 480.08 L374.32 480.52
						 L281.41 641.45 L125.89 641.51 L125.9 707.04 L243.56 706.99 L187.59 803.91 L244.45 836.74 L300.37 739.95
						 L359.12 841.89 L415.99 809.16 L338.28 674.29 L431.36 513.07 L431.98 513.42 L432.68 513.02 L525.78 674.27
						 L448.08 808.98 L504.83 841.74 L563.62 739.82 L619.57 836.75 L676.43 803.92 L620.57 707.1 L738.22 707.19
						 L738.31 641.58 L582.66 641.43 L489.69 480.4 L490.54 479.91 L490.54 478.99 L676.46 478.99 L754.27 613.63
						 L811.02 580.87 L752.15 478.99 L864.07 479 L864.07 413.35" class="st3"/>
		</g>
		<g id="shape161-9" v:mID="161" v:groupContext="shape" transform="translate(724.016,-683.268)">
			<title>Sheet.161</title>
			<path d="M0.71 841.13 L2.89 841.89 L14.11 841.89 L16.67 841.28 L17.13 839.06 L17.13 823.11 L16.65 821.24 L15.24 820.63
						 L2.01 820.63 L0.59 821.17 L0.12 822.91 L0 839.15 L0.71 841.13 Z" class="st1"/>
		</g>
	</g>
</svg>
