<?xml version="1.0" encoding="UTF-8" standalone="no"?>
<!DOCTYPE svg PUBLIC "-//W3C//DTD SVG 1.1//EN" "http://www.w3.org/Graphics/SVG/1.1/DTD/svg11.dtd">
<!-- Generated by Microsoft Visio, SVG Export Snowflake Outline.svg Page-1 -->
<svg xmlns="http://www.w3.org/2000/svg" xmlns:xlink="http://www.w3.org/1999/xlink" xmlns:ev="http://www.w3.org/2001/xml-events"
		xmlns:v="http://schemas.microsoft.com/visio/2003/SVGExtensions/" width="16.0354in" height="11.6929in"
		viewBox="0 0 1154.55 841.89" xml:space="preserve" color-interpolation-filters="sRGB" class="st4">
	<v:documentProperties v:langID="1033" v:metric="true" v:viewMarkup="false">
		<v:userDefs>
			<v:ud v:nameU="msvNoAutoConnect" v:val="VT0(1):26"/>
		</v:userDefs>
	</v:documentProperties>

	<style type="text/css">
	<![CDATA[
		.st1 {fill:none;stroke:#000000;stroke-linecap:round;stroke-linejoin:round;stroke-width:0.25}
		.st2 {stroke:#000000;stroke-linecap:round;stroke-linejoin:round;stroke-width:0.25}
		.st3 {fill:none;stroke:#000000;stroke-width:0.25}
		.st4 {fill:none;fill-rule:evenodd;font-size:12px;overflow:visible;stroke-linecap:square;stroke-miterlimit:3}
	]]>
	</style>

	<g v:mID="0" v:index="1" v:groupContext="foregroundPage">
		<title>Page-1</title>
		<v:pageProperties v:drawingScale="0.0393701" v:pageScale="0.0393701" v:drawingUnits="24" v:shadowOffsetX="8.50394"
				v:shadowOffsetY="-8.50394"/>
		<g id="shape8-1" v:mID="8" v:groupContext="shape" transform="translate(18.8976,-246.919)">
			<title>Sheet.8</title>
			<v:textBlock v:margins="rect(4,4,4,4)" v:tabSpace="42.5197"/>
			<path d="M0 707.12 L111.78 707.16 L52.88 809.01 L109.65 841.89 L187.61 707.16 L375.17 707.16 L375.12 641.48 L187.61 641.48
						 L109.8 506.83 L53.05 539.6 L111.92 641.48 L0 641.47 L0 707.12 Z" class="st1"/>
		</g>
		<g id="shape38-3" v:mID="38" v:groupContext="shape" transform="translate(170.223,-264.324)">
			<title>Sheet.38</title>
			<path d="M0 701.64 L22.87 701.64 L-58.11 841.89 L-75.26 832.11 L-6.96 713.72 L-13.75 701.69 L0 701.64 Z" class="st1"/>
		</g>
		<g id="shape1-5" v:mID="1" v:groupContext="shape" transform="translate(25.5118,-392.421)">
			<title>Sheet.1</title>
			<path d="M373.18 809.89 L379.87 804.27 L388.37 810 L388.37 829.84 L379.84 835.51 L373.27 829.84 L188.16 829.79 L174.47
						 841.89 L160.61 841.89 L167.51 829.74 L130.99 829.72 L137.71 841.8 L124.04 841.75 L110.3 829.7 L0 829.65
						 L0 809.81 L110.22 809.83 L124.02 797.78 L137.79 797.75 L130.99 809.84 L167.5 809.84 L160.58 797.75 L174.36
						 797.78 L188.17 809.85 L373.18 809.89 Z" class="st1"/>
		</g>
		<g id="group86-7" transform="translate(398.693,-354.317)" v:mID="86" v:groupContext="group">
			<title>Sheet.86</title>
			<g id="shape10-8" v:mID="10" v:groupContext="shape" transform="translate(-2.89768E-14,-30.0819)">
				<title>Sheet.10</title>
				<path d="M0 781.91 L0.03 781.74 L0 801.92 L6.69 796.31 L15.22 801.98 L15.19 821.82 L6.66 827.49 L0.03 821.76 L0 841.89"
						class="st2"/>
			</g>
			<g id="shape81-11" v:mID="81" v:groupContext="shape" transform="translate(729.168,330.759) rotate(60)">
				<title>Sheet.81</title>
				<path d="M0 781.91 L0.03 781.74 L0 801.92 L6.69 796.31 L15.22 801.98 L15.19 821.82 L6.66 827.49 L0.03 821.76 L0 841.89"
						class="st2"/>
			</g>
			<g id="shape82-14" v:mID="82" v:groupContext="shape" transform="translate(104.234,1593.5) rotate(180)">
				<title>Sheet.82</title>
				<path d="M0 781.91 L0.03 781.74 L0 801.92 L6.69 796.31 L15.22 801.98 L15.19 821.82 L6.66 827.49 L0.03 821.76 L0 841.89"
						class="st2"/>
			</g>
			<g id="shape83-17" v:mID="83" v:groupContext="shape" transform="translate(-676.987,420.945) rotate(-60)">
				<title>Sheet.83</title>
				<path d="M0 781.91 L0.03 781.74 L0 801.92 L6.69 796.31 L15.22 801.98 L15.19 821.82 L6.66 827.49 L0.03 821.76 L0 841.89"
						class="st2"/>
			</g>
			<g id="shape84-20" v:mID="84" v:groupContext="shape" transform="translate(781.255,1142.58) rotate(120)">
				<title>Sheet.84</title>
				<path d="M0 781.91 L0.03 781.74 L0 801.92 L6.69 796.31 L15.22 801.98 L15.19 821.82 L6.66 827.49 L0.03 821.76 L0 841.89"
						class="st2"/>
			</g>
			<g id="shape85-23" v:mID="85" v:groupContext="shape" transform="translate(-624.872,1232.73) rotate(-120)">
				<title>Sheet.85</title>
				<path d="M0 781.91 L0.03 781.74 L0 801.92 L6.69 796.31 L15.22 801.98 L15.19 821.82 L6.66 827.49 L0.03 821.76 L0 841.89"
						class="st2"/>
			</g>
		</g>
		<g id="shape93-26" v:mID="93" v:groupContext="shape" transform="translate(170.206,1119.07) scale(1,-1)">
			<title>Sheet.93</title>
			<path d="M0 701.64 L22.87 701.64 L-58.11 841.89 L-75.26 832.11 L-6.96 713.72 L-13.75 701.69 L0 701.64 Z" class="st1"/>
		</g>
		<g id="shape94-28" v:mID="94" v:groupContext="shape" transform="translate(876.091,1247.2) rotate(180)">
			<title>Sheet.94</title>
			<path d="M373.18 809.89 L379.87 804.27 L388.37 810 L388.37 829.84 L379.84 835.51 L373.27 829.84 L188.16 829.79 L174.47
						 841.89 L160.61 841.89 L167.51 829.74 L130.99 829.72 L137.71 841.8 L124.04 841.75 L110.3 829.7 L0 829.65
						 L0 809.81 L110.22 809.83 L124.02 797.78 L137.79 797.75 L130.99 809.84 L167.5 809.84 L160.58 797.75 L174.36
						 797.78 L188.17 809.85 L373.18 809.89 Z" class="st1"/>
		</g>
		<g id="shape95-30" v:mID="95" v:groupContext="shape" transform="translate(-471.823,385.791) rotate(-60)">
			<title>Sheet.95</title>
			<path d="M373.18 809.89 L379.87 804.27 L388.37 810 L388.37 829.84 L379.84 835.51 L373.27 829.84 L188.16 829.79 L174.47
						 841.89 L160.61 841.89 L167.51 829.74 L130.99 829.72 L137.71 841.8 L124.04 841.75 L110.3 829.7 L0 829.65
						 L0 809.81 L110.22 809.83 L124.02 797.78 L137.79 797.75 L130.99 809.84 L167.5 809.84 L160.58 797.75 L174.36
						 797.78 L188.17 809.85 L373.18 809.89 Z" class="st1"/>
		</g>
		<g id="shape96-32" v:mID="96" v:groupContext="shape" transform="translate(-46.5233,1205.59) rotate(-120)">
			<title>Sheet.96</title>
			<path d="M373.18 809.89 L379.87 804.27 L388.37 810 L388.37 829.84 L379.84 835.51 L373.27 829.84 L188.16 829.79 L174.47
						 841.89 L160.61 841.89 L167.51 829.74 L130.99 829.72 L137.71 841.8 L124.04 841.75 L110.3 829.7 L0 829.65
						 L0 809.81 L110.22 809.83 L124.02 797.78 L137.79 797.75 L130.99 809.84 L167.5 809.84 L160.58 797.75 L174.36
						 797.78 L188.17 809.85 L373.18 809.89 Z" class="st1"/>
		</g>
		<g id="shape97-34" v:mID="97" v:groupContext="shape" transform="translate(1373.53,469.009) rotate(120)">
			<title>Sheet.97</title>
			<path d="M373.18 809.89 L379.87 804.27 L388.37 810 L388.37 829.84 L379.84 835.51 L373.27 829.84 L188.16 829.79 L174.47
						 841.89 L160.61 841.89 L167.51 829.74 L130.99 829.72 L137.71 841.8 L124.04 841.75 L110.3 829.7 L0 829.65
						 L0 809.81 L110.22 809.83 L124.02 797.78 L137.79 797.75 L130.99 809.84 L167.5 809.84 L160.58 797.75 L174.36
						 797.78 L188.17 809.85 L373.18 809.89 Z" class="st1"/>
		</g>
		<g id="shape98-36" v:mID="98" v:groupContext="shape" transform="translate(948.211,-350.76) rotate(60)">
			<title>Sheet.98</title>
			<path d="M373.18 809.89 L379.87 804.27 L388.37 810 L388.37 829.84 L379.84 835.51 L373.27 829.84 L188.16 829.79 L174.47
						 841.89 L160.61 841.89 L167.51 829.74 L130.99 829.72 L137.71 841.8 L124.04 841.75 L110.3 829.7 L0 829.65
						 L0 809.81 L110.22 809.83 L124.02 797.78 L137.79 797.75 L130.99 809.84 L167.5 809.84 L160.58 797.75 L174.36
						 797.78 L188.17 809.85 L373.18 809.89 Z" class="st1"/>
		</g>
		<g id="shape99-38" v:mID="99" v:groupContext="shape" transform="translate(-288.457,530.307) rotate(60) scale(1,-1)">
			<title>Sheet.99</title>
			<path d="M0 701.64 L22.87 701.64 L-58.11 841.89 L-75.26 832.11 L-6.96 713.72 L-13.75 701.69 L0 701.64 Z" class="st1"/>
		</g>
		<g id="shape100-40" v:mID="100" v:groupContext="shape" transform="translate(-7.80985,-161.449) rotate(-60) scale(-1,1)">
			<title>Sheet.100</title>
			<path d="M0 701.64 L22.87 701.64 L-58.11 841.89 L-75.26 832.11 L-6.96 713.72 L-13.75 701.69 L0 701.64 Z" class="st1"/>
		</g>
		<g id="shape101-42" v:mID="101" v:groupContext="shape" transform="translate(731.423,-264.273) scale(-1,1)">
			<title>Sheet.101</title>
			<path d="M0 701.64 L22.87 701.64 L-58.11 841.89 L-75.26 832.11 L-6.96 713.72 L-13.75 701.69 L0 701.64 Z" class="st1"/>
		</g>
		<g id="shape102-44" v:mID="102" v:groupContext="shape" transform="translate(1190.08,324.49) rotate(60) scale(-1,1)">
			<title>Sheet.102</title>
			<path d="M0 701.64 L22.87 701.64 L-58.11 841.89 L-75.26 832.11 L-6.96 713.72 L-13.75 701.69 L0 701.64 Z" class="st1"/>
		</g>
		<g id="shape103-46" v:mID="103" v:groupContext="shape" transform="translate(909.522,1016.22) rotate(-60) scale(1,-1)">
			<title>Sheet.103</title>
			<path d="M0 701.64 L22.87 701.64 L-58.11 841.89 L-75.26 832.11 L-6.96 713.72 L-13.75 701.69 L0 701.64 Z" class="st1"/>
		</g>
		<g id="shape104-48" v:mID="104" v:groupContext="shape" transform="translate(-288.566,324.558) rotate(-60)">
			<title>Sheet.104</title>
			<path d="M0 701.64 L22.87 701.64 L-58.11 841.89 L-75.26 832.11 L-6.96 713.72 L-13.75 701.69 L0 701.64 Z" class="st1"/>
		</g>
		<g id="shape105-50" v:mID="105" v:groupContext="shape" transform="translate(-7.88578,1016.28) rotate(-120)">
			<title>Sheet.105</title>
			<path d="M0 701.64 L22.87 701.64 L-58.11 841.89 L-75.26 832.11 L-6.96 713.72 L-13.75 701.69 L0 701.64 Z" class="st1"/>
		</g>
		<g id="shape106-52" v:mID="106" v:groupContext="shape" transform="translate(731.398,1119.13) rotate(180)">
			<title>Sheet.106</title>
			<path d="M0 701.64 L22.87 701.64 L-58.11 841.89 L-75.26 832.11 L-6.96 713.72 L-13.75 701.69 L0 701.64 Z" class="st1"/>
		</g>
		<g id="shape107-54" v:mID="107" v:groupContext="shape" transform="translate(1190.22,530.324) rotate(120)">
			<title>Sheet.107</title>
			<path d="M0 701.64 L22.87 701.64 L-58.11 841.89 L-75.26 832.11 L-6.96 713.72 L-13.75 701.69 L0 701.64 Z" class="st1"/>
		</g>
		<g id="shape108-56" v:mID="108" v:groupContext="shape" transform="translate(909.666,-161.398) rotate(60)">
			<title>Sheet.108</title>
			<path d="M0 701.64 L22.87 701.64 L-58.11 841.89 L-75.26 832.11 L-6.96 713.72 L-13.75 701.69 L0 701.64 Z" class="st1"/>
		</g>
		<g id="shape131-58" v:mID="131" v:groupContext="shape" transform="translate(882.966,1101.7) rotate(180)">
			<title>Sheet.131</title>
			<v:textBlock v:margins="rect(4,4,4,4)" v:tabSpace="42.5197"/>
			<path d="M0 707.12 L111.78 707.16 L52.88 809.01 L109.65 841.89 L187.61 707.16 L375.17 707.16 L375.12 641.48 L187.61 641.48
						 L109.8 506.83 L53.05 539.6 L111.92 641.48 L0 641.47 L0 707.12 Z" class="st1"/>
		</g>
		<g id="shape132-60" v:mID="132" v:groupContext="shape" transform="translate(-349.038,464.404) rotate(-60)">
			<title>Sheet.132</title>
			<v:textBlock v:margins="rect(4,4,4,4)" v:tabSpace="42.5197"/>
			<path d="M0 707.12 L111.78 707.16 L52.88 809.01 L109.65 841.89 L187.61 707.16 L375.17 707.16 L375.12 641.48 L187.61 641.48
						 L109.8 506.83 L53.05 539.6 L111.92 641.48 L0 641.47 L0 707.12 Z" class="st1"/>
		</g>
		<g id="shape133-62" v:mID="133" v:groupContext="shape" transform="translate(82.939,1138.71) rotate(-120)">
			<title>Sheet.133</title>
			<v:textBlock v:margins="rect(4,4,4,4)" v:tabSpace="42.5197"/>
			<path d="M0 707.12 L111.78 707.16 L52.88 809.01 L109.65 841.89 L187.61 707.16 L375.17 707.16 L375.12 641.48 L187.61 641.48
						 L109.8 506.83 L53.05 539.6 L111.92 641.48 L0 641.47 L0 707.12 Z" class="st1"/>
		</g>
		<g id="shape134-64" v:mID="134" v:groupContext="shape" transform="translate(1250.86,390.407) rotate(120)">
			<title>Sheet.134</title>
			<v:textBlock v:margins="rect(4,4,4,4)" v:tabSpace="42.5197"/>
			<path d="M0 707.12 L111.78 707.16 L52.88 809.01 L109.65 841.89 L187.61 707.16 L375.17 707.16 L375.12 641.48 L187.61 641.48
						 L109.8 506.83 L53.05 539.6 L33.2 551 L31.69 552.8 L32.16 554.75 L42.12 572.11 L43.86 573.59 L46.1 573.12
						 L63.24 563.22 L67.23 564.19 L111.92 641.48 L0 641.47 L0 707.12 Z" class="st1"/>
		</g>
		<g id="shape135-66" v:mID="135" v:groupContext="shape" transform="translate(818.838,-283.962) rotate(60)">
			<title>Sheet.135</title>
			<v:textBlock v:margins="rect(4,4,4,4)" v:tabSpace="42.5197"/>
			<path d="M0 707.12 L111.78 707.16 L67.2 784.32 L63.16 785.53 L45.91 775.56 L43.8 775.07 L42.01 776.65 L32.08 793.83 L31.68
						 795.95 L33 797.63 L52.88 809.01 L109.65 841.89 L187.61 707.16 L375.17 707.16 L375.12 641.48 L187.61 641.48
						 L109.8 506.83 L53.05 539.6 L111.92 641.48 L0 641.47 L0 707.12 Z" class="st1"/>
		</g>
		<g id="group141-68" transform="translate(144.624,-675.553)" v:mID="141" v:groupContext="group">
			<title>Sheet.141</title>
			<g id="shape137-69" v:mID="137" v:groupContext="shape">
				<title>Sheet.137</title>
				<path d="M0 841.83 L0 818.99 L0.74 816.94 L2.92 816.29 L22.76 816.38 L24.89 817.06 L25.6 819.33 L25.51 839.06 L28.43
							 841.89 L25.51 838.96 L25.51 819.29 L24.81 817.05 L22.68 816.32 L2.84 816.32 L0.71 816.96 L0 819.06 L0
							 841.83 Z" class="st3"/>
			</g>
			<g id="shape138-71" v:mID="138" v:groupContext="shape" transform="translate(4.19527,-0.0377699)">
				<title>Sheet.138</title>
				<path d="M0.71 841.13 L2.89 841.89 L14.11 841.89 L16.67 841.28 L17.13 839.06 L17.13 823.11 L16.65 821.24 L15.24 820.63
							 L2.01 820.63 L0.59 821.17 L0.12 822.91 L0 839.15 L0.71 841.13 Z" class="st3"/>
			</g>
		</g>
		<g id="group142-73" transform="translate(757.042,-675.461) scale(-1,1)" v:mID="142" v:groupContext="group">
			<title>Sheet.142</title>
			<g id="shape143-74" v:mID="143" v:groupContext="shape">
				<title>Sheet.143</title>
				<path d="M0 841.83 L0 818.99 L0.74 816.94 L2.92 816.29 L22.76 816.38 L24.89 817.06 L25.6 819.33 L25.51 839.06 L28.43
							 841.89 L25.51 838.96 L25.51 819.29 L24.81 817.05 L22.68 816.32 L2.84 816.32 L0.71 816.96 L0 819.06 L0
							 841.83 Z" class="st3"/>
			</g>
			<g id="shape144-76" v:mID="144" v:groupContext="shape" transform="translate(4.19527,-0.0377699)">
				<title>Sheet.144</title>
				<path d="M0.71 841.13 L2.89 841.89 L14.11 841.89 L16.67 841.28 L17.13 839.06 L17.13 823.11 L16.65 821.24 L15.24 820.63
							 L2.01 820.63 L0.59 821.17 L0.12 822.91 L0 839.15 L0.71 841.13 Z" class="st3"/>
			</g>
		</g>
	</g>
</svg>
