G04 #@! TF.FileFunction,Legend,Bot*
%FSLAX46Y46*%
G04 Gerber Fmt 4.6, Leading zero omitted, Abs format (unit mm)*
G04 Created by KiCad (PCBNEW 4.0.7) date 12/19/17 15:23:22*
%MOMM*%
%LPD*%
G01*
G04 APERTURE LIST*
%ADD10C,0.100000*%
%ADD11C,0.200000*%
G04 APERTURE END LIST*
D10*
D11*
X152228524Y-119995905D02*
X152228524Y-119195905D01*
X152038048Y-119195905D01*
X151923762Y-119234000D01*
X151847571Y-119310190D01*
X151809476Y-119386381D01*
X151771381Y-119538762D01*
X151771381Y-119653048D01*
X151809476Y-119805429D01*
X151847571Y-119881619D01*
X151923762Y-119957810D01*
X152038048Y-119995905D01*
X152228524Y-119995905D01*
X150088523Y-119234000D02*
X150164714Y-119195905D01*
X150278999Y-119195905D01*
X150393285Y-119234000D01*
X150469476Y-119310190D01*
X150507571Y-119386381D01*
X150545666Y-119538762D01*
X150545666Y-119653048D01*
X150507571Y-119805429D01*
X150469476Y-119881619D01*
X150393285Y-119957810D01*
X150278999Y-119995905D01*
X150202809Y-119995905D01*
X150088523Y-119957810D01*
X150050428Y-119919714D01*
X150050428Y-119653048D01*
X150202809Y-119653048D01*
X149707571Y-119995905D02*
X149707571Y-119195905D01*
X149250428Y-119995905D01*
X149250428Y-119195905D01*
X148869476Y-119995905D02*
X148869476Y-119195905D01*
X148679000Y-119195905D01*
X148564714Y-119234000D01*
X148488523Y-119310190D01*
X148450428Y-119386381D01*
X148412333Y-119538762D01*
X148412333Y-119653048D01*
X148450428Y-119805429D01*
X148488523Y-119881619D01*
X148564714Y-119957810D01*
X148679000Y-119995905D01*
X148869476Y-119995905D01*
X146964380Y-119195905D02*
X147345333Y-119195905D01*
X147383428Y-119576857D01*
X147345333Y-119538762D01*
X147269142Y-119500667D01*
X147078666Y-119500667D01*
X147002476Y-119538762D01*
X146964380Y-119576857D01*
X146926285Y-119653048D01*
X146926285Y-119843524D01*
X146964380Y-119919714D01*
X147002476Y-119957810D01*
X147078666Y-119995905D01*
X147269142Y-119995905D01*
X147345333Y-119957810D01*
X147383428Y-119919714D01*
X146697714Y-119195905D02*
X146431047Y-119995905D01*
X146164380Y-119195905D01*
X154837716Y-90744857D02*
X154571049Y-90744857D01*
X154456763Y-91163905D02*
X154837716Y-91163905D01*
X154837716Y-90363905D01*
X154456763Y-90363905D01*
X154152001Y-91125810D02*
X154037715Y-91163905D01*
X153847239Y-91163905D01*
X153771049Y-91125810D01*
X153732953Y-91087714D01*
X153694858Y-91011524D01*
X153694858Y-90935333D01*
X153732953Y-90859143D01*
X153771049Y-90821048D01*
X153847239Y-90782952D01*
X153999620Y-90744857D01*
X154075811Y-90706762D01*
X154113906Y-90668667D01*
X154152001Y-90592476D01*
X154152001Y-90516286D01*
X154113906Y-90440095D01*
X154075811Y-90402000D01*
X153999620Y-90363905D01*
X153809144Y-90363905D01*
X153694858Y-90402000D01*
X153352001Y-91163905D02*
X153352001Y-90363905D01*
X153047239Y-90363905D01*
X152971048Y-90402000D01*
X152932953Y-90440095D01*
X152894858Y-90516286D01*
X152894858Y-90630571D01*
X152932953Y-90706762D01*
X152971048Y-90744857D01*
X153047239Y-90782952D01*
X153352001Y-90782952D01*
X152552001Y-90859143D02*
X151942477Y-90859143D01*
X151142477Y-91163905D02*
X151599620Y-91163905D01*
X151371049Y-91163905D02*
X151371049Y-90363905D01*
X151447239Y-90478190D01*
X151523430Y-90554381D01*
X151599620Y-90592476D01*
X150837715Y-90440095D02*
X150799620Y-90402000D01*
X150723429Y-90363905D01*
X150532953Y-90363905D01*
X150456763Y-90402000D01*
X150418667Y-90440095D01*
X150380572Y-90516286D01*
X150380572Y-90592476D01*
X150418667Y-90706762D01*
X150875810Y-91163905D01*
X150380572Y-91163905D01*
X148971048Y-91087714D02*
X149009143Y-91125810D01*
X149123429Y-91163905D01*
X149199619Y-91163905D01*
X149313905Y-91125810D01*
X149390096Y-91049619D01*
X149428191Y-90973429D01*
X149466286Y-90821048D01*
X149466286Y-90706762D01*
X149428191Y-90554381D01*
X149390096Y-90478190D01*
X149313905Y-90402000D01*
X149199619Y-90363905D01*
X149123429Y-90363905D01*
X149009143Y-90402000D01*
X148971048Y-90440095D01*
X148513905Y-91163905D02*
X148590096Y-91125810D01*
X148628191Y-91087714D01*
X148666286Y-91011524D01*
X148666286Y-90782952D01*
X148628191Y-90706762D01*
X148590096Y-90668667D01*
X148513905Y-90630571D01*
X148399619Y-90630571D01*
X148323429Y-90668667D01*
X148285334Y-90706762D01*
X148247238Y-90782952D01*
X148247238Y-91011524D01*
X148285334Y-91087714D01*
X148323429Y-91125810D01*
X148399619Y-91163905D01*
X148513905Y-91163905D01*
X147904381Y-90630571D02*
X147904381Y-91163905D01*
X147904381Y-90706762D02*
X147866286Y-90668667D01*
X147790095Y-90630571D01*
X147675809Y-90630571D01*
X147599619Y-90668667D01*
X147561524Y-90744857D01*
X147561524Y-91163905D01*
X147294857Y-90630571D02*
X146990095Y-90630571D01*
X147180571Y-90363905D02*
X147180571Y-91049619D01*
X147142476Y-91125810D01*
X147066285Y-91163905D01*
X146990095Y-91163905D01*
X146723428Y-91163905D02*
X146723428Y-90630571D01*
X146723428Y-90782952D02*
X146685333Y-90706762D01*
X146647237Y-90668667D01*
X146571047Y-90630571D01*
X146494856Y-90630571D01*
X146113904Y-91163905D02*
X146190095Y-91125810D01*
X146228190Y-91087714D01*
X146266285Y-91011524D01*
X146266285Y-90782952D01*
X146228190Y-90706762D01*
X146190095Y-90668667D01*
X146113904Y-90630571D01*
X145999618Y-90630571D01*
X145923428Y-90668667D01*
X145885333Y-90706762D01*
X145847237Y-90782952D01*
X145847237Y-91011524D01*
X145885333Y-91087714D01*
X145923428Y-91125810D01*
X145999618Y-91163905D01*
X146113904Y-91163905D01*
X145390094Y-91163905D02*
X145466285Y-91125810D01*
X145504380Y-91049619D01*
X145504380Y-90363905D01*
X144971046Y-91163905D02*
X145047237Y-91125810D01*
X145085332Y-91049619D01*
X145085332Y-90363905D01*
X144361522Y-91125810D02*
X144437712Y-91163905D01*
X144590093Y-91163905D01*
X144666284Y-91125810D01*
X144704379Y-91049619D01*
X144704379Y-90744857D01*
X144666284Y-90668667D01*
X144590093Y-90630571D01*
X144437712Y-90630571D01*
X144361522Y-90668667D01*
X144323427Y-90744857D01*
X144323427Y-90821048D01*
X144704379Y-90897238D01*
X143980570Y-91163905D02*
X143980570Y-90630571D01*
X143980570Y-90782952D02*
X143942475Y-90706762D01*
X143904379Y-90668667D01*
X143828189Y-90630571D01*
X143751998Y-90630571D01*
X150571048Y-91763905D02*
X150304381Y-92563905D01*
X150037714Y-91763905D01*
X149352000Y-92563905D02*
X149809143Y-92563905D01*
X149580572Y-92563905D02*
X149580572Y-91763905D01*
X149656762Y-91878190D01*
X149732953Y-91954381D01*
X149809143Y-91992476D01*
X149009143Y-92487714D02*
X148971048Y-92525810D01*
X149009143Y-92563905D01*
X149047238Y-92525810D01*
X149009143Y-92487714D01*
X149009143Y-92563905D01*
X148475810Y-91763905D02*
X148399619Y-91763905D01*
X148323429Y-91802000D01*
X148285334Y-91840095D01*
X148247238Y-91916286D01*
X148209143Y-92068667D01*
X148209143Y-92259143D01*
X148247238Y-92411524D01*
X148285334Y-92487714D01*
X148323429Y-92525810D01*
X148399619Y-92563905D01*
X148475810Y-92563905D01*
X148552000Y-92525810D01*
X148590096Y-92487714D01*
X148628191Y-92411524D01*
X148666286Y-92259143D01*
X148666286Y-92068667D01*
X148628191Y-91916286D01*
X148590096Y-91840095D01*
X148552000Y-91802000D01*
X148475810Y-91763905D01*
X149923429Y-93925810D02*
X149999619Y-93963905D01*
X150152000Y-93963905D01*
X150228191Y-93925810D01*
X150266286Y-93849619D01*
X150266286Y-93544857D01*
X150228191Y-93468667D01*
X150152000Y-93430571D01*
X149999619Y-93430571D01*
X149923429Y-93468667D01*
X149885334Y-93544857D01*
X149885334Y-93621048D01*
X150266286Y-93697238D01*
X149199620Y-93963905D02*
X149199620Y-93544857D01*
X149237715Y-93468667D01*
X149313905Y-93430571D01*
X149466286Y-93430571D01*
X149542477Y-93468667D01*
X149199620Y-93925810D02*
X149275810Y-93963905D01*
X149466286Y-93963905D01*
X149542477Y-93925810D01*
X149580572Y-93849619D01*
X149580572Y-93773429D01*
X149542477Y-93697238D01*
X149466286Y-93659143D01*
X149275810Y-93659143D01*
X149199620Y-93621048D01*
X148475810Y-93430571D02*
X148475810Y-94078190D01*
X148513905Y-94154381D01*
X148552000Y-94192476D01*
X148628191Y-94230571D01*
X148742476Y-94230571D01*
X148818667Y-94192476D01*
X148475810Y-93925810D02*
X148552000Y-93963905D01*
X148704381Y-93963905D01*
X148780572Y-93925810D01*
X148818667Y-93887714D01*
X148856762Y-93811524D01*
X148856762Y-93582952D01*
X148818667Y-93506762D01*
X148780572Y-93468667D01*
X148704381Y-93430571D01*
X148552000Y-93430571D01*
X148475810Y-93468667D01*
M02*
