M48
;DRILL file {KiCad 4.0.7} date 12/19/17 15:23:26
;FORMAT={-:-/ absolute / inch / decimal}
FMAT,2
INCH,TZ
T1C0.016
T2C0.039
%
G90
G05
M72
T1
X5.5451Y-4.7047
X5.66Y-3.82
X5.66Y-4.495
X5.685Y-3.66
X5.685Y-4.58
X5.7174Y-4.4034
X5.795Y-4.41
X5.805Y-4.33
X5.8091Y-4.0572
X5.985Y-4.41
X6.016Y-3.9792
X6.105Y-3.66
X6.105Y-3.745
X6.1056Y-4.136
X6.1864Y-4.5496
X6.2248Y-4.7832
X6.225Y-4.475
T2
X5.63Y-4.7858
X5.73Y-4.7858
X5.7827Y-4.6299
X5.83Y-4.7858
X5.8827Y-4.6299
X5.93Y-4.7858
X5.9827Y-4.6299
X6.03Y-4.7858
X6.13Y-4.7858
T0
M30
