G04 #@! TF.FileFunction,Copper,L2,Bot,Signal*
%FSLAX46Y46*%
G04 Gerber Fmt 4.6, Leading zero omitted, Abs format (unit mm)*
G04 Created by KiCad (PCBNEW 4.0.7) date 12/19/17 15:23:22*
%MOMM*%
%LPD*%
G01*
G04 APERTURE LIST*
%ADD10C,0.100000*%
%ADD11R,1.700000X1.700000*%
%ADD12O,1.700000X1.700000*%
%ADD13C,0.600000*%
%ADD14C,0.250000*%
G04 APERTURE END LIST*
D10*
D11*
X146880580Y-117599460D03*
D12*
X149420580Y-117599460D03*
X151960580Y-117599460D03*
D11*
X143002000Y-121559320D03*
D12*
X145542000Y-121559320D03*
X148082000Y-121559320D03*
X150622000Y-121559320D03*
X153162000Y-121559320D03*
X155702000Y-121559320D03*
D13*
X155067000Y-95123000D03*
X157134560Y-115559840D03*
X140845540Y-119499380D03*
X144399000Y-92964000D03*
X144399000Y-116332000D03*
X158109920Y-121493280D03*
X155067000Y-92964000D03*
X152806400Y-101071680D03*
X147447000Y-109982000D03*
X147193000Y-112014000D03*
X152019000Y-112014000D03*
X143764000Y-97028000D03*
X143764000Y-114173000D03*
X147551140Y-103052880D03*
X145221960Y-111846360D03*
X155082240Y-105054400D03*
X158115000Y-113665000D03*
D14*
X157134560Y-115559840D02*
X156083000Y-114808000D01*
X156438600Y-95112840D02*
X155067000Y-95123000D01*
X156083000Y-114808000D02*
X156083000Y-106807000D01*
X156083000Y-106807000D02*
X152654000Y-106807000D01*
X152654000Y-106807000D02*
X152654000Y-102743000D01*
X152654000Y-102743000D02*
X156464000Y-102743000D01*
X156464000Y-102743000D02*
X156438600Y-95112840D01*
X157134560Y-115559840D02*
X157134560Y-115559840D01*
X140853196Y-119499402D02*
X140845540Y-119499380D01*
X153162000Y-121559320D02*
X153162000Y-119507000D01*
X140853196Y-119499402D02*
X153162000Y-119507000D01*
X153162000Y-119507000D02*
X153171416Y-119504214D01*
X144399000Y-113919000D02*
X144399000Y-92964000D01*
X144399000Y-116332000D02*
X144399000Y-113919000D01*
X157047186Y-114258063D02*
X157041675Y-106044394D01*
X157041675Y-106044394D02*
X153924000Y-106045000D01*
X153924000Y-106045000D02*
X153926829Y-103885937D01*
X153926829Y-103885937D02*
X157224539Y-103886017D01*
X157224539Y-103886017D02*
X157226000Y-92964000D01*
X158109920Y-121493280D02*
X158109920Y-115336320D01*
X158109920Y-115336320D02*
X157047186Y-114258063D01*
X157226000Y-92964000D02*
X155067000Y-92964000D01*
X148696295Y-104902164D02*
X148666200Y-101092000D01*
X148666200Y-101092000D02*
X152806400Y-101071680D01*
X147447000Y-104902000D02*
X148696295Y-104902143D01*
X147447000Y-104902000D02*
X147447004Y-107817922D01*
X155321000Y-107823000D02*
X147447004Y-107817853D01*
X147447000Y-109982000D02*
X147447004Y-107817922D01*
X155702000Y-121559320D02*
X155321000Y-119634000D01*
X155321000Y-119634000D02*
X155321000Y-107823000D01*
X147193000Y-112014000D02*
X147192975Y-112017170D01*
X152019000Y-112014000D02*
X147192975Y-112017170D01*
X147192975Y-112017170D02*
X147187920Y-112017131D01*
X143764000Y-114173000D02*
X143764000Y-97028000D01*
X145196625Y-103052749D02*
X147551140Y-103052880D01*
X145221960Y-111846360D02*
X145196625Y-103052749D01*
X145196625Y-103052749D02*
X145196596Y-103042683D01*
X158115000Y-105029000D02*
X155082240Y-105054400D01*
X158115000Y-113665000D02*
X158115000Y-105029000D01*
M02*
