G04 #@! TF.FileFunction,Legend,Top*
%FSLAX46Y46*%
G04 Gerber Fmt 4.6, Leading zero omitted, Abs format (unit mm)*
G04 Created by KiCad (PCBNEW 4.0.7) date 10/22/17 13:14:02*
%MOMM*%
%LPD*%
G01*
G04 APERTURE LIST*
%ADD10C,0.100000*%
%ADD11C,0.200000*%
%ADD12C,0.150000*%
G04 APERTURE END LIST*
D10*
X78996896Y-54112145D02*
X87066167Y-54112145D01*
X76540019Y-58371120D02*
X74145998Y-54127903D01*
X74145998Y-54127903D02*
X78996896Y-54112145D01*
X159595996Y-47107898D02*
X161956001Y-45127898D01*
X161956001Y-45127898D02*
X164956002Y-47147898D01*
X164956002Y-47147898D02*
X164956002Y-54147899D01*
X164956002Y-54147899D02*
X161946001Y-56147899D01*
X161946001Y-56147899D02*
X159626001Y-54147899D01*
X159626001Y-54147899D02*
X94325998Y-54127903D01*
X94325998Y-54127903D02*
X89495998Y-58397903D01*
X89495998Y-58397903D02*
X84605998Y-58397903D01*
X84605998Y-58397903D02*
X87039330Y-54111152D01*
X87039330Y-54111152D02*
X74155099Y-54104629D01*
X74155099Y-54104629D02*
X76526000Y-58367899D01*
X76526000Y-58367899D02*
X71705999Y-58347899D01*
X71705999Y-58347899D02*
X66855999Y-54097899D01*
X66855999Y-54097899D02*
X27945997Y-54081236D01*
X27945997Y-54081236D02*
X27945997Y-47081236D01*
X27945997Y-47081236D02*
X66827818Y-47089111D01*
X66827818Y-47089111D02*
X71695997Y-42837898D01*
X71695997Y-42837898D02*
X76556000Y-42827898D01*
X76556000Y-42827898D02*
X74155091Y-47090595D01*
X74155091Y-47090595D02*
X87036907Y-47093203D01*
X87036907Y-47093203D02*
X84595998Y-42827898D01*
X84595998Y-42827898D02*
X89456000Y-42837898D01*
X89456000Y-42837898D02*
X94327818Y-47094680D01*
X94327818Y-47094680D02*
X159595996Y-47107898D01*
X159595996Y-47127898D02*
X161956001Y-45147898D01*
X161956001Y-45147898D02*
X164966002Y-47147898D01*
X164966002Y-47147898D02*
X164956002Y-54147899D01*
X164956002Y-54147899D02*
X161946001Y-56147899D01*
X161946001Y-56147899D02*
X159606001Y-54127899D01*
X78990922Y-47093479D02*
X87060193Y-47093479D01*
X76534045Y-42834504D02*
X74140024Y-47077721D01*
X74140024Y-47077721D02*
X78990922Y-47093479D01*
D11*
X59820300Y-51253900D02*
X59820300Y-49253900D01*
X59820300Y-49253900D02*
X61820300Y-49253900D01*
X61820300Y-49253900D02*
X61820300Y-50753900D01*
X61820300Y-50753900D02*
X61320300Y-51253900D01*
X61320300Y-51253900D02*
X59820300Y-51253900D01*
X59820300Y-52753900D02*
X61820300Y-52753900D01*
X63320300Y-50753900D02*
X63320300Y-49753900D01*
X59820300Y-47753900D02*
X61820300Y-47753900D01*
X58320300Y-50753900D02*
X58320300Y-49753900D01*
X30546800Y-51190400D02*
X30546800Y-49190400D01*
X30546800Y-49190400D02*
X32546800Y-49190400D01*
X32546800Y-49190400D02*
X32546800Y-50690400D01*
X32546800Y-50690400D02*
X32046800Y-51190400D01*
X32046800Y-51190400D02*
X30546800Y-51190400D01*
X30546800Y-52690400D02*
X32546800Y-52690400D01*
X34046800Y-50690400D02*
X34046800Y-49690400D01*
X30546800Y-47690400D02*
X32546800Y-47690400D01*
X29046800Y-50690400D02*
X29046800Y-49690400D01*
X147640800Y-51190400D02*
X147640800Y-49190400D01*
X147640800Y-49190400D02*
X149640800Y-49190400D01*
X149640800Y-49190400D02*
X149640800Y-50690400D01*
X149640800Y-50690400D02*
X149140800Y-51190400D01*
X149140800Y-51190400D02*
X147640800Y-51190400D01*
X147640800Y-52690400D02*
X149640800Y-52690400D01*
X151140800Y-50690400D02*
X151140800Y-49690400D01*
X147640800Y-47690400D02*
X149640800Y-47690400D01*
X146140800Y-50690400D02*
X146140800Y-49690400D01*
X118430800Y-51317400D02*
X118430800Y-49317400D01*
X118430800Y-49317400D02*
X120430800Y-49317400D01*
X120430800Y-49317400D02*
X120430800Y-50817400D01*
X120430800Y-50817400D02*
X119930800Y-51317400D01*
X119930800Y-51317400D02*
X118430800Y-51317400D01*
X118430800Y-52817400D02*
X120430800Y-52817400D01*
X121930800Y-50817400D02*
X121930800Y-49817400D01*
X118430800Y-47817400D02*
X120430800Y-47817400D01*
X116930800Y-50817400D02*
X116930800Y-49817400D01*
X89220800Y-51253900D02*
X89220800Y-49253900D01*
X89220800Y-49253900D02*
X91220800Y-49253900D01*
X91220800Y-49253900D02*
X91220800Y-50753900D01*
X91220800Y-50753900D02*
X90720800Y-51253900D01*
X90720800Y-51253900D02*
X89220800Y-51253900D01*
X89220800Y-52753900D02*
X91220800Y-52753900D01*
X92720800Y-50753900D02*
X92720800Y-49753900D01*
X89220800Y-47753900D02*
X91220800Y-47753900D01*
X87720800Y-50753900D02*
X87720800Y-49753900D01*
D12*
X164706300Y-53936900D02*
X165468300Y-53936900D01*
X164706300Y-47332900D02*
X165468300Y-47332900D01*
X164706300Y-53428900D02*
X165468300Y-53428900D01*
X164706300Y-47840900D02*
X165468300Y-47840900D01*
X75050076Y-45473121D02*
X74925387Y-45694409D01*
X75798213Y-44145391D02*
X75673524Y-44366679D01*
X76829984Y-42831706D02*
X76387407Y-42582327D01*
X74336193Y-47257473D02*
X73893616Y-47008094D01*
X74585572Y-46814896D02*
X74142995Y-46565517D01*
X74834951Y-46372319D02*
X74392374Y-46122940D01*
X75084330Y-45929743D02*
X74641753Y-45680364D01*
X76580605Y-43274283D02*
X76138028Y-43024904D01*
X76331226Y-43716860D02*
X75888649Y-43467481D01*
X76081847Y-44159436D02*
X75639270Y-43910057D01*
X85527576Y-56776121D02*
X85402887Y-56997409D01*
X86275713Y-55448391D02*
X86151024Y-55669679D01*
X87307484Y-54134706D02*
X86864907Y-53885327D01*
X84813693Y-58560473D02*
X84371116Y-58311094D01*
X85063072Y-58117896D02*
X84620495Y-57868517D01*
X85312451Y-57675319D02*
X84869874Y-57425940D01*
X85561830Y-57232743D02*
X85119253Y-56983364D01*
X87058105Y-54577283D02*
X86615528Y-54327904D01*
X86808726Y-55019860D02*
X86366149Y-54770481D01*
X86559347Y-55462436D02*
X86116770Y-55213057D01*
X74986576Y-55669679D02*
X74861887Y-55448391D01*
X75734713Y-56997409D02*
X75610024Y-56776121D01*
X76323907Y-58560473D02*
X76766484Y-58311094D01*
X73830116Y-54134706D02*
X74272693Y-53885327D01*
X74079495Y-54577283D02*
X74522072Y-54327904D01*
X74328874Y-55019860D02*
X74771451Y-54770481D01*
X74578253Y-55462436D02*
X75020830Y-55213057D01*
X76074528Y-58117896D02*
X76517105Y-57868517D01*
X75825149Y-57675319D02*
X76267726Y-57425940D01*
X75575770Y-57232743D02*
X76018347Y-56983364D01*
X85527576Y-44430179D02*
X85402887Y-44208891D01*
X86275713Y-45757909D02*
X86151024Y-45536621D01*
X86864907Y-47320973D02*
X87307484Y-47071594D01*
X84371116Y-42895206D02*
X84813693Y-42645827D01*
X84620495Y-43337783D02*
X85063072Y-43088404D01*
X84869874Y-43780360D02*
X85312451Y-43530981D01*
X85119253Y-44222936D02*
X85561830Y-43973557D01*
X86615528Y-46878396D02*
X87058105Y-46629017D01*
X86366149Y-46435819D02*
X86808726Y-46186440D01*
X86116770Y-45993243D02*
X86559347Y-45743864D01*
X164003305Y-46503204D02*
X164214867Y-46643765D01*
X162733933Y-45659835D02*
X162945495Y-45800396D01*
X161499342Y-44534623D02*
X161218219Y-44957747D01*
X165730581Y-47345853D02*
X165449458Y-47768977D01*
X165307457Y-47064730D02*
X165026335Y-47487854D01*
X164884333Y-46783607D02*
X164603211Y-47206731D01*
X164461209Y-46502484D02*
X164180087Y-46925608D01*
X161922465Y-44815746D02*
X161641343Y-45238870D01*
X162345589Y-45096869D02*
X162064467Y-45519993D01*
X162768713Y-45377992D02*
X162487591Y-45801116D01*
X162945495Y-55494804D02*
X162733933Y-55635365D01*
X164214867Y-54651435D02*
X164003305Y-54791996D01*
X165730581Y-53949347D02*
X165449458Y-53526223D01*
X161499342Y-56760577D02*
X161218219Y-56337453D01*
X161922465Y-56479454D02*
X161641343Y-56056330D01*
X162345589Y-56198331D02*
X162064467Y-55775207D01*
X162768713Y-55917208D02*
X162487591Y-55494084D01*
X165307457Y-54230470D02*
X165026335Y-53807346D01*
X164884333Y-54511593D02*
X164603211Y-54088469D01*
X164461209Y-54792716D02*
X164180087Y-54369592D01*
D11*
X60336181Y-49936423D02*
X60336181Y-50126900D01*
X60383800Y-50222138D01*
X60431419Y-50269757D01*
X60574276Y-50364995D01*
X60764752Y-50412614D01*
X61145705Y-50412614D01*
X61240943Y-50364995D01*
X61288562Y-50317376D01*
X61336181Y-50222138D01*
X61336181Y-50031661D01*
X61288562Y-49936423D01*
X61240943Y-49888804D01*
X61145705Y-49841185D01*
X60907610Y-49841185D01*
X60812371Y-49888804D01*
X60764752Y-49936423D01*
X60717133Y-50031661D01*
X60717133Y-50222138D01*
X60764752Y-50317376D01*
X60812371Y-50364995D01*
X60907610Y-50412614D01*
X30999181Y-50460233D02*
X30999181Y-49793566D01*
X31999181Y-50222138D01*
X148966181Y-49841185D02*
X148966181Y-50412614D01*
X148966181Y-50126900D02*
X147966181Y-50126900D01*
X148109038Y-50222138D01*
X148204276Y-50317376D01*
X148251895Y-50412614D01*
X118978419Y-50539614D02*
X118930800Y-50491995D01*
X118883181Y-50396757D01*
X118883181Y-50158661D01*
X118930800Y-50063423D01*
X118978419Y-50015804D01*
X119073657Y-49968185D01*
X119168895Y-49968185D01*
X119311752Y-50015804D01*
X119883181Y-50587233D01*
X119883181Y-49968185D01*
X89800181Y-50460233D02*
X89800181Y-49841185D01*
X90181133Y-50174519D01*
X90181133Y-50031661D01*
X90228752Y-49936423D01*
X90276371Y-49888804D01*
X90371610Y-49841185D01*
X90609705Y-49841185D01*
X90704943Y-49888804D01*
X90752562Y-49936423D01*
X90800181Y-50031661D01*
X90800181Y-50317376D01*
X90752562Y-50412614D01*
X90704943Y-50460233D01*
D12*
M02*
