G04 #@! TF.FileFunction,Legend,Bot*
%FSLAX46Y46*%
G04 Gerber Fmt 4.6, Leading zero omitted, Abs format (unit mm)*
G04 Created by KiCad (PCBNEW 4.0.7) date 10/22/17 13:14:02*
%MOMM*%
%LPD*%
G01*
G04 APERTURE LIST*
%ADD10C,0.100000*%
G04 APERTURE END LIST*
D10*
X78996896Y-54112145D02*
X87066167Y-54112145D01*
X76540019Y-58371120D02*
X74145998Y-54127903D01*
X74145998Y-54127903D02*
X78996896Y-54112145D01*
X159595996Y-47107898D02*
X161956001Y-45127898D01*
X161956001Y-45127898D02*
X164956002Y-47147898D01*
X164956002Y-47147898D02*
X164956002Y-54147899D01*
X164956002Y-54147899D02*
X161946001Y-56147899D01*
X161946001Y-56147899D02*
X159626001Y-54147899D01*
X159626001Y-54147899D02*
X94325998Y-54127903D01*
X94325998Y-54127903D02*
X89495998Y-58397903D01*
X89495998Y-58397903D02*
X84605998Y-58397903D01*
X84605998Y-58397903D02*
X87039330Y-54111152D01*
X87039330Y-54111152D02*
X74155099Y-54104629D01*
X74155099Y-54104629D02*
X76526000Y-58367899D01*
X76526000Y-58367899D02*
X71705999Y-58347899D01*
X71705999Y-58347899D02*
X66855999Y-54097899D01*
X66855999Y-54097899D02*
X27945997Y-54081236D01*
X27945997Y-54081236D02*
X27945997Y-47081236D01*
X27945997Y-47081236D02*
X66827818Y-47089111D01*
X66827818Y-47089111D02*
X71695997Y-42837898D01*
X71695997Y-42837898D02*
X76556000Y-42827898D01*
X76556000Y-42827898D02*
X74155091Y-47090595D01*
X74155091Y-47090595D02*
X87036907Y-47093203D01*
X87036907Y-47093203D02*
X84595998Y-42827898D01*
X84595998Y-42827898D02*
X89456000Y-42837898D01*
X89456000Y-42837898D02*
X94327818Y-47094680D01*
X94327818Y-47094680D02*
X159595996Y-47107898D01*
X159595996Y-47127898D02*
X161956001Y-45147898D01*
X161956001Y-45147898D02*
X164966002Y-47147898D01*
X164966002Y-47147898D02*
X164956002Y-54147899D01*
X164956002Y-54147899D02*
X161946001Y-56147899D01*
X161946001Y-56147899D02*
X159606001Y-54127899D01*
X78990922Y-47093479D02*
X87060193Y-47093479D01*
X76534045Y-42834504D02*
X74140024Y-47077721D01*
X74140024Y-47077721D02*
X78990922Y-47093479D01*
M02*
