G04 #@! TF.FileFunction,Copper,L1,Top,Signal*
%FSLAX46Y46*%
G04 Gerber Fmt 4.6, Leading zero omitted, Abs format (unit mm)*
G04 Created by KiCad (PCBNEW 4.0.7) date 10/22/17 13:14:02*
%MOMM*%
%LPD*%
G01*
G04 APERTURE LIST*
%ADD10C,0.100000*%
%ADD11R,1.800000X1.400000*%
%ADD12R,2.000000X4.000000*%
%ADD13R,4.000000X2.000000*%
%ADD14C,0.600000*%
%ADD15C,0.250000*%
%ADD16C,1.000000*%
%ADD17C,2.000000*%
%ADD18C,0.500000*%
G04 APERTURE END LIST*
D10*
X78996896Y-54112145D02*
X87066167Y-54112145D01*
X76540019Y-58371120D02*
X74145998Y-54127903D01*
X74145998Y-54127903D02*
X78996896Y-54112145D01*
X159595996Y-47107898D02*
X161956001Y-45127898D01*
X161956001Y-45127898D02*
X164956002Y-47147898D01*
X164956002Y-47147898D02*
X164956002Y-54147899D01*
X164956002Y-54147899D02*
X161946001Y-56147899D01*
X161946001Y-56147899D02*
X159626001Y-54147899D01*
X159626001Y-54147899D02*
X94325998Y-54127903D01*
X94325998Y-54127903D02*
X89495998Y-58397903D01*
X89495998Y-58397903D02*
X84605998Y-58397903D01*
X84605998Y-58397903D02*
X87039330Y-54111152D01*
X87039330Y-54111152D02*
X74155099Y-54104629D01*
X74155099Y-54104629D02*
X76526000Y-58367899D01*
X76526000Y-58367899D02*
X71705999Y-58347899D01*
X71705999Y-58347899D02*
X66855999Y-54097899D01*
X66855999Y-54097899D02*
X27945997Y-54081236D01*
X27945997Y-54081236D02*
X27945997Y-47081236D01*
X27945997Y-47081236D02*
X66827818Y-47089111D01*
X66827818Y-47089111D02*
X71695997Y-42837898D01*
X71695997Y-42837898D02*
X76556000Y-42827898D01*
X76556000Y-42827898D02*
X74155091Y-47090595D01*
X74155091Y-47090595D02*
X87036907Y-47093203D01*
X87036907Y-47093203D02*
X84595998Y-42827898D01*
X84595998Y-42827898D02*
X89456000Y-42837898D01*
X89456000Y-42837898D02*
X94327818Y-47094680D01*
X94327818Y-47094680D02*
X159595996Y-47107898D01*
X159595996Y-47127898D02*
X161956001Y-45147898D01*
X161956001Y-45147898D02*
X164966002Y-47147898D01*
X164966002Y-47147898D02*
X164956002Y-54147899D01*
X164956002Y-54147899D02*
X161946001Y-56147899D01*
X161946001Y-56147899D02*
X159606001Y-54127899D01*
X78990922Y-47093479D02*
X87060193Y-47093479D01*
X76534045Y-42834504D02*
X74140024Y-47077721D01*
X74140024Y-47077721D02*
X78990922Y-47093479D01*
D11*
X58420300Y-48603900D03*
X58420300Y-51903900D03*
X63220300Y-51903900D03*
X63220300Y-48603900D03*
X29146800Y-48540400D03*
X29146800Y-51840400D03*
X33946800Y-51840400D03*
X33946800Y-48540400D03*
X146240800Y-48540400D03*
X146240800Y-51840400D03*
X151040800Y-51840400D03*
X151040800Y-48540400D03*
X117030800Y-48667400D03*
X117030800Y-51967400D03*
X121830800Y-51967400D03*
X121830800Y-48667400D03*
X87820800Y-48603900D03*
X87820800Y-51903900D03*
X92620800Y-51903900D03*
X92620800Y-48603900D03*
D12*
X82473800Y-54381400D03*
D10*
G36*
X75145480Y-53367688D02*
X76559693Y-51953475D01*
X79388120Y-54781902D01*
X77973907Y-56196115D01*
X75145480Y-53367688D01*
X75145480Y-53367688D01*
G37*
D12*
X79362300Y-47078900D03*
X81965800Y-47015400D03*
D13*
X164960300Y-49237900D03*
X164960300Y-52031900D03*
D10*
G36*
X75171645Y-44238841D02*
X76042859Y-44729745D01*
X75551955Y-45600959D01*
X74680741Y-45110055D01*
X75171645Y-44238841D01*
X75171645Y-44238841D01*
G37*
G36*
X85649145Y-55541841D02*
X86520359Y-56032745D01*
X86029455Y-56903959D01*
X85158241Y-56413055D01*
X85649145Y-55541841D01*
X85649145Y-55541841D01*
G37*
G36*
X75979359Y-56413055D02*
X75108145Y-56903959D01*
X74617241Y-56032745D01*
X75488455Y-55541841D01*
X75979359Y-56413055D01*
X75979359Y-56413055D01*
G37*
G36*
X86520359Y-45173555D02*
X85649145Y-45664459D01*
X85158241Y-44793245D01*
X86029455Y-44302341D01*
X86520359Y-45173555D01*
X86520359Y-45173555D01*
G37*
G36*
X162781244Y-46291565D02*
X163334635Y-45458644D01*
X164167556Y-46012035D01*
X163614165Y-46844956D01*
X162781244Y-46291565D01*
X162781244Y-46291565D01*
G37*
G36*
X163614165Y-54450244D02*
X164167556Y-55283165D01*
X163334635Y-55836556D01*
X162781244Y-55003635D01*
X163614165Y-54450244D01*
X163614165Y-54450244D01*
G37*
D14*
X54660800Y-48920400D03*
X29260800Y-48920400D03*
X84251800Y-48920400D03*
X143560800Y-48920400D03*
X81965800Y-48920400D03*
X74409300Y-48983900D03*
X114922300Y-48666400D03*
X161658300Y-49237900D03*
X35610800Y-51460400D03*
X153466800Y-51460400D03*
X79362180Y-51698774D03*
X82473800Y-51460400D03*
X66535300Y-51587400D03*
X95491300Y-51523900D03*
X123685300Y-51650900D03*
X161594800Y-52031900D03*
D15*
X159664400Y-53365400D02*
X163474400Y-55143400D01*
X91541600Y-53441600D02*
X159664400Y-53365400D01*
X85839300Y-56222900D02*
X91541600Y-53441600D01*
X145860800Y-48920400D02*
X146240800Y-48540400D01*
D16*
X55040800Y-48540400D02*
X54660800Y-48920400D01*
X58420300Y-48603900D02*
X55040800Y-48540400D01*
D15*
X29400800Y-48780400D02*
X29400800Y-48540400D01*
D17*
X29260800Y-48920400D02*
X29400800Y-48780400D01*
D18*
X87820800Y-48603900D02*
X84251800Y-48920400D01*
D16*
X146240800Y-48540400D02*
X143560800Y-48920400D01*
D17*
X81965800Y-48920400D02*
X81965800Y-47015400D01*
X81965800Y-47015400D02*
X81965800Y-48920400D01*
X77266800Y-54074795D02*
X74409300Y-48983900D01*
X161658300Y-49237900D02*
X164960300Y-49237900D01*
D16*
X117030800Y-48667400D02*
X114922300Y-48666400D01*
D17*
X34200800Y-51840400D02*
X35610800Y-51460400D01*
D16*
X151040800Y-51840400D02*
X153466800Y-51460400D01*
D17*
X79362300Y-47078900D02*
X79362180Y-51698774D01*
X82473800Y-54381400D02*
X82473800Y-51460400D01*
D16*
X63220300Y-51903900D02*
X66535300Y-51587400D01*
X92620800Y-51903900D02*
X95491300Y-51523900D01*
X121830800Y-51967400D02*
X123685300Y-51650900D01*
D17*
X161594800Y-52031900D02*
X164960300Y-52031900D01*
D15*
X88894214Y-45116222D02*
X88887300Y-45110400D01*
X90093800Y-46126400D02*
X88894214Y-45116222D01*
X90284300Y-50698400D02*
X90093800Y-46126400D01*
X87820800Y-51903900D02*
X90284300Y-50698400D01*
X85839300Y-44983400D02*
X88894214Y-45116222D01*
X92620800Y-48603900D02*
X117030800Y-51967400D01*
X121830800Y-48667400D02*
X146240800Y-51840400D01*
X153085800Y-47650400D02*
X151040800Y-48540400D01*
X160578800Y-47650400D02*
X153085800Y-47650400D01*
X163474400Y-46151800D02*
X160578800Y-47650400D01*
X69900800Y-53365400D02*
X30530800Y-53365400D01*
X30530800Y-53365400D02*
X29400800Y-51840400D01*
X75298300Y-56222900D02*
X69900800Y-53365400D01*
X34200800Y-48540400D02*
X58420300Y-51903900D01*
X63220300Y-48603900D02*
X62598300Y-48475900D01*
X70345762Y-48391151D02*
X73139300Y-44665900D01*
X62598300Y-48475900D02*
X70345762Y-48391151D01*
X73139300Y-44665900D02*
X75361800Y-44919900D01*
M02*
