G04 #@! TF.FileFunction,Copper,L1,Top,Signal*
%FSLAX46Y46*%
G04 Gerber Fmt 4.6, Leading zero omitted, Abs format (unit mm)*
G04 Created by KiCad (PCBNEW 4.0.7) date 10/22/17 14:17:41*
%MOMM*%
%LPD*%
G01*
G04 APERTURE LIST*
%ADD10C,0.100000*%
%ADD11R,4.000000X2.000000*%
%ADD12R,2.000000X4.000000*%
%ADD13R,1.800000X1.400000*%
%ADD14R,1.700000X1.700000*%
%ADD15O,1.700000X1.700000*%
%ADD16C,0.600000*%
%ADD17C,0.250000*%
%ADD18C,2.000000*%
%ADD19C,1.000000*%
%ADD20C,0.500000*%
G04 APERTURE END LIST*
D10*
G36*
X125726038Y-159165624D02*
X127284884Y-158265624D01*
X127984884Y-159478060D01*
X126426038Y-160378060D01*
X125726038Y-159165624D01*
X125726038Y-159165624D01*
G37*
G36*
X124076038Y-156307740D02*
X125634884Y-155407740D01*
X126334884Y-156620176D01*
X124776038Y-157520176D01*
X124076038Y-156307740D01*
X124076038Y-156307740D01*
G37*
G36*
X119919116Y-158707740D02*
X121477962Y-157807740D01*
X122177962Y-159020176D01*
X120619116Y-159920176D01*
X119919116Y-158707740D01*
X119919116Y-158707740D01*
G37*
G36*
X121569116Y-161565624D02*
X123127962Y-160665624D01*
X123827962Y-161878060D01*
X122269116Y-162778060D01*
X121569116Y-161565624D01*
X121569116Y-161565624D01*
G37*
G36*
X150999038Y-144497124D02*
X152557884Y-143597124D01*
X153257884Y-144809560D01*
X151699038Y-145709560D01*
X150999038Y-144497124D01*
X150999038Y-144497124D01*
G37*
G36*
X149349038Y-141639240D02*
X150907884Y-140739240D01*
X151607884Y-141951676D01*
X150049038Y-142851676D01*
X149349038Y-141639240D01*
X149349038Y-141639240D01*
G37*
G36*
X145192116Y-144039240D02*
X146750962Y-143139240D01*
X147450962Y-144351676D01*
X145892116Y-145251676D01*
X145192116Y-144039240D01*
X145192116Y-144039240D01*
G37*
G36*
X146842116Y-146897124D02*
X148400962Y-145997124D01*
X149100962Y-147209560D01*
X147542116Y-148109560D01*
X146842116Y-146897124D01*
X146842116Y-146897124D01*
G37*
D11*
X104457500Y-166204900D03*
X104521000Y-168808400D03*
D10*
G36*
X107297559Y-162014245D02*
X106806655Y-162885459D01*
X105935441Y-162394555D01*
X106426345Y-161523341D01*
X107297559Y-162014245D01*
X107297559Y-162014245D01*
G37*
G36*
X106362845Y-173362959D02*
X105871941Y-172491745D01*
X106743155Y-172000841D01*
X107234059Y-172872055D01*
X106362845Y-173362959D01*
X106362845Y-173362959D01*
G37*
G36*
X152894955Y-128338241D02*
X153385859Y-129209455D01*
X152514645Y-129700359D01*
X152023741Y-128829145D01*
X152894955Y-128338241D01*
X152894955Y-128338241D01*
G37*
G36*
X151960241Y-139686955D02*
X152451145Y-138815741D01*
X153322359Y-139306645D01*
X152831455Y-140177859D01*
X151960241Y-139686955D01*
X151960241Y-139686955D01*
G37*
D11*
X154736800Y-132892800D03*
X154800300Y-135496300D03*
D10*
G36*
X108258762Y-157204076D02*
X106699916Y-158104076D01*
X105999916Y-156891640D01*
X107558762Y-155991640D01*
X108258762Y-157204076D01*
X108258762Y-157204076D01*
G37*
G36*
X109908762Y-160061960D02*
X108349916Y-160961960D01*
X107649916Y-159749524D01*
X109208762Y-158849524D01*
X109908762Y-160061960D01*
X109908762Y-160061960D01*
G37*
G36*
X114065684Y-157661960D02*
X112506838Y-158561960D01*
X111806838Y-157349524D01*
X113365684Y-156449524D01*
X114065684Y-157661960D01*
X114065684Y-157661960D01*
G37*
G36*
X112415684Y-154804076D02*
X110856838Y-155704076D01*
X110156838Y-154491640D01*
X111715684Y-153591640D01*
X112415684Y-154804076D01*
X112415684Y-154804076D01*
G37*
G36*
X133531762Y-142535576D02*
X131972916Y-143435576D01*
X131272916Y-142223140D01*
X132831762Y-141323140D01*
X133531762Y-142535576D01*
X133531762Y-142535576D01*
G37*
G36*
X135181762Y-145393460D02*
X133622916Y-146293460D01*
X132922916Y-145081024D01*
X134481762Y-144181024D01*
X135181762Y-145393460D01*
X135181762Y-145393460D01*
G37*
G36*
X139338684Y-142993460D02*
X137779838Y-143893460D01*
X137079838Y-142681024D01*
X138638684Y-141781024D01*
X139338684Y-142993460D01*
X139338684Y-142993460D01*
G37*
G36*
X137688684Y-140135576D02*
X136129838Y-141035576D01*
X135429838Y-139823140D01*
X136988684Y-138923140D01*
X137688684Y-140135576D01*
X137688684Y-140135576D01*
G37*
G36*
X134547762Y-160620376D02*
X132988916Y-161520376D01*
X132288916Y-160307940D01*
X133847762Y-159407940D01*
X134547762Y-160620376D01*
X134547762Y-160620376D01*
G37*
G36*
X136197762Y-163478260D02*
X134638916Y-164378260D01*
X133938916Y-163165824D01*
X135497762Y-162265824D01*
X136197762Y-163478260D01*
X136197762Y-163478260D01*
G37*
G36*
X140354684Y-161078260D02*
X138795838Y-161978260D01*
X138095838Y-160765824D01*
X139654684Y-159865824D01*
X140354684Y-161078260D01*
X140354684Y-161078260D01*
G37*
G36*
X138704684Y-158220376D02*
X137145838Y-159120376D01*
X136445838Y-157907940D01*
X138004684Y-157007940D01*
X138704684Y-158220376D01*
X138704684Y-158220376D01*
G37*
G36*
X109274762Y-175288876D02*
X107715916Y-176188876D01*
X107015916Y-174976440D01*
X108574762Y-174076440D01*
X109274762Y-175288876D01*
X109274762Y-175288876D01*
G37*
G36*
X110924762Y-178146760D02*
X109365916Y-179046760D01*
X108665916Y-177834324D01*
X110224762Y-176934324D01*
X110924762Y-178146760D01*
X110924762Y-178146760D01*
G37*
G36*
X115081684Y-175746760D02*
X113522838Y-176646760D01*
X112822838Y-175434324D01*
X114381684Y-174534324D01*
X115081684Y-175746760D01*
X115081684Y-175746760D01*
G37*
G36*
X113431684Y-172888876D02*
X111872838Y-173788876D01*
X111172838Y-172576440D01*
X112731684Y-171676440D01*
X113431684Y-172888876D01*
X113431684Y-172888876D01*
G37*
D11*
X155816300Y-153581100D03*
X155752800Y-150977600D03*
D10*
G36*
X152976241Y-157771755D02*
X153467145Y-156900541D01*
X154338359Y-157391445D01*
X153847455Y-158262659D01*
X152976241Y-157771755D01*
X152976241Y-157771755D01*
G37*
G36*
X153910955Y-146423041D02*
X154401859Y-147294255D01*
X153530645Y-147785159D01*
X153039741Y-146913945D01*
X153910955Y-146423041D01*
X153910955Y-146423041D01*
G37*
G36*
X107378845Y-191447759D02*
X106887941Y-190576545D01*
X107759155Y-190085641D01*
X108250059Y-190956855D01*
X107378845Y-191447759D01*
X107378845Y-191447759D01*
G37*
G36*
X108313559Y-180099045D02*
X107822655Y-180970259D01*
X106951441Y-180479355D01*
X107442345Y-179608141D01*
X108313559Y-180099045D01*
X108313559Y-180099045D01*
G37*
D11*
X105537000Y-186893200D03*
X105473500Y-184289700D03*
D10*
G36*
X152015038Y-162581924D02*
X153573884Y-161681924D01*
X154273884Y-162894360D01*
X152715038Y-163794360D01*
X152015038Y-162581924D01*
X152015038Y-162581924D01*
G37*
G36*
X150365038Y-159724040D02*
X151923884Y-158824040D01*
X152623884Y-160036476D01*
X151065038Y-160936476D01*
X150365038Y-159724040D01*
X150365038Y-159724040D01*
G37*
G36*
X146208116Y-162124040D02*
X147766962Y-161224040D01*
X148466962Y-162436476D01*
X146908116Y-163336476D01*
X146208116Y-162124040D01*
X146208116Y-162124040D01*
G37*
G36*
X147858116Y-164981924D02*
X149416962Y-164081924D01*
X150116962Y-165294360D01*
X148558116Y-166194360D01*
X147858116Y-164981924D01*
X147858116Y-164981924D01*
G37*
G36*
X126742038Y-177250424D02*
X128300884Y-176350424D01*
X129000884Y-177562860D01*
X127442038Y-178462860D01*
X126742038Y-177250424D01*
X126742038Y-177250424D01*
G37*
G36*
X125092038Y-174392540D02*
X126650884Y-173492540D01*
X127350884Y-174704976D01*
X125792038Y-175604976D01*
X125092038Y-174392540D01*
X125092038Y-174392540D01*
G37*
G36*
X120935116Y-176792540D02*
X122493962Y-175892540D01*
X123193962Y-177104976D01*
X121635116Y-178004976D01*
X120935116Y-176792540D01*
X120935116Y-176792540D01*
G37*
G36*
X122585116Y-179650424D02*
X124143962Y-178750424D01*
X124843962Y-179962860D01*
X123285116Y-180862860D01*
X122585116Y-179650424D01*
X122585116Y-179650424D01*
G37*
G36*
X122881238Y-142300024D02*
X124440084Y-141400024D01*
X125140084Y-142612460D01*
X123581238Y-143512460D01*
X122881238Y-142300024D01*
X122881238Y-142300024D01*
G37*
G36*
X121231238Y-139442140D02*
X122790084Y-138542140D01*
X123490084Y-139754576D01*
X121931238Y-140654576D01*
X121231238Y-139442140D01*
X121231238Y-139442140D01*
G37*
G36*
X117074316Y-141842140D02*
X118633162Y-140942140D01*
X119333162Y-142154576D01*
X117774316Y-143054576D01*
X117074316Y-141842140D01*
X117074316Y-141842140D01*
G37*
G36*
X118724316Y-144700024D02*
X120283162Y-143800024D01*
X120983162Y-145012460D01*
X119424316Y-145912460D01*
X118724316Y-144700024D01*
X118724316Y-144700024D01*
G37*
G36*
X148154238Y-127631524D02*
X149713084Y-126731524D01*
X150413084Y-127943960D01*
X148854238Y-128843960D01*
X148154238Y-127631524D01*
X148154238Y-127631524D01*
G37*
G36*
X146504238Y-124773640D02*
X148063084Y-123873640D01*
X148763084Y-125086076D01*
X147204238Y-125986076D01*
X146504238Y-124773640D01*
X146504238Y-124773640D01*
G37*
G36*
X142347316Y-127173640D02*
X143906162Y-126273640D01*
X144606162Y-127486076D01*
X143047316Y-128386076D01*
X142347316Y-127173640D01*
X142347316Y-127173640D01*
G37*
G36*
X143997316Y-130031524D02*
X145556162Y-129131524D01*
X146256162Y-130343960D01*
X144697316Y-131243960D01*
X143997316Y-130031524D01*
X143997316Y-130031524D01*
G37*
D11*
X101612700Y-149339300D03*
X101676200Y-151942800D03*
D10*
G36*
X104452759Y-145148645D02*
X103961855Y-146019859D01*
X103090641Y-145528955D01*
X103581545Y-144657741D01*
X104452759Y-145148645D01*
X104452759Y-145148645D01*
G37*
G36*
X103518045Y-156497359D02*
X103027141Y-155626145D01*
X103898355Y-155135241D01*
X104389259Y-156006455D01*
X103518045Y-156497359D01*
X103518045Y-156497359D01*
G37*
G36*
X43713055Y-171010241D02*
X44203959Y-171881455D01*
X43332745Y-172372359D01*
X42841841Y-171501145D01*
X43713055Y-171010241D01*
X43713055Y-171010241D01*
G37*
G36*
X42841841Y-161340455D02*
X43332745Y-160469241D01*
X44203959Y-160960145D01*
X43713055Y-161831359D01*
X42841841Y-161340455D01*
X42841841Y-161340455D01*
G37*
G36*
X40667688Y-171844120D02*
X39253475Y-170429907D01*
X42081902Y-167601480D01*
X43496115Y-169015693D01*
X40667688Y-171844120D01*
X40667688Y-171844120D01*
G37*
D11*
X41681400Y-164515800D03*
D10*
G36*
X61364938Y-176756524D02*
X62923784Y-177656524D01*
X62223784Y-178868960D01*
X60664938Y-177968960D01*
X61364938Y-176756524D01*
X61364938Y-176756524D01*
G37*
G36*
X63014938Y-173898640D02*
X64573784Y-174798640D01*
X63873784Y-176011076D01*
X62314938Y-175111076D01*
X63014938Y-173898640D01*
X63014938Y-173898640D01*
G37*
G36*
X58858016Y-171498640D02*
X60416862Y-172398640D01*
X59716862Y-173611076D01*
X58158016Y-172711076D01*
X58858016Y-171498640D01*
X58858016Y-171498640D01*
G37*
G36*
X57208016Y-174356524D02*
X58766862Y-175256524D01*
X58066862Y-176468960D01*
X56508016Y-175568960D01*
X57208016Y-174356524D01*
X57208016Y-174356524D01*
G37*
G36*
X86764938Y-191488524D02*
X88323784Y-192388524D01*
X87623784Y-193600960D01*
X86064938Y-192700960D01*
X86764938Y-191488524D01*
X86764938Y-191488524D01*
G37*
G36*
X88414938Y-188630640D02*
X89973784Y-189530640D01*
X89273784Y-190743076D01*
X87714938Y-189843076D01*
X88414938Y-188630640D01*
X88414938Y-188630640D01*
G37*
G36*
X84258016Y-186230640D02*
X85816862Y-187130640D01*
X85116862Y-188343076D01*
X83558016Y-187443076D01*
X84258016Y-186230640D01*
X84258016Y-186230640D01*
G37*
G36*
X82608016Y-189088524D02*
X84166862Y-189988524D01*
X83466862Y-191200960D01*
X81908016Y-190300960D01*
X82608016Y-189088524D01*
X82608016Y-189088524D01*
G37*
G36*
X82243738Y-179677524D02*
X83802584Y-180577524D01*
X83102584Y-181789960D01*
X81543738Y-180889960D01*
X82243738Y-179677524D01*
X82243738Y-179677524D01*
G37*
G36*
X83893738Y-176819640D02*
X85452584Y-177719640D01*
X84752584Y-178932076D01*
X83193738Y-178032076D01*
X83893738Y-176819640D01*
X83893738Y-176819640D01*
G37*
G36*
X79736816Y-174419640D02*
X81295662Y-175319640D01*
X80595662Y-176532076D01*
X79036816Y-175632076D01*
X79736816Y-174419640D01*
X79736816Y-174419640D01*
G37*
G36*
X78086816Y-177277524D02*
X79645662Y-178177524D01*
X78945662Y-179389960D01*
X77386816Y-178489960D01*
X78086816Y-177277524D01*
X78086816Y-177277524D01*
G37*
G36*
X56843738Y-164945524D02*
X58402584Y-165845524D01*
X57702584Y-167057960D01*
X56143738Y-166157960D01*
X56843738Y-164945524D01*
X56843738Y-164945524D01*
G37*
G36*
X58493738Y-162087640D02*
X60052584Y-162987640D01*
X59352584Y-164200076D01*
X57793738Y-163300076D01*
X58493738Y-162087640D01*
X58493738Y-162087640D01*
G37*
G36*
X54336816Y-159687640D02*
X55895662Y-160587640D01*
X55195662Y-161800076D01*
X53636816Y-160900076D01*
X54336816Y-159687640D01*
X54336816Y-159687640D01*
G37*
G36*
X52686816Y-162545524D02*
X54245662Y-163445524D01*
X53545662Y-164657960D01*
X51986816Y-163757960D01*
X52686816Y-162545524D01*
X52686816Y-162545524D01*
G37*
D11*
X37160200Y-152704800D03*
D10*
G36*
X36146488Y-160033120D02*
X34732275Y-158618907D01*
X37560702Y-155790480D01*
X38974915Y-157204693D01*
X36146488Y-160033120D01*
X36146488Y-160033120D01*
G37*
G36*
X38320641Y-149529455D02*
X38811545Y-148658241D01*
X39682759Y-149149145D01*
X39191855Y-150020359D01*
X38320641Y-149529455D01*
X38320641Y-149529455D01*
G37*
G36*
X39191855Y-159199241D02*
X39682759Y-160070455D01*
X38811545Y-160561359D01*
X38320641Y-159690145D01*
X39191855Y-159199241D01*
X39191855Y-159199241D01*
G37*
G36*
X34518255Y-147210441D02*
X35009159Y-148081655D01*
X34137945Y-148572559D01*
X33647041Y-147701345D01*
X34518255Y-147210441D01*
X34518255Y-147210441D01*
G37*
G36*
X33647041Y-137540655D02*
X34137945Y-136669441D01*
X35009159Y-137160345D01*
X34518255Y-138031559D01*
X33647041Y-137540655D01*
X33647041Y-137540655D01*
G37*
G36*
X31472888Y-148044320D02*
X30058675Y-146630107D01*
X32887102Y-143801680D01*
X34301315Y-145215893D01*
X31472888Y-148044320D01*
X31472888Y-148044320D01*
G37*
D11*
X32486600Y-140716000D03*
D10*
G36*
X52170138Y-152956724D02*
X53728984Y-153856724D01*
X53028984Y-155069160D01*
X51470138Y-154169160D01*
X52170138Y-152956724D01*
X52170138Y-152956724D01*
G37*
G36*
X53820138Y-150098840D02*
X55378984Y-150998840D01*
X54678984Y-152211276D01*
X53120138Y-151311276D01*
X53820138Y-150098840D01*
X53820138Y-150098840D01*
G37*
G36*
X49663216Y-147698840D02*
X51222062Y-148598840D01*
X50522062Y-149811276D01*
X48963216Y-148911276D01*
X49663216Y-147698840D01*
X49663216Y-147698840D01*
G37*
G36*
X48013216Y-150556724D02*
X49572062Y-151456724D01*
X48872062Y-152669160D01*
X47313216Y-151769160D01*
X48013216Y-150556724D01*
X48013216Y-150556724D01*
G37*
G36*
X77570138Y-167688724D02*
X79128984Y-168588724D01*
X78428984Y-169801160D01*
X76870138Y-168901160D01*
X77570138Y-167688724D01*
X77570138Y-167688724D01*
G37*
G36*
X79220138Y-164830840D02*
X80778984Y-165730840D01*
X80078984Y-166943276D01*
X78520138Y-166043276D01*
X79220138Y-164830840D01*
X79220138Y-164830840D01*
G37*
G36*
X75063216Y-162430840D02*
X76622062Y-163330840D01*
X75922062Y-164543276D01*
X74363216Y-163643276D01*
X75063216Y-162430840D01*
X75063216Y-162430840D01*
G37*
G36*
X73413216Y-165288724D02*
X74972062Y-166188724D01*
X74272062Y-167401160D01*
X72713216Y-166501160D01*
X73413216Y-165288724D01*
X73413216Y-165288724D01*
G37*
G36*
X73074338Y-155522124D02*
X74633184Y-156422124D01*
X73933184Y-157634560D01*
X72374338Y-156734560D01*
X73074338Y-155522124D01*
X73074338Y-155522124D01*
G37*
G36*
X74724338Y-152664240D02*
X76283184Y-153564240D01*
X75583184Y-154776676D01*
X74024338Y-153876676D01*
X74724338Y-152664240D01*
X74724338Y-152664240D01*
G37*
G36*
X70567416Y-150264240D02*
X72126262Y-151164240D01*
X71426262Y-152376676D01*
X69867416Y-151476676D01*
X70567416Y-150264240D01*
X70567416Y-150264240D01*
G37*
G36*
X68917416Y-153122124D02*
X70476262Y-154022124D01*
X69776262Y-155234560D01*
X68217416Y-154334560D01*
X68917416Y-153122124D01*
X68917416Y-153122124D01*
G37*
G36*
X47674338Y-140790124D02*
X49233184Y-141690124D01*
X48533184Y-142902560D01*
X46974338Y-142002560D01*
X47674338Y-140790124D01*
X47674338Y-140790124D01*
G37*
G36*
X49324338Y-137932240D02*
X50883184Y-138832240D01*
X50183184Y-140044676D01*
X48624338Y-139144676D01*
X49324338Y-137932240D01*
X49324338Y-137932240D01*
G37*
G36*
X45167416Y-135532240D02*
X46726262Y-136432240D01*
X46026262Y-137644676D01*
X44467416Y-136744676D01*
X45167416Y-135532240D01*
X45167416Y-135532240D01*
G37*
G36*
X43517416Y-138390124D02*
X45076262Y-139290124D01*
X44376262Y-140502560D01*
X42817416Y-139602560D01*
X43517416Y-138390124D01*
X43517416Y-138390124D01*
G37*
D11*
X27990800Y-128549400D03*
D10*
G36*
X26977088Y-135877720D02*
X25562875Y-134463507D01*
X28391302Y-131635080D01*
X29805515Y-133049293D01*
X26977088Y-135877720D01*
X26977088Y-135877720D01*
G37*
G36*
X29151241Y-125374055D02*
X29642145Y-124502841D01*
X30513359Y-124993745D01*
X30022455Y-125864959D01*
X29151241Y-125374055D01*
X29151241Y-125374055D01*
G37*
G36*
X30022455Y-135043841D02*
X30513359Y-135915055D01*
X29642145Y-136405959D01*
X29151241Y-135534745D01*
X30022455Y-135043841D01*
X30022455Y-135043841D01*
G37*
G36*
X25044055Y-122877241D02*
X25534959Y-123748455D01*
X24663745Y-124239359D01*
X24172841Y-123368145D01*
X25044055Y-122877241D01*
X25044055Y-122877241D01*
G37*
G36*
X24172841Y-113207455D02*
X24663745Y-112336241D01*
X25534959Y-112827145D01*
X25044055Y-113698359D01*
X24172841Y-113207455D01*
X24172841Y-113207455D01*
G37*
G36*
X21998688Y-123711120D02*
X20584475Y-122296907D01*
X23412902Y-119468480D01*
X24827115Y-120882693D01*
X21998688Y-123711120D01*
X21998688Y-123711120D01*
G37*
D11*
X23012400Y-116382800D03*
D10*
G36*
X42695938Y-128623524D02*
X44254784Y-129523524D01*
X43554784Y-130735960D01*
X41995938Y-129835960D01*
X42695938Y-128623524D01*
X42695938Y-128623524D01*
G37*
G36*
X44345938Y-125765640D02*
X45904784Y-126665640D01*
X45204784Y-127878076D01*
X43645938Y-126978076D01*
X44345938Y-125765640D01*
X44345938Y-125765640D01*
G37*
G36*
X40189016Y-123365640D02*
X41747862Y-124265640D01*
X41047862Y-125478076D01*
X39489016Y-124578076D01*
X40189016Y-123365640D01*
X40189016Y-123365640D01*
G37*
G36*
X38539016Y-126223524D02*
X40097862Y-127123524D01*
X39397862Y-128335960D01*
X37839016Y-127435960D01*
X38539016Y-126223524D01*
X38539016Y-126223524D01*
G37*
G36*
X68095938Y-143355524D02*
X69654784Y-144255524D01*
X68954784Y-145467960D01*
X67395938Y-144567960D01*
X68095938Y-143355524D01*
X68095938Y-143355524D01*
G37*
G36*
X69745938Y-140497640D02*
X71304784Y-141397640D01*
X70604784Y-142610076D01*
X69045938Y-141710076D01*
X69745938Y-140497640D01*
X69745938Y-140497640D01*
G37*
G36*
X65589016Y-138097640D02*
X67147862Y-138997640D01*
X66447862Y-140210076D01*
X64889016Y-139310076D01*
X65589016Y-138097640D01*
X65589016Y-138097640D01*
G37*
G36*
X63939016Y-140955524D02*
X65497862Y-141855524D01*
X64797862Y-143067960D01*
X63239016Y-142167960D01*
X63939016Y-140955524D01*
X63939016Y-140955524D01*
G37*
G36*
X155638565Y-57269644D02*
X156191956Y-58102565D01*
X155359035Y-58655956D01*
X154805644Y-57823035D01*
X155638565Y-57269644D01*
X155638565Y-57269644D01*
G37*
G36*
X154805644Y-49110965D02*
X155359035Y-48278044D01*
X156191956Y-48831435D01*
X155638565Y-49664356D01*
X154805644Y-49110965D01*
X154805644Y-49110965D01*
G37*
G36*
X78544759Y-47992955D02*
X77673545Y-48483859D01*
X77182641Y-47612645D01*
X78053855Y-47121741D01*
X78544759Y-47992955D01*
X78544759Y-47992955D01*
G37*
G36*
X68003759Y-59232455D02*
X67132545Y-59723359D01*
X66641641Y-58852145D01*
X67512855Y-58361241D01*
X68003759Y-59232455D01*
X68003759Y-59232455D01*
G37*
G36*
X77673545Y-58361241D02*
X78544759Y-58852145D01*
X78053855Y-59723359D01*
X77182641Y-59232455D01*
X77673545Y-58361241D01*
X77673545Y-58361241D01*
G37*
G36*
X67196045Y-47058241D02*
X68067259Y-47549145D01*
X67576355Y-48420359D01*
X66705141Y-47929455D01*
X67196045Y-47058241D01*
X67196045Y-47058241D01*
G37*
D11*
X156984700Y-52057300D03*
X156984700Y-54851300D03*
D12*
X73990200Y-49834800D03*
X71386700Y-49898300D03*
D10*
G36*
X67169880Y-56187088D02*
X68584093Y-54772875D01*
X71412520Y-57601302D01*
X69998307Y-59015515D01*
X67169880Y-56187088D01*
X67169880Y-56187088D01*
G37*
D12*
X74498200Y-57200800D03*
D13*
X79845200Y-51423300D03*
X79845200Y-54723300D03*
X84645200Y-54723300D03*
X84645200Y-51423300D03*
X109055200Y-51486800D03*
X109055200Y-54786800D03*
X113855200Y-54786800D03*
X113855200Y-51486800D03*
X138265200Y-51359800D03*
X138265200Y-54659800D03*
X143065200Y-54659800D03*
X143065200Y-51359800D03*
X21171200Y-51359800D03*
X21171200Y-54659800D03*
X25971200Y-54659800D03*
X25971200Y-51359800D03*
X50444700Y-51423300D03*
X50444700Y-54723300D03*
X55244700Y-54723300D03*
X55244700Y-51423300D03*
X127329900Y-67778900D03*
X127329900Y-64478900D03*
X122529900Y-64478900D03*
X122529900Y-67778900D03*
X156603400Y-67842400D03*
X156603400Y-64542400D03*
X151803400Y-64542400D03*
X151803400Y-67842400D03*
X39509400Y-67842400D03*
X39509400Y-64542400D03*
X34709400Y-64542400D03*
X34709400Y-67842400D03*
X68719400Y-67715400D03*
X68719400Y-64415400D03*
X63919400Y-64415400D03*
X63919400Y-67715400D03*
X97929400Y-67778900D03*
X97929400Y-64478900D03*
X93129400Y-64478900D03*
X93129400Y-67778900D03*
D12*
X103276400Y-62001400D03*
D10*
G36*
X110604720Y-63015112D02*
X109190507Y-64429325D01*
X106362080Y-61600898D01*
X107776293Y-60186685D01*
X110604720Y-63015112D01*
X110604720Y-63015112D01*
G37*
D12*
X106387900Y-69303900D03*
X103784400Y-69367400D03*
D11*
X20789900Y-67144900D03*
X20789900Y-64350900D03*
D10*
G36*
X110578555Y-72143959D02*
X109707341Y-71653055D01*
X110198245Y-70781841D01*
X111069459Y-71272745D01*
X110578555Y-72143959D01*
X110578555Y-72143959D01*
G37*
G36*
X100101055Y-60840959D02*
X99229841Y-60350055D01*
X99720745Y-59478841D01*
X100591959Y-59969745D01*
X100101055Y-60840959D01*
X100101055Y-60840959D01*
G37*
G36*
X109770841Y-59969745D02*
X110642055Y-59478841D01*
X111132959Y-60350055D01*
X110261745Y-60840959D01*
X109770841Y-59969745D01*
X109770841Y-59969745D01*
G37*
G36*
X99229841Y-71209245D02*
X100101055Y-70718341D01*
X100591959Y-71589555D01*
X99720745Y-72080459D01*
X99229841Y-71209245D01*
X99229841Y-71209245D01*
G37*
G36*
X22968956Y-70091235D02*
X22415565Y-70924156D01*
X21582644Y-70370765D01*
X22136035Y-69537844D01*
X22968956Y-70091235D01*
X22968956Y-70091235D01*
G37*
G36*
X22136035Y-61932556D02*
X21582644Y-61099635D01*
X22415565Y-60546244D01*
X22968956Y-61379165D01*
X22136035Y-61932556D01*
X22136035Y-61932556D01*
G37*
G36*
X156171965Y-82110844D02*
X156725356Y-82943765D01*
X155892435Y-83497156D01*
X155339044Y-82664235D01*
X156171965Y-82110844D01*
X156171965Y-82110844D01*
G37*
G36*
X155339044Y-73952165D02*
X155892435Y-73119244D01*
X156725356Y-73672635D01*
X156171965Y-74505556D01*
X155339044Y-73952165D01*
X155339044Y-73952165D01*
G37*
G36*
X79078159Y-72834155D02*
X78206945Y-73325059D01*
X77716041Y-72453845D01*
X78587255Y-71962941D01*
X79078159Y-72834155D01*
X79078159Y-72834155D01*
G37*
G36*
X68537159Y-84073655D02*
X67665945Y-84564559D01*
X67175041Y-83693345D01*
X68046255Y-83202441D01*
X68537159Y-84073655D01*
X68537159Y-84073655D01*
G37*
G36*
X78206945Y-83202441D02*
X79078159Y-83693345D01*
X78587255Y-84564559D01*
X77716041Y-84073655D01*
X78206945Y-83202441D01*
X78206945Y-83202441D01*
G37*
G36*
X67729445Y-71899441D02*
X68600659Y-72390345D01*
X68109755Y-73261559D01*
X67238541Y-72770655D01*
X67729445Y-71899441D01*
X67729445Y-71899441D01*
G37*
D11*
X157518100Y-76898500D03*
X157518100Y-79692500D03*
D12*
X74523600Y-74676000D03*
X71920100Y-74739500D03*
D10*
G36*
X67703280Y-81028288D02*
X69117493Y-79614075D01*
X71945920Y-82442502D01*
X70531707Y-83856715D01*
X67703280Y-81028288D01*
X67703280Y-81028288D01*
G37*
D12*
X75031600Y-82042000D03*
D13*
X80378600Y-76264500D03*
X80378600Y-79564500D03*
X85178600Y-79564500D03*
X85178600Y-76264500D03*
X109588600Y-76328000D03*
X109588600Y-79628000D03*
X114388600Y-79628000D03*
X114388600Y-76328000D03*
X138798600Y-76201000D03*
X138798600Y-79501000D03*
X143598600Y-79501000D03*
X143598600Y-76201000D03*
X21704600Y-76201000D03*
X21704600Y-79501000D03*
X26504600Y-79501000D03*
X26504600Y-76201000D03*
X50978100Y-76264500D03*
X50978100Y-79564500D03*
X55778100Y-79564500D03*
X55778100Y-76264500D03*
X127863300Y-92620100D03*
X127863300Y-89320100D03*
X123063300Y-89320100D03*
X123063300Y-92620100D03*
X157136800Y-92683600D03*
X157136800Y-89383600D03*
X152336800Y-89383600D03*
X152336800Y-92683600D03*
X40042800Y-92683600D03*
X40042800Y-89383600D03*
X35242800Y-89383600D03*
X35242800Y-92683600D03*
X69252800Y-92556600D03*
X69252800Y-89256600D03*
X64452800Y-89256600D03*
X64452800Y-92556600D03*
X98462800Y-92620100D03*
X98462800Y-89320100D03*
X93662800Y-89320100D03*
X93662800Y-92620100D03*
D12*
X103809800Y-86842600D03*
D10*
G36*
X111138120Y-87856312D02*
X109723907Y-89270525D01*
X106895480Y-86442098D01*
X108309693Y-85027885D01*
X111138120Y-87856312D01*
X111138120Y-87856312D01*
G37*
D12*
X106921300Y-94145100D03*
X104317800Y-94208600D03*
D11*
X21323300Y-91986100D03*
X21323300Y-89192100D03*
D10*
G36*
X111111955Y-96985159D02*
X110240741Y-96494255D01*
X110731645Y-95623041D01*
X111602859Y-96113945D01*
X111111955Y-96985159D01*
X111111955Y-96985159D01*
G37*
G36*
X100634455Y-85682159D02*
X99763241Y-85191255D01*
X100254145Y-84320041D01*
X101125359Y-84810945D01*
X100634455Y-85682159D01*
X100634455Y-85682159D01*
G37*
G36*
X110304241Y-84810945D02*
X111175455Y-84320041D01*
X111666359Y-85191255D01*
X110795145Y-85682159D01*
X110304241Y-84810945D01*
X110304241Y-84810945D01*
G37*
G36*
X99763241Y-96050445D02*
X100634455Y-95559541D01*
X101125359Y-96430755D01*
X100254145Y-96921659D01*
X99763241Y-96050445D01*
X99763241Y-96050445D01*
G37*
G36*
X23502356Y-94932435D02*
X22948965Y-95765356D01*
X22116044Y-95211965D01*
X22669435Y-94379044D01*
X23502356Y-94932435D01*
X23502356Y-94932435D01*
G37*
G36*
X22669435Y-86773756D02*
X22116044Y-85940835D01*
X22948965Y-85387444D01*
X23502356Y-86220365D01*
X22669435Y-86773756D01*
X22669435Y-86773756D01*
G37*
G36*
X21983635Y-36557956D02*
X21430244Y-35725035D01*
X22263165Y-35171644D01*
X22816556Y-36004565D01*
X21983635Y-36557956D01*
X21983635Y-36557956D01*
G37*
G36*
X22816556Y-44716635D02*
X22263165Y-45549556D01*
X21430244Y-44996165D01*
X21983635Y-44163244D01*
X22816556Y-44716635D01*
X22816556Y-44716635D01*
G37*
G36*
X99077441Y-45834645D02*
X99948655Y-45343741D01*
X100439559Y-46214955D01*
X99568345Y-46705859D01*
X99077441Y-45834645D01*
X99077441Y-45834645D01*
G37*
G36*
X109618441Y-34595145D02*
X110489655Y-34104241D01*
X110980559Y-34975455D01*
X110109345Y-35466359D01*
X109618441Y-34595145D01*
X109618441Y-34595145D01*
G37*
G36*
X99948655Y-35466359D02*
X99077441Y-34975455D01*
X99568345Y-34104241D01*
X100439559Y-34595145D01*
X99948655Y-35466359D01*
X99948655Y-35466359D01*
G37*
G36*
X110426155Y-46769359D02*
X109554941Y-46278455D01*
X110045845Y-45407241D01*
X110917059Y-45898145D01*
X110426155Y-46769359D01*
X110426155Y-46769359D01*
G37*
D11*
X20637500Y-41770300D03*
X20637500Y-38976300D03*
D12*
X103632000Y-43992800D03*
X106235500Y-43929300D03*
D10*
G36*
X110452320Y-37640512D02*
X109038107Y-39054725D01*
X106209680Y-36226298D01*
X107623893Y-34812085D01*
X110452320Y-37640512D01*
X110452320Y-37640512D01*
G37*
D12*
X103124000Y-36626800D03*
D13*
X97777000Y-42404300D03*
X97777000Y-39104300D03*
X92977000Y-39104300D03*
X92977000Y-42404300D03*
X68567000Y-42340800D03*
X68567000Y-39040800D03*
X63767000Y-39040800D03*
X63767000Y-42340800D03*
X39357000Y-42467800D03*
X39357000Y-39167800D03*
X34557000Y-39167800D03*
X34557000Y-42467800D03*
X156451000Y-42467800D03*
X156451000Y-39167800D03*
X151651000Y-39167800D03*
X151651000Y-42467800D03*
X127177500Y-42404300D03*
X127177500Y-39104300D03*
X122377500Y-39104300D03*
X122377500Y-42404300D03*
D10*
G36*
X63523938Y-131188924D02*
X65082784Y-132088924D01*
X64382784Y-133301360D01*
X62823938Y-132401360D01*
X63523938Y-131188924D01*
X63523938Y-131188924D01*
G37*
G36*
X65173938Y-128331040D02*
X66732784Y-129231040D01*
X66032784Y-130443476D01*
X64473938Y-129543476D01*
X65173938Y-128331040D01*
X65173938Y-128331040D01*
G37*
G36*
X61017016Y-125931040D02*
X62575862Y-126831040D01*
X61875862Y-128043476D01*
X60317016Y-127143476D01*
X61017016Y-125931040D01*
X61017016Y-125931040D01*
G37*
G36*
X59367016Y-128788924D02*
X60925862Y-129688924D01*
X60225862Y-130901360D01*
X58667016Y-130001360D01*
X59367016Y-128788924D01*
X59367016Y-128788924D01*
G37*
G36*
X38123938Y-116456924D02*
X39682784Y-117356924D01*
X38982784Y-118569360D01*
X37423938Y-117669360D01*
X38123938Y-116456924D01*
X38123938Y-116456924D01*
G37*
G36*
X39773938Y-113599040D02*
X41332784Y-114499040D01*
X40632784Y-115711476D01*
X39073938Y-114811476D01*
X39773938Y-113599040D01*
X39773938Y-113599040D01*
G37*
G36*
X35617016Y-111199040D02*
X37175862Y-112099040D01*
X36475862Y-113311476D01*
X34917016Y-112411476D01*
X35617016Y-111199040D01*
X35617016Y-111199040D01*
G37*
G36*
X33967016Y-114056924D02*
X35525862Y-114956924D01*
X34825862Y-116169360D01*
X33267016Y-115269360D01*
X33967016Y-114056924D01*
X33967016Y-114056924D01*
G37*
D11*
X18440400Y-104216200D03*
D10*
G36*
X17426688Y-111544520D02*
X16012475Y-110130307D01*
X18840902Y-107301880D01*
X20255115Y-108716093D01*
X17426688Y-111544520D01*
X17426688Y-111544520D01*
G37*
G36*
X19600841Y-101040855D02*
X20091745Y-100169641D01*
X20962959Y-100660545D01*
X20472055Y-101531759D01*
X19600841Y-101040855D01*
X19600841Y-101040855D01*
G37*
G36*
X20472055Y-110710641D02*
X20962959Y-111581855D01*
X20091745Y-112072759D01*
X19600841Y-111201545D01*
X20472055Y-110710641D01*
X20472055Y-110710641D01*
G37*
D13*
X50292300Y-26048700D03*
X50292300Y-29348700D03*
X55092300Y-29348700D03*
X55092300Y-26048700D03*
X21018800Y-25985200D03*
X21018800Y-29285200D03*
X25818800Y-29285200D03*
X25818800Y-25985200D03*
X138112800Y-25985200D03*
X138112800Y-29285200D03*
X142912800Y-29285200D03*
X142912800Y-25985200D03*
X108902800Y-26112200D03*
X108902800Y-29412200D03*
X113702800Y-29412200D03*
X113702800Y-26112200D03*
X79692800Y-26048700D03*
X79692800Y-29348700D03*
X84492800Y-29348700D03*
X84492800Y-26048700D03*
D12*
X74345800Y-31826200D03*
D10*
G36*
X67017480Y-30812488D02*
X68431693Y-29398275D01*
X71260120Y-32226702D01*
X69845907Y-33640915D01*
X67017480Y-30812488D01*
X67017480Y-30812488D01*
G37*
D12*
X71234300Y-24523700D03*
X73837800Y-24460200D03*
D11*
X156832300Y-26682700D03*
X156832300Y-29476700D03*
D10*
G36*
X67043645Y-21683641D02*
X67914859Y-22174545D01*
X67423955Y-23045759D01*
X66552741Y-22554855D01*
X67043645Y-21683641D01*
X67043645Y-21683641D01*
G37*
G36*
X77521145Y-32986641D02*
X78392359Y-33477545D01*
X77901455Y-34348759D01*
X77030241Y-33857855D01*
X77521145Y-32986641D01*
X77521145Y-32986641D01*
G37*
G36*
X67851359Y-33857855D02*
X66980145Y-34348759D01*
X66489241Y-33477545D01*
X67360455Y-32986641D01*
X67851359Y-33857855D01*
X67851359Y-33857855D01*
G37*
G36*
X78392359Y-22618355D02*
X77521145Y-23109259D01*
X77030241Y-22238045D01*
X77901455Y-21747141D01*
X78392359Y-22618355D01*
X78392359Y-22618355D01*
G37*
G36*
X154653244Y-23736365D02*
X155206635Y-22903444D01*
X156039556Y-23456835D01*
X155486165Y-24289756D01*
X154653244Y-23736365D01*
X154653244Y-23736365D01*
G37*
G36*
X155486165Y-31895044D02*
X156039556Y-32727965D01*
X155206635Y-33281356D01*
X154653244Y-32448435D01*
X155486165Y-31895044D01*
X155486165Y-31895044D01*
G37*
D14*
X95275400Y-117856000D03*
D15*
X95275400Y-120396000D03*
X95275400Y-122936000D03*
D14*
X89941400Y-125158500D03*
D13*
X87287400Y-118238000D03*
X87287400Y-121538000D03*
X92087400Y-121538000D03*
X92087400Y-118238000D03*
D11*
X76796900Y-118935500D03*
X76796900Y-121729500D03*
X102831900Y-118872000D03*
X102831900Y-121666000D03*
D10*
G36*
X81967455Y-133152036D02*
X80235405Y-132152036D01*
X82235405Y-128687934D01*
X83967455Y-129687934D01*
X81967455Y-133152036D01*
X81967455Y-133152036D01*
G37*
G36*
X84387130Y-134549036D02*
X82655080Y-133549036D01*
X84655080Y-130084934D01*
X86387130Y-131084934D01*
X84387130Y-134549036D01*
X84387130Y-134549036D01*
G37*
G36*
X94984955Y-110609536D02*
X93252905Y-109609536D01*
X95252905Y-106145434D01*
X96984955Y-107145434D01*
X94984955Y-110609536D01*
X94984955Y-110609536D01*
G37*
G36*
X97404630Y-112006536D02*
X95672580Y-111006536D01*
X97672580Y-107542434D01*
X99404630Y-108542434D01*
X97404630Y-112006536D01*
X97404630Y-112006536D01*
G37*
G36*
X82643845Y-107115964D02*
X84375895Y-106115964D01*
X86375895Y-109580066D01*
X84643845Y-110580066D01*
X82643845Y-107115964D01*
X82643845Y-107115964D01*
G37*
G36*
X80224170Y-108512964D02*
X81956220Y-107512964D01*
X83956220Y-110977066D01*
X82224170Y-111977066D01*
X80224170Y-108512964D01*
X80224170Y-108512964D01*
G37*
G36*
X95661345Y-129594964D02*
X97393395Y-128594964D01*
X99393395Y-132059066D01*
X97661345Y-133059066D01*
X95661345Y-129594964D01*
X95661345Y-129594964D01*
G37*
G36*
X93241670Y-130991964D02*
X94973720Y-129991964D01*
X96973720Y-133456066D01*
X95241670Y-134456066D01*
X93241670Y-130991964D01*
X93241670Y-130991964D01*
G37*
G36*
X74617844Y-115989165D02*
X75171235Y-115156244D01*
X76004156Y-115709635D01*
X75450765Y-116542556D01*
X74617844Y-115989165D01*
X74617844Y-115989165D01*
G37*
G36*
X79333973Y-109807262D02*
X78889338Y-110702973D01*
X77993627Y-110258338D01*
X78438262Y-109362627D01*
X79333973Y-109807262D01*
X79333973Y-109807262D01*
G37*
G36*
X85993982Y-105006591D02*
X86992009Y-105069382D01*
X86929218Y-106067409D01*
X85931191Y-106004618D01*
X85993982Y-105006591D01*
X85993982Y-105006591D01*
G37*
G36*
X93697609Y-105953818D02*
X92699582Y-106016609D01*
X92636791Y-105018582D01*
X93634818Y-104955791D01*
X93697609Y-105953818D01*
X93697609Y-105953818D01*
G37*
G36*
X101190538Y-109337227D02*
X101635173Y-110232938D01*
X100739462Y-110677573D01*
X100294827Y-109781862D01*
X101190538Y-109337227D01*
X101190538Y-109337227D01*
G37*
G36*
X104203435Y-116440956D02*
X103650044Y-115608035D01*
X104482965Y-115054644D01*
X105036356Y-115887565D01*
X104203435Y-116440956D01*
X104203435Y-116440956D01*
G37*
G36*
X105010956Y-124625035D02*
X104457565Y-125457956D01*
X103624644Y-124904565D01*
X104178035Y-124071644D01*
X105010956Y-124625035D01*
X105010956Y-124625035D01*
G37*
G36*
X100345627Y-130857738D02*
X100790262Y-129962027D01*
X101685973Y-130406662D01*
X101241338Y-131302373D01*
X100345627Y-130857738D01*
X100345627Y-130857738D01*
G37*
G36*
X93685618Y-135633009D02*
X92687591Y-135570218D01*
X92750382Y-134572191D01*
X93748409Y-134634982D01*
X93685618Y-135633009D01*
X93685618Y-135633009D01*
G37*
G36*
X85956591Y-134685782D02*
X86954618Y-134622991D01*
X87017409Y-135621018D01*
X86019382Y-135683809D01*
X85956591Y-134685782D01*
X85956591Y-134685782D01*
G37*
G36*
X78489062Y-131302373D02*
X78044427Y-130406662D01*
X78940138Y-129962027D01*
X79384773Y-130857738D01*
X78489062Y-131302373D01*
X78489062Y-131302373D01*
G37*
G36*
X75450765Y-124147844D02*
X76004156Y-124980765D01*
X75171235Y-125534156D01*
X74617844Y-124701235D01*
X75450765Y-124147844D01*
X75450765Y-124147844D01*
G37*
G36*
X150050155Y-111472641D02*
X150541059Y-112343855D01*
X149669845Y-112834759D01*
X149178941Y-111963545D01*
X150050155Y-111472641D01*
X150050155Y-111472641D01*
G37*
G36*
X149115441Y-122821355D02*
X149606345Y-121950141D01*
X150477559Y-122441045D01*
X149986655Y-123312259D01*
X149115441Y-122821355D01*
X149115441Y-122821355D01*
G37*
D11*
X151892000Y-116027200D03*
X151955500Y-118630700D03*
D10*
G36*
X105413962Y-140338476D02*
X103855116Y-141238476D01*
X103155116Y-140026040D01*
X104713962Y-139126040D01*
X105413962Y-140338476D01*
X105413962Y-140338476D01*
G37*
G36*
X107063962Y-143196360D02*
X105505116Y-144096360D01*
X104805116Y-142883924D01*
X106363962Y-141983924D01*
X107063962Y-143196360D01*
X107063962Y-143196360D01*
G37*
G36*
X111220884Y-140796360D02*
X109662038Y-141696360D01*
X108962038Y-140483924D01*
X110520884Y-139583924D01*
X111220884Y-140796360D01*
X111220884Y-140796360D01*
G37*
G36*
X109570884Y-137938476D02*
X108012038Y-138838476D01*
X107312038Y-137626040D01*
X108870884Y-136726040D01*
X109570884Y-137938476D01*
X109570884Y-137938476D01*
G37*
G36*
X130686962Y-125669976D02*
X129128116Y-126569976D01*
X128428116Y-125357540D01*
X129986962Y-124457540D01*
X130686962Y-125669976D01*
X130686962Y-125669976D01*
G37*
G36*
X132336962Y-128527860D02*
X130778116Y-129427860D01*
X130078116Y-128215424D01*
X131636962Y-127315424D01*
X132336962Y-128527860D01*
X132336962Y-128527860D01*
G37*
G36*
X136493884Y-126127860D02*
X134935038Y-127027860D01*
X134235038Y-125815424D01*
X135793884Y-124915424D01*
X136493884Y-126127860D01*
X136493884Y-126127860D01*
G37*
G36*
X134843884Y-123269976D02*
X133285038Y-124169976D01*
X132585038Y-122957540D01*
X134143884Y-122057540D01*
X134843884Y-123269976D01*
X134843884Y-123269976D01*
G37*
D16*
X93190271Y-132161707D03*
X93179900Y-132143500D03*
X150495000Y-145503900D03*
X108531565Y-168715871D03*
X128651000Y-158330900D03*
X130606800Y-143370300D03*
X150726235Y-132985329D03*
X108762800Y-156197300D03*
X109778800Y-174282100D03*
X151742235Y-151070129D03*
X131622800Y-161455100D03*
X129667000Y-176415700D03*
X109547565Y-186800671D03*
X151511000Y-163588700D03*
X147650200Y-128638300D03*
X105686765Y-151850271D03*
X125806200Y-141465300D03*
X45173900Y-167881300D03*
X63779400Y-178739800D03*
X85750400Y-191058800D03*
X81229200Y-179247800D03*
X59258200Y-166928800D03*
X40652700Y-156070300D03*
X35979100Y-144081500D03*
X54584600Y-154940000D03*
X76555600Y-167259000D03*
X72059800Y-155092400D03*
X50088800Y-142773400D03*
X31483300Y-131914900D03*
X26504900Y-119748300D03*
X45110400Y-130606800D03*
X67081400Y-142925800D03*
X153682700Y-52057300D03*
X106946700Y-51485800D03*
X66433700Y-51803300D03*
X73990200Y-51739800D03*
X135585200Y-51739800D03*
X76276200Y-51739800D03*
X21285200Y-51739800D03*
X46685200Y-51739800D03*
X131089400Y-67462400D03*
X156489400Y-67462400D03*
X101498400Y-67462400D03*
X42189400Y-67462400D03*
X103784400Y-67462400D03*
X111340900Y-67398900D03*
X70827900Y-67716400D03*
X24091900Y-67144900D03*
X154216100Y-76898500D03*
X107480100Y-76327000D03*
X66967100Y-76644500D03*
X74523600Y-76581000D03*
X136118600Y-76581000D03*
X76809600Y-76581000D03*
X21818600Y-76581000D03*
X47218600Y-76581000D03*
X131622800Y-92303600D03*
X157022800Y-92303600D03*
X102031800Y-92303600D03*
X42722800Y-92303600D03*
X104317800Y-92303600D03*
X111874300Y-92240100D03*
X71361300Y-92557600D03*
X24625300Y-91986100D03*
X23939500Y-41770300D03*
X70675500Y-42341800D03*
X111188500Y-42024300D03*
X103632000Y-42087800D03*
X42037000Y-42087800D03*
X101346000Y-42087800D03*
X156337000Y-42087800D03*
X130937000Y-42087800D03*
X62509400Y-130759200D03*
X40538400Y-118440200D03*
X21932900Y-107581700D03*
X46532800Y-26365200D03*
X21132800Y-26365200D03*
X76123800Y-26365200D03*
X135432800Y-26365200D03*
X73837800Y-26365200D03*
X66281300Y-26428700D03*
X106794300Y-26111200D03*
X153530300Y-26682700D03*
X79209900Y-112839500D03*
X99212400Y-112077500D03*
X77876400Y-117602000D03*
X86575900Y-108458000D03*
X98132900Y-111252000D03*
X81178400Y-129159000D03*
X100672900Y-112776000D03*
X127762000Y-126504700D03*
X147881435Y-116119729D03*
X105918000Y-139331700D03*
X119062500Y-160108900D03*
X142938500Y-146265900D03*
X108435473Y-166319005D03*
X150822327Y-135382195D03*
X116319300Y-155435300D03*
X140195300Y-141592300D03*
X141211300Y-159677100D03*
X117335300Y-173520100D03*
X151838327Y-153466995D03*
X109451473Y-184403805D03*
X143954500Y-164350700D03*
X120078500Y-178193700D03*
X116217700Y-143243300D03*
X140093700Y-129400300D03*
X105590673Y-149453405D03*
X45554900Y-164960300D03*
X57492900Y-171627800D03*
X82575400Y-186169300D03*
X78054200Y-174358300D03*
X52971700Y-159816800D03*
X41033700Y-153149300D03*
X36360100Y-141160500D03*
X48298100Y-147828000D03*
X73380600Y-162369500D03*
X68884800Y-150202900D03*
X43802300Y-135661400D03*
X31864300Y-128993900D03*
X26885900Y-116827300D03*
X38823900Y-123494800D03*
X63906400Y-138036300D03*
X153619200Y-54851300D03*
X115709700Y-54470300D03*
X87515700Y-54343300D03*
X58559700Y-54406800D03*
X74498200Y-54279800D03*
X71386580Y-54518174D03*
X145491200Y-54279800D03*
X27635200Y-54279800D03*
X150139400Y-64922400D03*
X32283400Y-64922400D03*
X106388020Y-64684026D03*
X103276400Y-64922400D03*
X119214900Y-64795400D03*
X90258900Y-64858900D03*
X62064900Y-64731900D03*
X24155400Y-64350900D03*
X154152600Y-79692500D03*
X116243100Y-79311500D03*
X88049100Y-79184500D03*
X59093100Y-79248000D03*
X75031600Y-79121000D03*
X71919980Y-79359374D03*
X146024600Y-79121000D03*
X28168600Y-79121000D03*
X150672800Y-89763600D03*
X32816800Y-89763600D03*
X106921420Y-89525226D03*
X103809800Y-89763600D03*
X119748300Y-89636600D03*
X90792300Y-89700100D03*
X62598300Y-89573100D03*
X24688800Y-89192100D03*
X24003000Y-38976300D03*
X61912500Y-39357300D03*
X90106500Y-39484300D03*
X119062500Y-39420800D03*
X103124000Y-39547800D03*
X106235620Y-39309426D03*
X32131000Y-39547800D03*
X149987000Y-39547800D03*
X59334400Y-125869700D03*
X34251900Y-111328200D03*
X22313900Y-104660700D03*
X27482800Y-28905200D03*
X145338800Y-28905200D03*
X71234180Y-29143574D03*
X74345800Y-28905200D03*
X58407300Y-29032200D03*
X87363300Y-28968700D03*
X115557300Y-29095700D03*
X153466800Y-29476700D03*
X80797400Y-121729500D03*
X84099400Y-113030000D03*
X93370400Y-111633000D03*
X95656400Y-127508000D03*
X99021900Y-120396000D03*
X98958400Y-121856500D03*
X98958400Y-118872000D03*
X86575900Y-128841500D03*
X147977527Y-118516595D03*
X113474500Y-138569700D03*
X137350500Y-124726700D03*
D17*
X77863700Y-59042300D02*
X83566000Y-56261000D01*
X83566000Y-56261000D02*
X151688800Y-56184800D01*
X151688800Y-56184800D02*
X155498800Y-57962800D01*
X26085800Y-63017400D02*
X22275800Y-61239400D01*
X94208600Y-62941200D02*
X26085800Y-63017400D01*
X99910900Y-60159900D02*
X94208600Y-62941200D01*
X78397100Y-83883500D02*
X84099400Y-81102200D01*
X84099400Y-81102200D02*
X152222200Y-81026000D01*
X152222200Y-81026000D02*
X156032200Y-82804000D01*
X26619200Y-87858600D02*
X22809200Y-86080600D01*
X94742000Y-87782400D02*
X26619200Y-87858600D01*
X100444300Y-85001100D02*
X94742000Y-87782400D01*
X99758500Y-34785300D02*
X94056200Y-37566600D01*
X94056200Y-37566600D02*
X25933400Y-37642800D01*
X25933400Y-37642800D02*
X22123400Y-35864800D01*
D18*
X101752400Y-121793000D02*
X102831900Y-121666000D01*
X93190271Y-132161707D02*
X93179900Y-132143500D01*
X95107695Y-132224015D02*
X93179900Y-132143500D01*
D17*
X151536400Y-30810200D02*
X155346400Y-32588200D01*
X83413600Y-30886400D02*
X151536400Y-30810200D01*
X77711300Y-33667700D02*
X83413600Y-30886400D01*
X100965000Y-110007400D02*
X104343200Y-115747800D01*
X86461600Y-105537000D02*
X93167200Y-105486200D01*
X86487000Y-135153400D02*
X93218000Y-135102600D01*
X75311000Y-124841000D02*
X78714600Y-130632200D01*
D18*
X150495000Y-145503900D02*
X152128461Y-144653342D01*
X108439036Y-168808400D02*
X108531565Y-168715871D01*
D19*
X127660058Y-159321842D02*
X128651000Y-158330900D01*
X126855461Y-159321842D02*
X127660058Y-159321842D01*
D18*
X104521000Y-168808400D02*
X108439036Y-168808400D01*
X154736800Y-132892800D02*
X150818764Y-132892800D01*
D19*
X132402339Y-142379358D02*
X131597742Y-142379358D01*
X131597742Y-142379358D02*
X130606800Y-143370300D01*
D18*
X150818764Y-132892800D02*
X150726235Y-132985329D01*
X108762800Y-156197300D02*
X107129339Y-157047858D01*
X109778800Y-174282100D02*
X108145339Y-175132658D01*
X151834764Y-150977600D02*
X151742235Y-151070129D01*
D19*
X132613742Y-160464158D02*
X131622800Y-161455100D01*
X133418339Y-160464158D02*
X132613742Y-160464158D01*
D18*
X155752800Y-150977600D02*
X151834764Y-150977600D01*
X105537000Y-186893200D02*
X109455036Y-186893200D01*
D19*
X127871461Y-177406642D02*
X128676058Y-177406642D01*
X128676058Y-177406642D02*
X129667000Y-176415700D01*
D18*
X109455036Y-186893200D02*
X109547565Y-186800671D01*
X151511000Y-163588700D02*
X153144461Y-162738142D01*
X147650200Y-128638300D02*
X149283661Y-127787742D01*
X105594236Y-151942800D02*
X105686765Y-151850271D01*
D19*
X124815258Y-142456242D02*
X125806200Y-141465300D01*
X124010661Y-142456242D02*
X124815258Y-142456242D01*
D18*
X101676200Y-151942800D02*
X105594236Y-151942800D01*
X45173900Y-167881300D02*
X43713400Y-167500300D01*
X43713400Y-167500300D02*
X41374795Y-169722800D01*
D19*
X63779400Y-178739800D02*
X61794361Y-177812742D01*
X85750400Y-191058800D02*
X87194361Y-192544742D01*
X81229200Y-179247800D02*
X82673161Y-180733742D01*
X59258200Y-166928800D02*
X57273161Y-166001742D01*
D18*
X39192200Y-155689300D02*
X36853595Y-157911800D01*
X40652700Y-156070300D02*
X39192200Y-155689300D01*
X35979100Y-144081500D02*
X34518600Y-143700500D01*
X34518600Y-143700500D02*
X32179995Y-145923000D01*
D19*
X54584600Y-154940000D02*
X52599561Y-154012942D01*
X76555600Y-167259000D02*
X77999561Y-168744942D01*
X72059800Y-155092400D02*
X73503761Y-156578342D01*
X50088800Y-142773400D02*
X48103761Y-141846342D01*
D18*
X30022800Y-131533900D02*
X27684195Y-133756400D01*
X31483300Y-131914900D02*
X30022800Y-131533900D01*
X26504900Y-119748300D02*
X25044400Y-119367300D01*
X25044400Y-119367300D02*
X22705795Y-121589800D01*
D19*
X45110400Y-130606800D02*
X43125361Y-129679742D01*
X67081400Y-142925800D02*
X68525361Y-144411742D01*
X109055200Y-51486800D02*
X106946700Y-51485800D01*
D18*
X153682700Y-52057300D02*
X156984700Y-52057300D01*
X69291200Y-56894195D02*
X66433700Y-51803300D01*
X73990200Y-49834800D02*
X73990200Y-51739800D01*
X73990200Y-51739800D02*
X73990200Y-49834800D01*
D19*
X138265200Y-51359800D02*
X135585200Y-51739800D01*
D20*
X79845200Y-51423300D02*
X76276200Y-51739800D01*
D18*
X21285200Y-51739800D02*
X21425200Y-51599800D01*
D17*
X21425200Y-51599800D02*
X21425200Y-51359800D01*
D19*
X50444700Y-51423300D02*
X47065200Y-51359800D01*
X47065200Y-51359800D02*
X46685200Y-51739800D01*
D17*
X137885200Y-51739800D02*
X138265200Y-51359800D01*
X39889400Y-67462400D02*
X39509400Y-67842400D01*
D19*
X130709400Y-67842400D02*
X131089400Y-67462400D01*
X127329900Y-67778900D02*
X130709400Y-67842400D01*
D17*
X156349400Y-67602400D02*
X156349400Y-67842400D01*
D18*
X156489400Y-67462400D02*
X156349400Y-67602400D01*
D20*
X97929400Y-67778900D02*
X101498400Y-67462400D01*
D19*
X39509400Y-67842400D02*
X42189400Y-67462400D01*
D18*
X103784400Y-67462400D02*
X103784400Y-69367400D01*
X103784400Y-69367400D02*
X103784400Y-67462400D01*
X108483400Y-62308005D02*
X111340900Y-67398900D01*
X24091900Y-67144900D02*
X20789900Y-67144900D01*
D19*
X68719400Y-67715400D02*
X70827900Y-67716400D01*
X109588600Y-76328000D02*
X107480100Y-76327000D01*
D18*
X154216100Y-76898500D02*
X157518100Y-76898500D01*
X69824600Y-81735395D02*
X66967100Y-76644500D01*
X74523600Y-74676000D02*
X74523600Y-76581000D01*
X74523600Y-76581000D02*
X74523600Y-74676000D01*
D19*
X138798600Y-76201000D02*
X136118600Y-76581000D01*
D20*
X80378600Y-76264500D02*
X76809600Y-76581000D01*
D18*
X21818600Y-76581000D02*
X21958600Y-76441000D01*
D17*
X21958600Y-76441000D02*
X21958600Y-76201000D01*
D19*
X50978100Y-76264500D02*
X47598600Y-76201000D01*
X47598600Y-76201000D02*
X47218600Y-76581000D01*
D17*
X138418600Y-76581000D02*
X138798600Y-76201000D01*
X40422800Y-92303600D02*
X40042800Y-92683600D01*
D19*
X131242800Y-92683600D02*
X131622800Y-92303600D01*
X127863300Y-92620100D02*
X131242800Y-92683600D01*
D17*
X156882800Y-92443600D02*
X156882800Y-92683600D01*
D18*
X157022800Y-92303600D02*
X156882800Y-92443600D01*
D20*
X98462800Y-92620100D02*
X102031800Y-92303600D01*
D19*
X40042800Y-92683600D02*
X42722800Y-92303600D01*
D18*
X104317800Y-92303600D02*
X104317800Y-94208600D01*
X104317800Y-94208600D02*
X104317800Y-92303600D01*
X109016800Y-87149205D02*
X111874300Y-92240100D01*
X24625300Y-91986100D02*
X21323300Y-91986100D01*
D19*
X69252800Y-92556600D02*
X71361300Y-92557600D01*
X68567000Y-42340800D02*
X70675500Y-42341800D01*
D18*
X23939500Y-41770300D02*
X20637500Y-41770300D01*
X108331000Y-36933405D02*
X111188500Y-42024300D01*
X103632000Y-43992800D02*
X103632000Y-42087800D01*
X103632000Y-42087800D02*
X103632000Y-43992800D01*
D19*
X39357000Y-42467800D02*
X42037000Y-42087800D01*
D20*
X97777000Y-42404300D02*
X101346000Y-42087800D01*
D18*
X156337000Y-42087800D02*
X156197000Y-42227800D01*
D17*
X156197000Y-42227800D02*
X156197000Y-42467800D01*
D19*
X127177500Y-42404300D02*
X130557000Y-42467800D01*
X130557000Y-42467800D02*
X130937000Y-42087800D01*
D17*
X39737000Y-42087800D02*
X39357000Y-42467800D01*
D19*
X62509400Y-130759200D02*
X63953361Y-132245142D01*
X40538400Y-118440200D02*
X38553361Y-117513142D01*
D18*
X20472400Y-107200700D02*
X18133795Y-109423200D01*
X21932900Y-107581700D02*
X20472400Y-107200700D01*
D17*
X137732800Y-26365200D02*
X138112800Y-25985200D01*
D19*
X46912800Y-25985200D02*
X46532800Y-26365200D01*
X50292300Y-26048700D02*
X46912800Y-25985200D01*
D17*
X21272800Y-26225200D02*
X21272800Y-25985200D01*
D18*
X21132800Y-26365200D02*
X21272800Y-26225200D01*
D20*
X79692800Y-26048700D02*
X76123800Y-26365200D01*
D19*
X138112800Y-25985200D02*
X135432800Y-26365200D01*
D18*
X73837800Y-26365200D02*
X73837800Y-24460200D01*
X73837800Y-24460200D02*
X73837800Y-26365200D01*
X69138800Y-31519595D02*
X66281300Y-26428700D01*
X153530300Y-26682700D02*
X156832300Y-26682700D01*
D19*
X108902800Y-26112200D02*
X106794300Y-26111200D01*
D17*
X87287400Y-118238000D02*
X86257400Y-118238000D01*
D19*
X84162900Y-118237000D02*
X87287400Y-118238000D01*
X84162900Y-118237000D02*
X79209900Y-112839500D01*
D18*
X95275400Y-117856000D02*
X99212400Y-112077500D01*
X76796900Y-118935500D02*
X77876400Y-117602000D01*
X84509870Y-108348015D02*
X86575900Y-108458000D01*
X97538605Y-109774485D02*
X98132900Y-111252000D01*
X82101430Y-130919985D02*
X81178400Y-129159000D01*
X99212400Y-112077500D02*
X100672900Y-112776000D01*
X151892000Y-116027200D02*
X147973964Y-116027200D01*
D19*
X129557539Y-125513758D02*
X128752942Y-125513758D01*
X128752942Y-125513758D02*
X127762000Y-126504700D01*
D18*
X147973964Y-116027200D02*
X147881435Y-116119729D01*
X105918000Y-139331700D02*
X104284539Y-140182258D01*
D19*
X119062500Y-160108900D02*
X120413539Y-158863958D01*
D18*
X146321539Y-144195458D02*
X142938500Y-146265900D01*
X108435473Y-166319005D02*
X104457500Y-166204900D01*
X150822327Y-135382195D02*
X154800300Y-135496300D01*
X112936261Y-157505742D02*
X116319300Y-155435300D01*
D19*
X140195300Y-141592300D02*
X138844261Y-142837242D01*
X141211300Y-159677100D02*
X139860261Y-160922042D01*
D18*
X113952261Y-175590542D02*
X117335300Y-173520100D01*
X151838327Y-153466995D02*
X155816300Y-153581100D01*
X109451473Y-184403805D02*
X105473500Y-184289700D01*
X147337539Y-162280258D02*
X143954500Y-164350700D01*
D19*
X120078500Y-178193700D02*
X121429539Y-176948758D01*
X116217700Y-143243300D02*
X117568739Y-141998358D01*
D18*
X143476739Y-127329858D02*
X140093700Y-129400300D01*
X105590673Y-149453405D02*
X101612700Y-149339300D01*
X45554900Y-164960300D02*
X43709234Y-164581214D01*
X43709234Y-164581214D02*
X41681400Y-164515800D01*
D19*
X59287439Y-172554858D02*
X57492900Y-171627800D01*
D18*
X82575400Y-186169300D02*
X84687439Y-187286858D01*
X78054200Y-174358300D02*
X80166239Y-175475858D01*
D19*
X54766239Y-160743858D02*
X52971700Y-159816800D01*
D18*
X39188034Y-152770214D02*
X37160200Y-152704800D01*
X41033700Y-153149300D02*
X39188034Y-152770214D01*
X36360100Y-141160500D02*
X34514434Y-140781414D01*
X34514434Y-140781414D02*
X32486600Y-140716000D01*
D19*
X50092639Y-148755058D02*
X48298100Y-147828000D01*
D18*
X73380600Y-162369500D02*
X75492639Y-163487058D01*
X68884800Y-150202900D02*
X70996839Y-151320458D01*
D19*
X45596839Y-136588458D02*
X43802300Y-135661400D01*
D18*
X30018634Y-128614814D02*
X27990800Y-128549400D01*
X31864300Y-128993900D02*
X30018634Y-128614814D01*
X26885900Y-116827300D02*
X25040234Y-116448214D01*
X25040234Y-116448214D02*
X23012400Y-116382800D01*
D19*
X40618439Y-124421858D02*
X38823900Y-123494800D01*
D18*
X63906400Y-138036300D02*
X66018439Y-139153858D01*
X153619200Y-54851300D02*
X156984700Y-54851300D01*
D19*
X113855200Y-54786800D02*
X115709700Y-54470300D01*
X84645200Y-54723300D02*
X87515700Y-54343300D01*
X55244700Y-54723300D02*
X58559700Y-54406800D01*
D18*
X74498200Y-57200800D02*
X74498200Y-54279800D01*
X71386700Y-49898300D02*
X71386580Y-54518174D01*
D19*
X143065200Y-54659800D02*
X145491200Y-54279800D01*
D18*
X26225200Y-54659800D02*
X27635200Y-54279800D01*
X151549400Y-64542400D02*
X150139400Y-64922400D01*
D19*
X34709400Y-64542400D02*
X32283400Y-64922400D01*
D18*
X106387900Y-69303900D02*
X106388020Y-64684026D01*
X103276400Y-62001400D02*
X103276400Y-64922400D01*
D19*
X122529900Y-64478900D02*
X119214900Y-64795400D01*
X93129400Y-64478900D02*
X90258900Y-64858900D01*
X63919400Y-64415400D02*
X62064900Y-64731900D01*
D18*
X24155400Y-64350900D02*
X20789900Y-64350900D01*
X154152600Y-79692500D02*
X157518100Y-79692500D01*
D19*
X114388600Y-79628000D02*
X116243100Y-79311500D01*
X85178600Y-79564500D02*
X88049100Y-79184500D01*
X55778100Y-79564500D02*
X59093100Y-79248000D01*
D18*
X75031600Y-82042000D02*
X75031600Y-79121000D01*
X71920100Y-74739500D02*
X71919980Y-79359374D01*
D19*
X143598600Y-79501000D02*
X146024600Y-79121000D01*
D18*
X26758600Y-79501000D02*
X28168600Y-79121000D01*
X152082800Y-89383600D02*
X150672800Y-89763600D01*
D19*
X35242800Y-89383600D02*
X32816800Y-89763600D01*
D18*
X106921300Y-94145100D02*
X106921420Y-89525226D01*
X103809800Y-86842600D02*
X103809800Y-89763600D01*
D19*
X123063300Y-89320100D02*
X119748300Y-89636600D01*
X93662800Y-89320100D02*
X90792300Y-89700100D01*
X64452800Y-89256600D02*
X62598300Y-89573100D01*
D18*
X24688800Y-89192100D02*
X21323300Y-89192100D01*
X24003000Y-38976300D02*
X20637500Y-38976300D01*
D19*
X63767000Y-39040800D02*
X61912500Y-39357300D01*
X92977000Y-39104300D02*
X90106500Y-39484300D01*
X122377500Y-39104300D02*
X119062500Y-39420800D01*
D18*
X103124000Y-36626800D02*
X103124000Y-39547800D01*
X106235500Y-43929300D02*
X106235620Y-39309426D01*
D19*
X34557000Y-39167800D02*
X32131000Y-39547800D01*
D18*
X151397000Y-39167800D02*
X149987000Y-39547800D01*
X59334400Y-125869700D02*
X61446439Y-126987258D01*
D19*
X36046439Y-112255258D02*
X34251900Y-111328200D01*
D18*
X20468234Y-104281614D02*
X18440400Y-104216200D01*
X22313900Y-104660700D02*
X20468234Y-104281614D01*
X26072800Y-29285200D02*
X27482800Y-28905200D01*
D19*
X142912800Y-29285200D02*
X145338800Y-28905200D01*
D18*
X71234300Y-24523700D02*
X71234180Y-29143574D01*
X74345800Y-31826200D02*
X74345800Y-28905200D01*
D19*
X55092300Y-29348700D02*
X58407300Y-29032200D01*
X84492800Y-29348700D02*
X87363300Y-28968700D01*
X113702800Y-29412200D02*
X115557300Y-29095700D01*
D18*
X153466800Y-29476700D02*
X156832300Y-29476700D01*
D19*
X93243400Y-120396000D02*
X92087400Y-121538000D01*
X95275400Y-120396000D02*
X93243400Y-120396000D01*
D18*
X76796900Y-121729500D02*
X80797400Y-121729500D01*
X82090195Y-109745015D02*
X84099400Y-113030000D01*
X95118930Y-108377485D02*
X93370400Y-111633000D01*
X97527370Y-130827015D02*
X95656400Y-127508000D01*
X95275400Y-120396000D02*
X99021900Y-120396000D01*
X99021900Y-120396000D02*
X98958400Y-121856500D01*
X102831900Y-118872000D02*
X98958400Y-118872000D01*
X84521105Y-132316985D02*
X86575900Y-128841500D01*
X147977527Y-118516595D02*
X151955500Y-118630700D01*
X110091461Y-140640142D02*
X113474500Y-138569700D01*
D19*
X137350500Y-124726700D02*
X135999461Y-125971642D01*
D17*
X124570461Y-156463958D02*
X147971539Y-147053342D01*
X134687339Y-145237242D02*
X111286261Y-154647858D01*
X135703339Y-163322042D02*
X112302261Y-172732658D01*
X125586461Y-174548758D02*
X148987539Y-165138142D01*
X121725661Y-139598358D02*
X145126739Y-130187742D01*
X131842539Y-128371642D02*
X108441461Y-137782258D01*
X121221500Y-163410900D02*
X122698539Y-161721842D01*
X107950000Y-171157900D02*
X121221500Y-163410900D01*
X107950000Y-171157900D02*
X106553000Y-172681900D01*
X151307800Y-130543300D02*
X152704800Y-129019300D01*
X151307800Y-130543300D02*
X138036300Y-138290300D01*
X138036300Y-138290300D02*
X136559261Y-139979358D01*
X139052300Y-156375100D02*
X137575261Y-158064158D01*
X152323800Y-148628100D02*
X139052300Y-156375100D01*
X152323800Y-148628100D02*
X153720800Y-147104100D01*
X108966000Y-189242700D02*
X107569000Y-190766700D01*
X108966000Y-189242700D02*
X122237500Y-181495700D01*
X122237500Y-181495700D02*
X123714539Y-179806642D01*
X118376700Y-146545300D02*
X119853739Y-144856242D01*
X105105200Y-154292300D02*
X118376700Y-146545300D01*
X105105200Y-154292300D02*
X103708200Y-155816300D01*
X77863700Y-47802800D02*
X80918614Y-47935622D01*
X79845200Y-54723300D02*
X82308700Y-53517800D01*
X82308700Y-53517800D02*
X82118200Y-48945800D01*
X82118200Y-48945800D02*
X80918614Y-47935622D01*
X80918614Y-47935622D02*
X80911700Y-47929800D01*
X96855986Y-71266578D02*
X96862900Y-71272400D01*
X95656400Y-70256400D02*
X96855986Y-71266578D01*
X95465900Y-65684400D02*
X95656400Y-70256400D01*
X97929400Y-64478900D02*
X95465900Y-65684400D01*
X99910900Y-71399400D02*
X96855986Y-71266578D01*
X78397100Y-72644000D02*
X81452014Y-72776822D01*
X80378600Y-79564500D02*
X82842100Y-78359000D01*
X82842100Y-78359000D02*
X82651600Y-73787000D01*
X82651600Y-73787000D02*
X81452014Y-72776822D01*
X81452014Y-72776822D02*
X81445100Y-72771000D01*
X97389386Y-96107778D02*
X97396300Y-96113600D01*
X96189800Y-95097600D02*
X97389386Y-96107778D01*
X95999300Y-90525600D02*
X96189800Y-95097600D01*
X98462800Y-89320100D02*
X95999300Y-90525600D01*
X100444300Y-96240600D02*
X97389386Y-96107778D01*
X99758500Y-46024800D02*
X96703586Y-45891978D01*
X97777000Y-39104300D02*
X95313500Y-40309800D01*
X95313500Y-40309800D02*
X95504000Y-44881800D01*
X95504000Y-44881800D02*
X96703586Y-45891978D01*
X96703586Y-45891978D02*
X96710500Y-45897800D01*
X80766214Y-22561022D02*
X80759300Y-22555200D01*
X81965800Y-23571200D02*
X80766214Y-22561022D01*
X82156300Y-28143200D02*
X81965800Y-23571200D01*
X79692800Y-29348700D02*
X82156300Y-28143200D01*
X77711300Y-22428200D02*
X80766214Y-22561022D01*
X148463000Y-113677700D02*
X149860000Y-112153700D01*
X148463000Y-113677700D02*
X135191500Y-121424700D01*
X135191500Y-121424700D02*
X133714461Y-123113758D01*
X84645200Y-51423300D02*
X109055200Y-54786800D01*
X93129400Y-67778900D02*
X68719400Y-64415400D01*
X85178600Y-76264500D02*
X109588600Y-79628000D01*
X93662800Y-92620100D02*
X69252800Y-89256600D01*
X92977000Y-42404300D02*
X68567000Y-39040800D01*
X84492800Y-26048700D02*
X108902800Y-29412200D01*
X113855200Y-51486800D02*
X138265200Y-54659800D01*
X63919400Y-67715400D02*
X39509400Y-64542400D01*
X114388600Y-76328000D02*
X138798600Y-79501000D01*
X64452800Y-92556600D02*
X40042800Y-89383600D01*
X63767000Y-42340800D02*
X39357000Y-39167800D01*
X113702800Y-26112200D02*
X138112800Y-29285200D01*
X155498800Y-48971200D02*
X152603200Y-50469800D01*
X152603200Y-50469800D02*
X145110200Y-50469800D01*
X145110200Y-50469800D02*
X143065200Y-51359800D01*
X32664400Y-68732400D02*
X34709400Y-67842400D01*
X25171400Y-68732400D02*
X32664400Y-68732400D01*
X22275800Y-70231000D02*
X25171400Y-68732400D01*
X156032200Y-73812400D02*
X153136600Y-75311000D01*
X153136600Y-75311000D02*
X145643600Y-75311000D01*
X145643600Y-75311000D02*
X143598600Y-76201000D01*
X33197800Y-93573600D02*
X35242800Y-92683600D01*
X25704800Y-93573600D02*
X33197800Y-93573600D01*
X22809200Y-95072200D02*
X25704800Y-93573600D01*
X22123400Y-44856400D02*
X25019000Y-43357800D01*
X25019000Y-43357800D02*
X32512000Y-43357800D01*
X32512000Y-43357800D02*
X34557000Y-42467800D01*
X144957800Y-25095200D02*
X142912800Y-25985200D01*
X152450800Y-25095200D02*
X144957800Y-25095200D01*
X155346400Y-23596600D02*
X152450800Y-25095200D01*
X83654900Y-121539000D02*
X77241400Y-114046000D01*
X87287400Y-121538000D02*
X83654900Y-121539000D01*
X77241400Y-114046000D02*
X75311000Y-115849400D01*
X44538900Y-170167300D02*
X43522900Y-171691300D01*
X44538900Y-170167300D02*
X46109575Y-169952041D01*
X57637439Y-175412742D02*
X46109575Y-169952041D01*
X46109575Y-169952041D02*
X46007195Y-169901836D01*
X41588375Y-158141041D02*
X41485995Y-158090836D01*
X53116239Y-163601742D02*
X41588375Y-158141041D01*
X40017700Y-158356300D02*
X41588375Y-158141041D01*
X40017700Y-158356300D02*
X39001700Y-159880300D01*
X35344100Y-146367500D02*
X34328100Y-147891500D01*
X35344100Y-146367500D02*
X36914775Y-146152241D01*
X48442639Y-151612942D02*
X36914775Y-146152241D01*
X36914775Y-146152241D02*
X36812395Y-146102036D01*
X32418975Y-133985641D02*
X32316595Y-133935436D01*
X43946839Y-139446342D02*
X32418975Y-133985641D01*
X30848300Y-134200900D02*
X32418975Y-133985641D01*
X30848300Y-134200900D02*
X29832300Y-135724900D01*
X25869900Y-122034300D02*
X24853900Y-123558300D01*
X25869900Y-122034300D02*
X27440575Y-121819041D01*
X38968439Y-127279742D02*
X27440575Y-121819041D01*
X27440575Y-121819041D02*
X27338195Y-121768836D01*
X67322700Y-59042300D02*
X61925200Y-56184800D01*
X22555200Y-56184800D02*
X21425200Y-54659800D01*
X61925200Y-56184800D02*
X22555200Y-56184800D01*
X115849400Y-63017400D02*
X155219400Y-63017400D01*
X155219400Y-63017400D02*
X156349400Y-64542400D01*
X110451900Y-60159900D02*
X115849400Y-63017400D01*
X67856100Y-83883500D02*
X62458600Y-81026000D01*
X23088600Y-81026000D02*
X21958600Y-79501000D01*
X62458600Y-81026000D02*
X23088600Y-81026000D01*
X116382800Y-87858600D02*
X155752800Y-87858600D01*
X155752800Y-87858600D02*
X156882800Y-89383600D01*
X110985300Y-85001100D02*
X116382800Y-87858600D01*
X110299500Y-34785300D02*
X115697000Y-37642800D01*
X155067000Y-37642800D02*
X156197000Y-39167800D01*
X115697000Y-37642800D02*
X155067000Y-37642800D01*
X22868575Y-109652441D02*
X22766195Y-109602236D01*
X34396439Y-115113142D02*
X22868575Y-109652441D01*
X21297900Y-109867700D02*
X22868575Y-109652441D01*
X21297900Y-109867700D02*
X20281900Y-111391700D01*
X61772800Y-30810200D02*
X22402800Y-30810200D01*
X22402800Y-30810200D02*
X21272800Y-29285200D01*
X67170300Y-33667700D02*
X61772800Y-30810200D01*
X26225200Y-51359800D02*
X50444700Y-54723300D01*
X151549400Y-67842400D02*
X127329900Y-64478900D01*
X26758600Y-76201000D02*
X50978100Y-79564500D01*
X152082800Y-92683600D02*
X127863300Y-89320100D01*
X151397000Y-42467800D02*
X127177500Y-39104300D01*
X26072800Y-25985200D02*
X50292300Y-29348700D01*
X63444361Y-174954858D02*
X83037439Y-190144742D01*
X58923161Y-163143858D02*
X78516239Y-178333742D01*
X54249561Y-151155058D02*
X73842639Y-166344942D01*
X49753761Y-138988458D02*
X69346839Y-154178342D01*
X44775361Y-126821858D02*
X64368439Y-142011742D01*
X40203361Y-114655258D02*
X59796439Y-129845142D01*
X104317800Y-124764800D02*
X95275400Y-122936000D01*
X84836000Y-116636800D02*
X78663800Y-110032800D01*
X90474800Y-116560600D02*
X84836000Y-116636800D01*
X92087400Y-118238000D02*
X90474800Y-116560600D01*
X43522900Y-161150300D02*
X44526200Y-162610800D01*
X44526200Y-162610800D02*
X89408000Y-188315600D01*
X89408000Y-188315600D02*
X88844361Y-189686858D01*
X84886800Y-176504600D02*
X84323161Y-177875858D01*
X40005000Y-150799800D02*
X84886800Y-176504600D01*
X39001700Y-149339300D02*
X40005000Y-150799800D01*
X34328100Y-137350500D02*
X35331400Y-138811000D01*
X35331400Y-138811000D02*
X80213200Y-164515800D01*
X80213200Y-164515800D02*
X79649561Y-165887058D01*
X75717400Y-152349200D02*
X75153761Y-153720458D01*
X30835600Y-126644400D02*
X75717400Y-152349200D01*
X29832300Y-125183900D02*
X30835600Y-126644400D01*
X24853900Y-113017300D02*
X25857200Y-114477800D01*
X25857200Y-114477800D02*
X70739000Y-140182600D01*
X70739000Y-140182600D02*
X70175361Y-141553858D01*
X66167000Y-128016000D02*
X65603361Y-129387258D01*
X21285200Y-102311200D02*
X66167000Y-128016000D01*
X20281900Y-100850700D02*
X21285200Y-102311200D01*
X97942400Y-125730000D02*
X89941400Y-125158500D01*
X101015800Y-130632200D02*
X97942400Y-125730000D01*
X108213845Y-164467304D02*
X147066000Y-142138400D01*
X108204804Y-164472500D02*
X108213845Y-164467304D01*
X147066000Y-142138400D02*
X150478461Y-141795458D01*
X108213844Y-164467304D02*
X108213845Y-164467304D01*
X106616500Y-162204400D02*
X108213844Y-164467304D01*
X152641300Y-139496800D02*
X151043956Y-137233896D01*
X151043956Y-137233896D02*
X151043955Y-137233896D01*
X112191800Y-159562800D02*
X108779339Y-159905742D01*
X151052996Y-137228700D02*
X151043955Y-137233896D01*
X151043955Y-137233896D02*
X112191800Y-159562800D01*
X152059955Y-155318696D02*
X113207800Y-177647600D01*
X152068996Y-155313500D02*
X152059955Y-155318696D01*
X113207800Y-177647600D02*
X109795339Y-177990542D01*
X152059956Y-155318696D02*
X152059955Y-155318696D01*
X153657300Y-157581600D02*
X152059956Y-155318696D01*
X107632500Y-180289200D02*
X109229844Y-182552104D01*
X109229844Y-182552104D02*
X109229845Y-182552104D01*
X148082000Y-160223200D02*
X151494461Y-159880258D01*
X109220804Y-182557300D02*
X109229845Y-182552104D01*
X109229845Y-182552104D02*
X148082000Y-160223200D01*
X105369045Y-147601704D02*
X144221200Y-125272800D01*
X105360004Y-147606900D02*
X105369045Y-147601704D01*
X144221200Y-125272800D02*
X147633661Y-124929858D01*
X105369044Y-147601704D02*
X105369045Y-147601704D01*
X103771700Y-145338800D02*
X105369044Y-147601704D01*
X65163700Y-47485300D02*
X67386200Y-47739300D01*
X54622700Y-51295300D02*
X62370162Y-51210551D01*
X62370162Y-51210551D02*
X65163700Y-47485300D01*
X55244700Y-51423300D02*
X54622700Y-51295300D01*
X122529900Y-67778900D02*
X123151900Y-67906900D01*
X115404438Y-67991649D02*
X112610900Y-71716900D01*
X123151900Y-67906900D02*
X115404438Y-67991649D01*
X112610900Y-71716900D02*
X110388400Y-71462900D01*
X65697100Y-72326500D02*
X67919600Y-72580500D01*
X55156100Y-76136500D02*
X62903562Y-76051751D01*
X62903562Y-76051751D02*
X65697100Y-72326500D01*
X55778100Y-76264500D02*
X55156100Y-76136500D01*
X123063300Y-92620100D02*
X123685300Y-92748100D01*
X115937838Y-92832849D02*
X113144300Y-96558100D01*
X123685300Y-92748100D02*
X115937838Y-92832849D01*
X113144300Y-96558100D02*
X110921800Y-96304100D01*
X112458500Y-46342300D02*
X110236000Y-46088300D01*
X122999500Y-42532300D02*
X115252038Y-42617049D01*
X115252038Y-42617049D02*
X112458500Y-46342300D01*
X122377500Y-42404300D02*
X122999500Y-42532300D01*
X55092300Y-26048700D02*
X54470300Y-25920700D01*
X62217762Y-25835951D02*
X65011300Y-22110700D01*
X54470300Y-25920700D02*
X62217762Y-25835951D01*
X65011300Y-22110700D02*
X67233800Y-22364700D01*
X149796500Y-122631200D02*
X148199156Y-120368296D01*
X148199156Y-120368296D02*
X148199155Y-120368296D01*
X109347000Y-142697200D02*
X105934539Y-143040142D01*
X148208196Y-120363100D02*
X148199155Y-120368296D01*
X148199155Y-120368296D02*
X109347000Y-142697200D01*
M02*
