M48
;DRILL file {KiCad 4.0.7} date 10/22/17 14:17:51
;FORMAT={-:-/ absolute / inch / decimal}
FMAT,2
INCH,TZ
T1C0.016
T2C0.039
%
G90
G05
M72
T1
X0.832Y-1.038
X0.838Y-2.037
X0.859Y-3.015
X0.8635Y-4.2355
X0.8785Y-4.1205
X0.9425Y-1.6445
X0.945Y-1.5345
X0.9485Y-2.6435
X0.951Y-2.5335
X0.9695Y-3.6215
X0.972Y-3.5115
X1.0435Y-4.7145
X1.0585Y-4.5995
X1.082Y-1.138
X1.088Y-2.137
X1.109Y-3.115
X1.2395Y-5.1935
X1.2545Y-5.0785
X1.265Y-1.557
X1.271Y-2.556
X1.292Y-3.534
X1.3485Y-4.383
X1.4165Y-5.6725
X1.4315Y-5.5575
X1.5285Y-4.862
X1.596Y-4.663
X1.6005Y-6.1445
X1.6155Y-6.0295
X1.655Y-1.657
X1.661Y-2.656
X1.682Y-3.634
X1.7245Y-5.341
X1.776Y-5.142
X1.7785Y-6.6095
X1.7935Y-6.4945
X1.832Y-1.038
X1.838Y-2.037
X1.859Y-3.015
X1.9015Y-5.82
X1.972Y-5.621
X2.0855Y-6.292
X2.149Y-6.1
X2.2635Y-6.757
X2.2995Y-1.143
X2.3055Y-2.142
X2.3265Y-3.12
X2.333Y-6.572
X2.336Y-4.9555
X2.4375Y-1.5495
X2.4435Y-2.5485
X2.461Y-5.148
X2.4645Y-3.5265
X2.511Y-7.037
X2.516Y-5.4345
X2.6095Y-1.0405
X2.6155Y-2.0395
X2.6365Y-3.0175
X2.641Y-5.627
X2.712Y-5.9135
X2.7825Y-1.667
X2.7885Y-2.666
X2.8045Y-1.1474
X2.8095Y-3.644
X2.8105Y-2.1464
X2.8315Y-3.1244
X2.837Y-6.106
X2.889Y-6.3925
X2.907Y-1.038
X2.913Y-2.037
X2.927Y-1.138
X2.933Y-2.137
X2.934Y-3.015
X2.954Y-3.115
X2.997Y-1.038
X3.003Y-2.037
X3.014Y-6.585
X3.024Y-3.015
X3.066Y-4.63
X3.073Y-6.8645
X3.1185Y-4.4425
X3.181Y-4.7925
X3.196Y-5.085
X3.198Y-7.057
X3.251Y-7.3295
X3.311Y-4.45
X3.376Y-7.522
X3.4085Y-4.27
X3.4085Y-5.0725
X3.4395Y-1.1405
X3.4455Y-2.1395
X3.4665Y-3.1175
X3.5475Y-1.5545
X3.5535Y-2.5535
X3.5745Y-3.5315
X3.6685Y-5.2025
X3.6689Y-5.2032
X3.676Y-4.395
X3.766Y-5.02
X3.8635Y-4.38
X3.896Y-4.68
X3.896Y-4.7975
X3.8985Y-4.74
X3.906Y-4.4125
X3.9635Y-4.44
X3.99Y-1.657
X3.996Y-2.656
X4.017Y-3.634
X4.06Y-1.557
X4.066Y-2.556
X4.08Y-1.657
X4.086Y-2.656
X4.087Y-3.534
X4.107Y-3.634
X4.1571Y-5.884
X4.1609Y-5.9784
X4.17Y-5.4855
X4.1825Y-1.5476
X4.1885Y-2.5466
X4.2045Y-1.028
X4.2095Y-3.5246
X4.2105Y-2.027
X4.2315Y-3.005
X4.2691Y-6.548
X4.2729Y-6.6424
X4.282Y-6.1495
X4.3091Y-7.26
X4.3129Y-7.3544
X4.322Y-6.8615
X4.3775Y-1.6545
X4.3835Y-2.6535
X4.4045Y-3.6315
X4.4675Y-5.4555
X4.5495Y-1.1455
X4.5555Y-2.1445
X4.5755Y-5.6395
X4.5765Y-3.1225
X4.5795Y-6.1195
X4.6195Y-6.8315
X4.6875Y-1.552
X4.6875Y-6.3035
X4.6935Y-2.551
X4.7145Y-3.529
X4.7275Y-7.0155
X4.953Y-5.5695
X5.03Y-4.9805
X5.065Y-6.2335
X5.105Y-6.9455
X5.142Y-5.6445
X5.155Y-1.657
X5.161Y-2.656
X5.182Y-3.634
X5.182Y-6.3565
X5.332Y-1.038
X5.338Y-2.037
X5.359Y-3.015
X5.4075Y-4.9105
X5.5155Y-5.0945
X5.5195Y-5.5745
X5.5595Y-6.2865
X5.6275Y-5.7585
X5.6675Y-6.4705
X5.722Y-1.138
X5.728Y-2.137
X5.749Y-3.115
X5.813Y-5.0645
X5.8221Y-4.5716
X5.8259Y-4.666
X5.905Y-1.557
X5.911Y-2.556
X5.925Y-5.7285
X5.932Y-3.534
X5.9341Y-5.2356
X5.9379Y-5.33
X5.965Y-6.4405
X5.9741Y-5.9476
X5.9779Y-6.042
X6.042Y-1.1605
X6.0445Y-1.0505
X6.048Y-2.1595
X6.0505Y-2.0495
X6.069Y-3.1375
X6.0715Y-3.0275
X6.155Y-1.657
X6.161Y-2.656
X6.182Y-3.634
T2
X3.541Y-4.9275
X3.751Y-4.64
X3.751Y-4.74
X3.751Y-4.84
T0
M30
