G04 #@! TF.FileFunction,Copper,L2,Bot,Signal*
%FSLAX46Y46*%
G04 Gerber Fmt 4.6, Leading zero omitted, Abs format (unit mm)*
G04 Created by KiCad (PCBNEW 4.0.7) date 10/29/17 08:22:04*
%MOMM*%
%LPD*%
G01*
G04 APERTURE LIST*
%ADD10C,0.100000*%
%ADD11R,1.700000X1.700000*%
%ADD12O,1.700000X1.700000*%
%ADD13C,2.000000*%
%ADD14C,0.600000*%
%ADD15C,2.000000*%
%ADD16C,0.250000*%
%ADD17C,1.000000*%
%ADD18C,0.500000*%
G04 APERTURE END LIST*
D10*
D11*
X141109700Y-112737900D03*
D12*
X141109700Y-110197900D03*
X141109700Y-107657900D03*
X141109700Y-105117900D03*
D11*
X153149300Y-112712500D03*
D12*
X153149300Y-110172500D03*
X153149300Y-107632500D03*
X153149300Y-105092500D03*
D11*
X165163500Y-111848900D03*
D12*
X167703500Y-111848900D03*
X170243500Y-111848900D03*
X172783500Y-111848900D03*
D11*
X165138100Y-39636700D03*
D12*
X167678100Y-39636700D03*
X170218100Y-39636700D03*
X172758100Y-39636700D03*
D11*
X165138100Y-51676300D03*
D12*
X167678100Y-51676300D03*
X170218100Y-51676300D03*
X172758100Y-51676300D03*
D11*
X165138100Y-75730100D03*
D12*
X167678100Y-75730100D03*
X170218100Y-75730100D03*
X172758100Y-75730100D03*
D11*
X165138100Y-63690500D03*
D12*
X167678100Y-63690500D03*
X170218100Y-63690500D03*
X172758100Y-63690500D03*
D11*
X165138100Y-87769700D03*
D12*
X167678100Y-87769700D03*
X170218100Y-87769700D03*
X172758100Y-87769700D03*
D11*
X162026600Y-142824200D03*
D12*
X162026600Y-145364200D03*
X162026600Y-147904200D03*
D11*
X156692600Y-150126700D03*
X165138100Y-99809300D03*
D12*
X167678100Y-99809300D03*
X170218100Y-99809300D03*
X172758100Y-99809300D03*
D13*
X156870400Y-43129200D03*
X156819600Y-41071800D03*
X156819600Y-38887400D03*
X161518600Y-38836600D03*
X161518600Y-41021000D03*
X161569400Y-43078400D03*
X156921200Y-70713600D03*
X156870400Y-68656200D03*
X156870400Y-66471800D03*
X161569400Y-66421000D03*
X161569400Y-68605400D03*
X161620200Y-70662800D03*
X161620200Y-98348800D03*
X161569400Y-96291400D03*
X161569400Y-94107000D03*
X156870400Y-94157800D03*
X156870400Y-96342200D03*
X156921200Y-98399600D03*
X170205400Y-128955800D03*
X168249600Y-127787400D03*
X166344600Y-126644400D03*
X164439600Y-125679200D03*
X171450000Y-131165600D03*
X173888400Y-132715000D03*
X158165800Y-123342400D03*
X160299400Y-124637800D03*
X162204400Y-125806200D03*
X154838400Y-123520200D03*
X152628600Y-124764800D03*
X149910800Y-116255800D03*
X152044400Y-116230400D03*
X151053800Y-125933200D03*
X145973800Y-116154200D03*
X144246600Y-116154200D03*
X142062200Y-116154200D03*
X140004800Y-116205000D03*
X147726400Y-116205000D03*
X161950400Y-116205000D03*
X154228800Y-116205000D03*
X156286200Y-116154200D03*
X158470600Y-116154200D03*
X160197800Y-116154200D03*
X149580600Y-106349800D03*
X149580600Y-108077000D03*
X149580600Y-110261400D03*
X149631400Y-112318800D03*
X149631400Y-104597200D03*
X137591800Y-112318800D03*
X137541000Y-110261400D03*
X137541000Y-108077000D03*
X161671000Y-104571800D03*
X161671000Y-112293400D03*
X161620200Y-110236000D03*
X161620200Y-108051600D03*
X161620200Y-106324400D03*
X171551600Y-120319800D03*
X169824400Y-120319800D03*
X167640000Y-120319800D03*
X165582600Y-120370600D03*
X173304200Y-120370600D03*
X171526200Y-48107600D03*
X169799000Y-48107600D03*
X167614600Y-48107600D03*
X165557200Y-48158400D03*
X173278800Y-48158400D03*
X173278800Y-60198000D03*
X165557200Y-60198000D03*
X167614600Y-60147200D03*
X169799000Y-60147200D03*
X171526200Y-60147200D03*
X171526200Y-84201000D03*
X169799000Y-84201000D03*
X167614600Y-84201000D03*
X165557200Y-84251800D03*
X173278800Y-84251800D03*
X173278800Y-72212200D03*
X165557200Y-72212200D03*
X167614600Y-72161400D03*
X169799000Y-72161400D03*
X171526200Y-72161400D03*
X171526200Y-96240600D03*
X169799000Y-96240600D03*
X167614600Y-96240600D03*
X165557200Y-96291400D03*
X173278800Y-96291400D03*
X136601200Y-154533600D03*
X136652000Y-156591000D03*
X136652000Y-158775400D03*
X137033000Y-131191000D03*
X137083800Y-133248400D03*
X137083800Y-135432800D03*
X108051600Y-105384600D03*
X110109000Y-105333800D03*
X76682600Y-164236400D03*
X76733400Y-166293800D03*
X76733400Y-168478200D03*
X76885800Y-145135600D03*
X76885800Y-142951200D03*
X76835000Y-140893800D03*
X77063600Y-117475000D03*
X77114400Y-119532400D03*
X77114400Y-121716800D03*
X47701200Y-138099800D03*
X45974000Y-138099800D03*
X43789600Y-138099800D03*
X41732200Y-138150600D03*
X49453800Y-138150600D03*
X50317400Y-114833400D03*
X42595800Y-114833400D03*
X44653200Y-114782600D03*
X46837600Y-114782600D03*
X48564800Y-114782600D03*
X49961800Y-161391600D03*
X42240200Y-161391600D03*
X44297600Y-161340800D03*
X46482000Y-161340800D03*
X48209200Y-161340800D03*
X47828200Y-147650200D03*
X46101000Y-147650200D03*
X43916600Y-147650200D03*
X41859200Y-147701000D03*
X49580800Y-147701000D03*
X47853600Y-151790400D03*
X46126400Y-151790400D03*
X43942000Y-151790400D03*
X41884600Y-151841200D03*
X49606200Y-151841200D03*
X49555400Y-128600200D03*
X41833800Y-128600200D03*
X43891200Y-128549400D03*
X46075600Y-128549400D03*
X47802800Y-128549400D03*
X49530000Y-124460000D03*
X41808400Y-124460000D03*
X43865800Y-124409200D03*
X46050200Y-124409200D03*
X47777400Y-124409200D03*
X97180400Y-105384600D03*
X95123000Y-105435400D03*
X173278800Y-108331000D03*
X165557200Y-108331000D03*
X167614600Y-108280200D03*
X169799000Y-108280200D03*
X171526200Y-108280200D03*
X50114200Y-105283000D03*
X42392600Y-105283000D03*
X44450000Y-105232200D03*
X46634400Y-105232200D03*
X48361600Y-105232200D03*
X50088800Y-101142800D03*
X42367200Y-101142800D03*
X44424600Y-101092000D03*
X46609000Y-101092000D03*
X48336200Y-101092000D03*
X111683800Y-151815800D03*
X106019600Y-151765000D03*
X108204000Y-151765000D03*
X109931200Y-151765000D03*
X111658400Y-147675600D03*
X108178600Y-147624800D03*
X109905800Y-147624800D03*
X112255300Y-138214100D03*
X110502700Y-138163300D03*
X111658400Y-128600200D03*
X105994200Y-128549400D03*
X108178600Y-128549400D03*
X109905800Y-128549400D03*
X111633000Y-124460000D03*
X108153200Y-124409200D03*
X109880400Y-124409200D03*
X109994700Y-161455100D03*
X108267500Y-161455100D03*
X106083100Y-161455100D03*
X104025700Y-161505900D03*
X111747300Y-161505900D03*
X112280700Y-114947700D03*
X108800900Y-114896900D03*
X110528100Y-114896900D03*
X107975400Y-49987200D03*
X110083600Y-49987200D03*
X115443000Y-49936400D03*
X112598200Y-49987200D03*
X58343800Y-73380600D03*
X60477400Y-73329800D03*
X62661800Y-73329800D03*
X64998600Y-73482200D03*
X112598200Y-59588400D03*
X115443000Y-59537600D03*
X110083600Y-59588400D03*
X107975400Y-59588400D03*
X64770000Y-63881000D03*
X62433200Y-63728600D03*
X60248800Y-63728600D03*
X58115200Y-63779400D03*
X58242200Y-91465400D03*
X60375800Y-91414600D03*
X62560200Y-91414600D03*
X64897000Y-91567000D03*
X108102400Y-87274400D03*
X110210600Y-87274400D03*
X115570000Y-87223600D03*
X112725200Y-87274400D03*
X112725200Y-77673200D03*
X115570000Y-77622400D03*
X110210600Y-77673200D03*
X108102400Y-77673200D03*
X58394600Y-45745400D03*
X60528200Y-45694600D03*
X62712600Y-45694600D03*
X65049400Y-45847000D03*
X112649000Y-31953200D03*
X115493800Y-31902400D03*
X110134400Y-31953200D03*
X108026200Y-31953200D03*
X64820800Y-36245800D03*
X62484000Y-36093400D03*
X60299600Y-36093400D03*
X58166000Y-36144200D03*
D14*
X159941471Y-157129907D03*
X159931100Y-157111700D03*
D13*
X103936800Y-147675600D03*
X103911400Y-124460000D03*
X103962200Y-151815800D03*
X104533700Y-138214100D03*
X103936800Y-128600200D03*
X104559100Y-114947700D03*
X105994200Y-147624800D03*
X105968800Y-124409200D03*
X106591100Y-138163300D03*
X108775500Y-138163300D03*
X106616500Y-114896900D03*
D14*
X46897089Y-108469196D03*
X68439174Y-108570182D03*
X46541489Y-155027396D03*
X68083574Y-155128382D03*
X67575574Y-131887382D03*
X46033489Y-131786396D03*
X20846545Y-132103329D03*
X71711055Y-144299471D03*
X46524111Y-144616404D03*
X24982026Y-144515418D03*
X25845626Y-121198218D03*
X47387711Y-121299204D03*
X72574655Y-120982271D03*
X21710145Y-108786129D03*
X25490026Y-167756418D03*
X47032111Y-167857404D03*
X72219055Y-167540471D03*
X21354545Y-155344329D03*
X81561066Y-141011890D03*
X129508452Y-141891451D03*
X106892025Y-140825382D03*
X107293475Y-135539318D03*
X84677048Y-134473249D03*
X132624434Y-135352810D03*
X132116434Y-158644610D03*
X84169048Y-157765049D03*
X106785475Y-158831118D03*
X106384025Y-164117182D03*
X129000452Y-165183251D03*
X81053066Y-164303690D03*
X81586466Y-117745490D03*
X129533852Y-118625051D03*
X106917425Y-117558982D03*
X21590000Y-70027800D03*
X68326000Y-70599300D03*
X108839000Y-70281800D03*
X101282500Y-70345300D03*
X39687500Y-70345300D03*
X98996500Y-70345300D03*
X153987500Y-70345300D03*
X128587500Y-70345300D03*
X151599900Y-53378100D03*
X104863900Y-52806600D03*
X64350900Y-53124100D03*
X71907400Y-53060600D03*
X133502400Y-53060600D03*
X74193400Y-53060600D03*
X19202400Y-53060600D03*
X44602400Y-53060600D03*
X44729400Y-80746600D03*
X19329400Y-80746600D03*
X74320400Y-80746600D03*
X133629400Y-80746600D03*
X72034400Y-80746600D03*
X64477900Y-80810100D03*
X104990900Y-80492600D03*
X151726900Y-81064100D03*
X128714500Y-98031300D03*
X154114500Y-98031300D03*
X99123500Y-98031300D03*
X39814500Y-98031300D03*
X101409500Y-98031300D03*
X108966000Y-97967800D03*
X68453000Y-98285300D03*
X21717000Y-97713800D03*
X21640800Y-42392600D03*
X68376800Y-42964100D03*
X108889800Y-42646600D03*
X101333300Y-42710100D03*
X39738300Y-42710100D03*
X99047300Y-42710100D03*
X154038300Y-42710100D03*
X128638300Y-42710100D03*
X107318875Y-112272918D03*
X84702448Y-111206849D03*
X132649834Y-112086410D03*
X151650700Y-25742900D03*
X104914700Y-25171400D03*
X64401700Y-25488900D03*
X71958200Y-25425400D03*
X133553200Y-25425400D03*
X74244200Y-25425400D03*
X19253200Y-25425400D03*
X44653200Y-25425400D03*
X145961100Y-137807700D03*
X165963600Y-137045700D03*
X144627600Y-142570200D03*
X153327100Y-133426200D03*
X164884100Y-136220200D03*
X147929600Y-154127200D03*
X167424100Y-137744200D03*
X66516675Y-141652540D03*
X37523842Y-141600482D03*
X23851481Y-141795257D03*
X24715081Y-118478057D03*
X38387442Y-118283282D03*
X67380275Y-118335340D03*
X26904525Y-111433060D03*
X55897358Y-111485118D03*
X69569719Y-111290343D03*
X24359481Y-165036257D03*
X38031842Y-164841482D03*
X67024675Y-164893540D03*
X26548925Y-157991260D03*
X55541758Y-158043318D03*
X69214119Y-157848543D03*
X68706119Y-134607543D03*
X55033758Y-134802318D03*
X26040925Y-134750260D03*
X116084909Y-144079839D03*
X88486187Y-144130229D03*
X128393237Y-144015244D03*
X85792263Y-132349456D03*
X125699313Y-132234471D03*
X98100591Y-132284861D03*
X97592591Y-155576661D03*
X125191313Y-155526271D03*
X85284263Y-155641256D03*
X127885237Y-167307044D03*
X87978187Y-167422029D03*
X115576909Y-167371639D03*
X116110309Y-120813439D03*
X88511587Y-120863829D03*
X128418637Y-120748844D03*
X21653500Y-67233800D03*
X59563000Y-67614800D03*
X87757000Y-67741800D03*
X116713000Y-67678300D03*
X100774500Y-67805300D03*
X103886120Y-67566926D03*
X29781500Y-67805300D03*
X147637500Y-67805300D03*
X151536400Y-56172100D03*
X113626900Y-55791100D03*
X85432900Y-55664100D03*
X56476900Y-55727600D03*
X72415400Y-55600600D03*
X69303780Y-55838974D03*
X143408400Y-55600600D03*
X25552400Y-55600600D03*
X25679400Y-83286600D03*
X143535400Y-83286600D03*
X69430780Y-83524974D03*
X72542400Y-83286600D03*
X56603900Y-83413600D03*
X85559900Y-83350100D03*
X113753900Y-83477100D03*
X151663400Y-83858100D03*
X147764500Y-95491300D03*
X29908500Y-95491300D03*
X104013120Y-95252926D03*
X100901500Y-95491300D03*
X116840000Y-95364300D03*
X87884000Y-95427800D03*
X59690000Y-95300800D03*
X21780500Y-94919800D03*
X21704300Y-39598600D03*
X59613800Y-39979600D03*
X87807800Y-40106600D03*
X116763800Y-40043100D03*
X100825300Y-40170100D03*
X103936920Y-39931726D03*
X29832300Y-40170100D03*
X147688300Y-40170100D03*
X85817663Y-109083056D03*
X125724713Y-108968071D03*
X98125991Y-109018461D03*
X151587200Y-28536900D03*
X113677700Y-28155900D03*
X85483700Y-28028900D03*
X56527700Y-28092400D03*
X72466200Y-27965400D03*
X69354580Y-28203774D03*
X143459200Y-27965400D03*
X25603200Y-27965400D03*
X147548600Y-146697700D03*
X150850600Y-137998200D03*
X160121600Y-136601200D03*
X162407600Y-152476200D03*
X165773100Y-145364200D03*
X165709600Y-146824700D03*
X165709600Y-143840200D03*
X153327100Y-153809700D03*
X145770600Y-109982000D03*
X143510000Y-104190800D03*
X155549600Y-104165400D03*
X157810200Y-109956600D03*
X167919400Y-116509800D03*
X173710600Y-114249200D03*
X167894000Y-44297600D03*
X173685200Y-42037000D03*
X173685200Y-54076600D03*
X167894000Y-56337200D03*
X167894000Y-80391000D03*
X173685200Y-78130400D03*
X173685200Y-66090800D03*
X167894000Y-68351400D03*
X167894000Y-92430600D03*
X173685200Y-90170000D03*
X173685200Y-102209600D03*
X167894000Y-104470200D03*
D15*
X159931100Y-157111700D02*
X159941471Y-157129907D01*
X46897089Y-108469196D02*
X21710145Y-108786129D01*
X46897089Y-108469196D02*
X68439174Y-108570182D01*
X46541489Y-155027396D02*
X21354545Y-155344329D01*
X46541489Y-155027396D02*
X68083574Y-155128382D01*
X46033489Y-131786396D02*
X67575574Y-131887382D01*
X46033489Y-131786396D02*
X20846545Y-132103329D01*
X46524111Y-144616404D02*
X71711055Y-144299471D01*
X46524111Y-144616404D02*
X24982026Y-144515418D01*
X47387711Y-121299204D02*
X25845626Y-121198218D01*
X47387711Y-121299204D02*
X72574655Y-120982271D01*
X47032111Y-167857404D02*
X25490026Y-167756418D01*
X47032111Y-167857404D02*
X72219055Y-167540471D01*
X106184009Y-140693294D02*
X81561066Y-141011890D01*
X106895669Y-140717291D02*
X106184009Y-140693294D01*
X128918998Y-141459927D02*
X106895669Y-140717291D01*
X128981284Y-141460610D02*
X128918998Y-141459927D01*
D16*
X106183348Y-140782845D02*
X106184009Y-140693294D01*
D15*
X129508646Y-141891593D02*
X129684119Y-141844575D01*
X129508452Y-141891451D02*
X129508646Y-141891593D01*
X128918998Y-141459927D02*
X129508452Y-141891451D01*
X129508452Y-141891451D02*
X128918998Y-141459927D01*
D17*
X106873398Y-140755866D02*
X106895669Y-140717291D01*
X106892025Y-140825382D02*
X106873398Y-140755866D01*
X107293475Y-135539318D02*
X107312102Y-135608834D01*
X107312102Y-135608834D02*
X107289831Y-135647409D01*
D15*
X84677048Y-134473249D02*
X85266502Y-134904773D01*
X85266502Y-134904773D02*
X84677048Y-134473249D01*
X84677048Y-134473249D02*
X84676854Y-134473107D01*
X84676854Y-134473107D02*
X84501381Y-134520125D01*
D16*
X108002152Y-135581855D02*
X108001491Y-135671406D01*
D15*
X85204216Y-134904090D02*
X85266502Y-134904773D01*
X85266502Y-134904773D02*
X107289831Y-135647409D01*
X107289831Y-135647409D02*
X108001491Y-135671406D01*
X108001491Y-135671406D02*
X132624434Y-135352810D01*
X107493491Y-158963206D02*
X132116434Y-158644610D01*
X106781831Y-158939209D02*
X107493491Y-158963206D01*
X84758502Y-158196573D02*
X106781831Y-158939209D01*
X84696216Y-158195890D02*
X84758502Y-158196573D01*
D16*
X107494152Y-158873655D02*
X107493491Y-158963206D01*
D15*
X84168854Y-157764907D02*
X83993381Y-157811925D01*
X84169048Y-157765049D02*
X84168854Y-157764907D01*
X84758502Y-158196573D02*
X84169048Y-157765049D01*
X84169048Y-157765049D02*
X84758502Y-158196573D01*
D17*
X106804102Y-158900634D02*
X106781831Y-158939209D01*
X106785475Y-158831118D02*
X106804102Y-158900634D01*
X106384025Y-164117182D02*
X106365398Y-164047666D01*
X106365398Y-164047666D02*
X106387669Y-164009091D01*
D15*
X129000452Y-165183251D02*
X128410998Y-164751727D01*
X128410998Y-164751727D02*
X129000452Y-165183251D01*
X129000452Y-165183251D02*
X129000646Y-165183393D01*
X129000646Y-165183393D02*
X129176119Y-165136375D01*
D16*
X105675348Y-164074645D02*
X105676009Y-163985094D01*
D15*
X128473284Y-164752410D02*
X128410998Y-164751727D01*
X128410998Y-164751727D02*
X106387669Y-164009091D01*
X106387669Y-164009091D02*
X105676009Y-163985094D01*
X105676009Y-163985094D02*
X81053066Y-164303690D01*
X106209409Y-117426894D02*
X81586466Y-117745490D01*
X106921069Y-117450891D02*
X106209409Y-117426894D01*
X128944398Y-118193527D02*
X106921069Y-117450891D01*
X129006684Y-118194210D02*
X128944398Y-118193527D01*
D16*
X106208748Y-117516445D02*
X106209409Y-117426894D01*
D15*
X129534046Y-118625193D02*
X129709519Y-118578175D01*
X129533852Y-118625051D02*
X129534046Y-118625193D01*
X128944398Y-118193527D02*
X129533852Y-118625051D01*
X129533852Y-118625051D02*
X128944398Y-118193527D01*
D17*
X106898798Y-117489466D02*
X106921069Y-117450891D01*
X106917425Y-117558982D02*
X106898798Y-117489466D01*
X68326000Y-70599300D02*
X68326000Y-70345300D01*
D15*
X108839000Y-70281800D02*
X108839000Y-70345300D01*
X108839000Y-70345300D02*
X108839000Y-70281800D01*
X37147500Y-70345300D02*
X39687500Y-70345300D01*
X37147500Y-70345300D02*
X24066500Y-70345300D01*
X24066500Y-70345300D02*
X21590000Y-70027800D01*
X21590000Y-70027800D02*
X21526500Y-70027800D01*
X21526500Y-70027800D02*
X21526500Y-70027800D01*
X39687500Y-70345300D02*
X65087500Y-70345300D01*
X105727500Y-70345300D02*
X108839000Y-70345300D01*
X108839000Y-70345300D02*
X128587500Y-70345300D01*
X101282500Y-70345300D02*
X105727500Y-70345300D01*
X152717500Y-70345300D02*
X153987500Y-70345300D01*
X128587500Y-70345300D02*
X152717500Y-70345300D01*
X65087500Y-70345300D02*
X68326000Y-70345300D01*
X68326000Y-70345300D02*
X98996500Y-70345300D01*
X98996500Y-70345300D02*
X101282500Y-70345300D01*
D17*
X104863900Y-52806600D02*
X104863900Y-53060600D01*
D15*
X64350900Y-53124100D02*
X64350900Y-53060600D01*
X64350900Y-53060600D02*
X64350900Y-53124100D01*
X136042400Y-53060600D02*
X133502400Y-53060600D01*
X136042400Y-53060600D02*
X149123400Y-53060600D01*
X149123400Y-53060600D02*
X151599900Y-53378100D01*
X151599900Y-53378100D02*
X151663400Y-53378100D01*
X151663400Y-53378100D02*
X151663400Y-53378100D01*
X133502400Y-53060600D02*
X108102400Y-53060600D01*
X67462400Y-53060600D02*
X64350900Y-53060600D01*
X64350900Y-53060600D02*
X44602400Y-53060600D01*
X71907400Y-53060600D02*
X67462400Y-53060600D01*
X20472400Y-53060600D02*
X19202400Y-53060600D01*
X44602400Y-53060600D02*
X20472400Y-53060600D01*
X108102400Y-53060600D02*
X104863900Y-53060600D01*
X104863900Y-53060600D02*
X74193400Y-53060600D01*
X74193400Y-53060600D02*
X71907400Y-53060600D01*
X74320400Y-80746600D02*
X72034400Y-80746600D01*
X104990900Y-80746600D02*
X74320400Y-80746600D01*
X108229400Y-80746600D02*
X104990900Y-80746600D01*
X44729400Y-80746600D02*
X20599400Y-80746600D01*
X20599400Y-80746600D02*
X19329400Y-80746600D01*
X72034400Y-80746600D02*
X67589400Y-80746600D01*
X64477900Y-80746600D02*
X44729400Y-80746600D01*
X67589400Y-80746600D02*
X64477900Y-80746600D01*
X133629400Y-80746600D02*
X108229400Y-80746600D01*
X151790400Y-81064100D02*
X151790400Y-81064100D01*
X151726900Y-81064100D02*
X151790400Y-81064100D01*
X149250400Y-80746600D02*
X151726900Y-81064100D01*
X136169400Y-80746600D02*
X149250400Y-80746600D01*
X136169400Y-80746600D02*
X133629400Y-80746600D01*
X64477900Y-80746600D02*
X64477900Y-80810100D01*
X64477900Y-80810100D02*
X64477900Y-80746600D01*
D17*
X104990900Y-80492600D02*
X104990900Y-80746600D01*
D15*
X99123500Y-98031300D02*
X101409500Y-98031300D01*
X68453000Y-98031300D02*
X99123500Y-98031300D01*
X65214500Y-98031300D02*
X68453000Y-98031300D01*
X128714500Y-98031300D02*
X152844500Y-98031300D01*
X152844500Y-98031300D02*
X154114500Y-98031300D01*
X101409500Y-98031300D02*
X105854500Y-98031300D01*
X108966000Y-98031300D02*
X128714500Y-98031300D01*
X105854500Y-98031300D02*
X108966000Y-98031300D01*
X39814500Y-98031300D02*
X65214500Y-98031300D01*
X21653500Y-97713800D02*
X21653500Y-97713800D01*
X21717000Y-97713800D02*
X21653500Y-97713800D01*
X24193500Y-98031300D02*
X21717000Y-97713800D01*
X37274500Y-98031300D02*
X24193500Y-98031300D01*
X37274500Y-98031300D02*
X39814500Y-98031300D01*
X108966000Y-98031300D02*
X108966000Y-97967800D01*
X108966000Y-97967800D02*
X108966000Y-98031300D01*
D17*
X68453000Y-98285300D02*
X68453000Y-98031300D01*
X68376800Y-42964100D02*
X68376800Y-42710100D01*
D15*
X108889800Y-42646600D02*
X108889800Y-42710100D01*
X108889800Y-42710100D02*
X108889800Y-42646600D01*
X37198300Y-42710100D02*
X39738300Y-42710100D01*
X37198300Y-42710100D02*
X24117300Y-42710100D01*
X24117300Y-42710100D02*
X21640800Y-42392600D01*
X21640800Y-42392600D02*
X21577300Y-42392600D01*
X21577300Y-42392600D02*
X21577300Y-42392600D01*
X39738300Y-42710100D02*
X65138300Y-42710100D01*
X105778300Y-42710100D02*
X108889800Y-42710100D01*
X108889800Y-42710100D02*
X128638300Y-42710100D01*
X101333300Y-42710100D02*
X105778300Y-42710100D01*
X152768300Y-42710100D02*
X154038300Y-42710100D01*
X128638300Y-42710100D02*
X152768300Y-42710100D01*
X65138300Y-42710100D02*
X68376800Y-42710100D01*
X68376800Y-42710100D02*
X99047300Y-42710100D01*
X99047300Y-42710100D02*
X101333300Y-42710100D01*
D17*
X107318875Y-112272918D02*
X107337502Y-112342434D01*
X107337502Y-112342434D02*
X107315231Y-112381009D01*
D15*
X84702448Y-111206849D02*
X85291902Y-111638373D01*
X85291902Y-111638373D02*
X84702448Y-111206849D01*
X84702448Y-111206849D02*
X84702254Y-111206707D01*
X84702254Y-111206707D02*
X84526781Y-111253725D01*
D16*
X108027552Y-112315455D02*
X108026891Y-112405006D01*
D15*
X85229616Y-111637690D02*
X85291902Y-111638373D01*
X85291902Y-111638373D02*
X107315231Y-112381009D01*
X107315231Y-112381009D02*
X108026891Y-112405006D01*
X108026891Y-112405006D02*
X132649834Y-112086410D01*
D17*
X104914700Y-25171400D02*
X104914700Y-25425400D01*
D15*
X64401700Y-25488900D02*
X64401700Y-25425400D01*
X64401700Y-25425400D02*
X64401700Y-25488900D01*
X136093200Y-25425400D02*
X133553200Y-25425400D01*
X136093200Y-25425400D02*
X149174200Y-25425400D01*
X149174200Y-25425400D02*
X151650700Y-25742900D01*
X151650700Y-25742900D02*
X151714200Y-25742900D01*
X151714200Y-25742900D02*
X151714200Y-25742900D01*
X133553200Y-25425400D02*
X108153200Y-25425400D01*
X67513200Y-25425400D02*
X64401700Y-25425400D01*
X64401700Y-25425400D02*
X44653200Y-25425400D01*
X71958200Y-25425400D02*
X67513200Y-25425400D01*
X20523200Y-25425400D02*
X19253200Y-25425400D01*
X44653200Y-25425400D02*
X20523200Y-25425400D01*
X108153200Y-25425400D02*
X104914700Y-25425400D01*
X104914700Y-25425400D02*
X74244200Y-25425400D01*
X74244200Y-25425400D02*
X71958200Y-25425400D01*
X163995100Y-135775700D02*
X162280600Y-134801113D01*
X164857553Y-136266819D02*
X163995100Y-135775700D01*
X166027692Y-136933148D02*
X164857553Y-136266819D01*
X167430926Y-137732212D02*
X166027692Y-136933148D01*
X168567100Y-138379200D02*
X167430926Y-137732212D01*
X168503600Y-152285700D02*
X168503600Y-146761200D01*
X161645600Y-156159200D02*
X168503600Y-152285700D01*
X156629100Y-159016700D02*
X161645600Y-156159200D01*
X149326600Y-155016200D02*
X156629100Y-159016700D01*
X147912076Y-154156016D02*
X149326600Y-155016200D01*
X144627600Y-152158700D02*
X147912076Y-154156016D01*
X144627600Y-144475200D02*
X144627600Y-152158700D01*
X145961100Y-137601325D02*
X144564100Y-138442700D01*
X151930100Y-134188200D02*
X145961100Y-137601325D01*
X153318437Y-133410731D02*
X151930100Y-134188200D01*
X156692600Y-131521200D02*
X153318437Y-133410731D01*
X162280600Y-134801113D02*
X156692600Y-131521200D01*
X144607543Y-142569785D02*
X144627600Y-144475200D01*
X144564100Y-138442700D02*
X144607543Y-142569785D01*
D18*
X145961100Y-137601325D02*
X145961100Y-137807700D01*
D15*
X168503600Y-146761200D02*
X168567100Y-138379200D01*
X165963600Y-137045700D02*
X166027692Y-136933148D01*
X144564100Y-144475200D02*
X144627600Y-144475200D01*
X144500600Y-144475200D02*
X144564100Y-144475200D01*
X144564100Y-143967200D02*
X144564100Y-144475200D01*
X144627600Y-142570200D02*
X144607543Y-142569743D01*
X144607543Y-142569743D02*
X144607543Y-142569785D01*
X144564100Y-142570200D02*
X144607543Y-142569743D01*
X153327100Y-133426200D02*
X153318437Y-133410731D01*
X164884100Y-136220200D02*
X164857553Y-136266819D01*
X147912076Y-154156017D02*
X147912076Y-154156016D01*
X147929600Y-154127200D02*
X147912076Y-154156017D01*
X167424100Y-137744200D02*
X167430926Y-137732212D01*
D16*
X23851481Y-141795257D02*
X23851481Y-141795257D01*
D15*
X37340533Y-141706315D02*
X66516675Y-141652540D01*
X26237737Y-141737374D02*
X37340533Y-141706315D01*
X23960178Y-141797392D02*
X26237737Y-141737374D01*
X23851481Y-141795257D02*
X23960178Y-141797392D01*
D16*
X37523842Y-141600482D02*
X37340533Y-141706315D01*
X37522011Y-141709367D02*
X37523842Y-141600482D01*
X37523842Y-141600482D02*
X37522011Y-141709367D01*
D15*
X23960178Y-141797392D02*
X23851481Y-141795257D01*
X24823778Y-118480192D02*
X24715081Y-118478057D01*
D16*
X38387442Y-118283282D02*
X38385611Y-118392167D01*
X38385611Y-118392167D02*
X38387442Y-118283282D01*
X38387442Y-118283282D02*
X38204133Y-118389115D01*
D15*
X24715081Y-118478057D02*
X24823778Y-118480192D01*
X24823778Y-118480192D02*
X27101337Y-118420174D01*
X27101337Y-118420174D02*
X38204133Y-118389115D01*
X38204133Y-118389115D02*
X67380275Y-118335340D01*
D16*
X24715081Y-118478057D02*
X24715081Y-118478057D01*
X69569719Y-111290343D02*
X69569719Y-111290343D01*
D15*
X56080667Y-111379285D02*
X26904525Y-111433060D01*
X67183463Y-111348226D02*
X56080667Y-111379285D01*
X69461022Y-111288208D02*
X67183463Y-111348226D01*
X69569719Y-111290343D02*
X69461022Y-111288208D01*
D16*
X55897358Y-111485118D02*
X56080667Y-111379285D01*
X55899189Y-111376233D02*
X55897358Y-111485118D01*
X55897358Y-111485118D02*
X55899189Y-111376233D01*
D15*
X69461022Y-111288208D02*
X69569719Y-111290343D01*
X24468178Y-165038392D02*
X24359481Y-165036257D01*
D16*
X38031842Y-164841482D02*
X38030011Y-164950367D01*
X38030011Y-164950367D02*
X38031842Y-164841482D01*
X38031842Y-164841482D02*
X37848533Y-164947315D01*
D15*
X24359481Y-165036257D02*
X24468178Y-165038392D01*
X24468178Y-165038392D02*
X26745737Y-164978374D01*
X26745737Y-164978374D02*
X37848533Y-164947315D01*
X37848533Y-164947315D02*
X67024675Y-164893540D01*
D16*
X24359481Y-165036257D02*
X24359481Y-165036257D01*
X69214119Y-157848543D02*
X69214119Y-157848543D01*
D15*
X55725067Y-157937485D02*
X26548925Y-157991260D01*
X66827863Y-157906426D02*
X55725067Y-157937485D01*
X69105422Y-157846408D02*
X66827863Y-157906426D01*
X69214119Y-157848543D02*
X69105422Y-157846408D01*
D16*
X55541758Y-158043318D02*
X55725067Y-157937485D01*
X55543589Y-157934433D02*
X55541758Y-158043318D01*
X55541758Y-158043318D02*
X55543589Y-157934433D01*
D15*
X69105422Y-157846408D02*
X69214119Y-157848543D01*
X68597422Y-134605408D02*
X68706119Y-134607543D01*
D16*
X55033758Y-134802318D02*
X55035589Y-134693433D01*
X55035589Y-134693433D02*
X55033758Y-134802318D01*
X55033758Y-134802318D02*
X55217067Y-134696485D01*
D15*
X68706119Y-134607543D02*
X68597422Y-134605408D01*
X68597422Y-134605408D02*
X66319863Y-134665426D01*
X66319863Y-134665426D02*
X55217067Y-134696485D01*
X55217067Y-134696485D02*
X26040925Y-134750260D01*
D16*
X68706119Y-134607543D02*
X68706119Y-134607543D01*
D15*
X88486187Y-144130229D02*
X116084909Y-144079839D01*
X128721299Y-144189760D02*
X128739821Y-144258888D01*
X128655139Y-144151563D02*
X128721299Y-144189760D01*
X116084909Y-144079839D02*
X128393237Y-144015244D01*
X128393237Y-144015244D02*
X128655139Y-144151563D01*
X128655139Y-144151563D02*
X128393237Y-144015244D01*
X85530361Y-132213137D02*
X85792263Y-132349456D01*
X85792263Y-132349456D02*
X85530361Y-132213137D01*
X98100591Y-132284861D02*
X85792263Y-132349456D01*
X85530361Y-132213137D02*
X85464201Y-132174940D01*
X85464201Y-132174940D02*
X85445679Y-132105812D01*
X125699313Y-132234471D02*
X98100591Y-132284861D01*
X125191313Y-155526271D02*
X97592591Y-155576661D01*
X84956201Y-155466740D02*
X84937679Y-155397612D01*
X85022361Y-155504937D02*
X84956201Y-155466740D01*
X97592591Y-155576661D02*
X85284263Y-155641256D01*
X85284263Y-155641256D02*
X85022361Y-155504937D01*
X85022361Y-155504937D02*
X85284263Y-155641256D01*
X128147139Y-167443363D02*
X127885237Y-167307044D01*
X127885237Y-167307044D02*
X128147139Y-167443363D01*
X115576909Y-167371639D02*
X127885237Y-167307044D01*
X128147139Y-167443363D02*
X128213299Y-167481560D01*
X128213299Y-167481560D02*
X128231821Y-167550688D01*
X87978187Y-167422029D02*
X115576909Y-167371639D01*
X88511587Y-120863829D02*
X116110309Y-120813439D01*
X128746699Y-120923360D02*
X128765221Y-120992488D01*
X128680539Y-120885163D02*
X128746699Y-120923360D01*
X116110309Y-120813439D02*
X128418637Y-120748844D01*
X128418637Y-120748844D02*
X128680539Y-120885163D01*
X128680539Y-120885163D02*
X128418637Y-120748844D01*
X24003000Y-67805300D02*
X21653500Y-67233800D01*
D17*
X59563000Y-67614800D02*
X59563000Y-67805300D01*
X87757000Y-67741800D02*
X87757000Y-67805300D01*
X89217500Y-67614800D02*
X89217500Y-67805300D01*
D15*
X57467500Y-67805300D02*
X59563000Y-67805300D01*
X59563000Y-67805300D02*
X87757000Y-67805300D01*
X87757000Y-67805300D02*
X89217500Y-67805300D01*
X89217500Y-67805300D02*
X100774500Y-67805300D01*
D17*
X116713000Y-67678300D02*
X116712870Y-67737926D01*
D15*
X100774500Y-67805300D02*
X100774722Y-67703202D01*
X103885654Y-67709980D02*
X103886120Y-67566926D01*
D17*
X120015000Y-67678300D02*
X120014854Y-67745120D01*
D15*
X24003000Y-67805300D02*
X29781500Y-67805300D01*
X29781500Y-67805300D02*
X29527500Y-67805300D01*
X30797500Y-67805300D02*
X29527500Y-67805300D01*
X147637500Y-67805300D02*
X120014854Y-67745120D01*
X120014854Y-67745120D02*
X116712870Y-67737926D01*
X116712870Y-67737926D02*
X103885654Y-67709980D01*
X103885654Y-67709980D02*
X100774722Y-67703202D01*
X57467500Y-67805300D02*
X30797500Y-67805300D01*
X149186900Y-55600600D02*
X151536400Y-56172100D01*
D17*
X113626900Y-55791100D02*
X113626900Y-55600600D01*
X85432900Y-55664100D02*
X85432900Y-55600600D01*
X83972400Y-55791100D02*
X83972400Y-55600600D01*
D15*
X115722400Y-55600600D02*
X113626900Y-55600600D01*
X113626900Y-55600600D02*
X85432900Y-55600600D01*
X85432900Y-55600600D02*
X83972400Y-55600600D01*
X83972400Y-55600600D02*
X72415400Y-55600600D01*
D17*
X56476900Y-55727600D02*
X56477030Y-55667974D01*
D15*
X72415400Y-55600600D02*
X72415178Y-55702698D01*
X69304246Y-55695920D02*
X69303780Y-55838974D01*
D17*
X53174900Y-55727600D02*
X53175046Y-55660780D01*
D15*
X149186900Y-55600600D02*
X143408400Y-55600600D01*
X143408400Y-55600600D02*
X143662400Y-55600600D01*
X142392400Y-55600600D02*
X143662400Y-55600600D01*
X25552400Y-55600600D02*
X53175046Y-55660780D01*
X53175046Y-55660780D02*
X56477030Y-55667974D01*
X56477030Y-55667974D02*
X69304246Y-55695920D01*
X69304246Y-55695920D02*
X72415178Y-55702698D01*
X115722400Y-55600600D02*
X142392400Y-55600600D01*
X115849400Y-83286600D02*
X142519400Y-83286600D01*
X69431246Y-83381920D02*
X72542178Y-83388698D01*
X56604030Y-83353974D02*
X69431246Y-83381920D01*
X53302046Y-83346780D02*
X56604030Y-83353974D01*
X25679400Y-83286600D02*
X53302046Y-83346780D01*
X142519400Y-83286600D02*
X143789400Y-83286600D01*
X143535400Y-83286600D02*
X143789400Y-83286600D01*
X149313900Y-83286600D02*
X143535400Y-83286600D01*
D17*
X53301900Y-83413600D02*
X53302046Y-83346780D01*
D15*
X69431246Y-83381920D02*
X69430780Y-83524974D01*
X72542400Y-83286600D02*
X72542178Y-83388698D01*
D17*
X56603900Y-83413600D02*
X56604030Y-83353974D01*
D15*
X84099400Y-83286600D02*
X72542400Y-83286600D01*
X85559900Y-83286600D02*
X84099400Y-83286600D01*
X113753900Y-83286600D02*
X85559900Y-83286600D01*
X115849400Y-83286600D02*
X113753900Y-83286600D01*
D17*
X84099400Y-83477100D02*
X84099400Y-83286600D01*
X85559900Y-83350100D02*
X85559900Y-83286600D01*
X113753900Y-83477100D02*
X113753900Y-83286600D01*
D15*
X149313900Y-83286600D02*
X151663400Y-83858100D01*
X57594500Y-95491300D02*
X30924500Y-95491300D01*
X104012654Y-95395980D02*
X100901722Y-95389202D01*
X116839870Y-95423926D02*
X104012654Y-95395980D01*
X120141854Y-95431120D02*
X116839870Y-95423926D01*
X147764500Y-95491300D02*
X120141854Y-95431120D01*
X30924500Y-95491300D02*
X29654500Y-95491300D01*
X29908500Y-95491300D02*
X29654500Y-95491300D01*
X24130000Y-95491300D02*
X29908500Y-95491300D01*
D17*
X120142000Y-95364300D02*
X120141854Y-95431120D01*
D15*
X104012654Y-95395980D02*
X104013120Y-95252926D01*
X100901500Y-95491300D02*
X100901722Y-95389202D01*
D17*
X116840000Y-95364300D02*
X116839870Y-95423926D01*
D15*
X89344500Y-95491300D02*
X100901500Y-95491300D01*
X87884000Y-95491300D02*
X89344500Y-95491300D01*
X59690000Y-95491300D02*
X87884000Y-95491300D01*
X57594500Y-95491300D02*
X59690000Y-95491300D01*
D17*
X89344500Y-95300800D02*
X89344500Y-95491300D01*
X87884000Y-95427800D02*
X87884000Y-95491300D01*
X59690000Y-95300800D02*
X59690000Y-95491300D01*
D15*
X24130000Y-95491300D02*
X21780500Y-94919800D01*
X24053800Y-40170100D02*
X21704300Y-39598600D01*
D17*
X59613800Y-39979600D02*
X59613800Y-40170100D01*
X87807800Y-40106600D02*
X87807800Y-40170100D01*
X89268300Y-39979600D02*
X89268300Y-40170100D01*
D15*
X57518300Y-40170100D02*
X59613800Y-40170100D01*
X59613800Y-40170100D02*
X87807800Y-40170100D01*
X87807800Y-40170100D02*
X89268300Y-40170100D01*
X89268300Y-40170100D02*
X100825300Y-40170100D01*
D17*
X116763800Y-40043100D02*
X116763670Y-40102726D01*
D15*
X100825300Y-40170100D02*
X100825522Y-40068002D01*
X103936454Y-40074780D02*
X103936920Y-39931726D01*
D17*
X120065800Y-40043100D02*
X120065654Y-40109920D01*
D15*
X24053800Y-40170100D02*
X29832300Y-40170100D01*
X29832300Y-40170100D02*
X29578300Y-40170100D01*
X30848300Y-40170100D02*
X29578300Y-40170100D01*
X147688300Y-40170100D02*
X120065654Y-40109920D01*
X120065654Y-40109920D02*
X116763670Y-40102726D01*
X116763670Y-40102726D02*
X103936454Y-40074780D01*
X103936454Y-40074780D02*
X100825522Y-40068002D01*
X57518300Y-40170100D02*
X30848300Y-40170100D01*
X85555761Y-108946737D02*
X85817663Y-109083056D01*
X85817663Y-109083056D02*
X85555761Y-108946737D01*
X98125991Y-109018461D02*
X85817663Y-109083056D01*
X85555761Y-108946737D02*
X85489601Y-108908540D01*
X85489601Y-108908540D02*
X85471079Y-108839412D01*
X125724713Y-108968071D02*
X98125991Y-109018461D01*
X149237700Y-27965400D02*
X151587200Y-28536900D01*
D17*
X113677700Y-28155900D02*
X113677700Y-27965400D01*
X85483700Y-28028900D02*
X85483700Y-27965400D01*
X84023200Y-28155900D02*
X84023200Y-27965400D01*
D15*
X115773200Y-27965400D02*
X113677700Y-27965400D01*
X113677700Y-27965400D02*
X85483700Y-27965400D01*
X85483700Y-27965400D02*
X84023200Y-27965400D01*
X84023200Y-27965400D02*
X72466200Y-27965400D01*
D17*
X56527700Y-28092400D02*
X56527830Y-28032774D01*
D15*
X72466200Y-27965400D02*
X72465978Y-28067498D01*
X69355046Y-28060720D02*
X69354580Y-28203774D01*
D17*
X53225700Y-28092400D02*
X53225846Y-28025580D01*
D15*
X149237700Y-27965400D02*
X143459200Y-27965400D01*
X143459200Y-27965400D02*
X143713200Y-27965400D01*
X142443200Y-27965400D02*
X143713200Y-27965400D01*
X25603200Y-27965400D02*
X53225846Y-28025580D01*
X53225846Y-28025580D02*
X56527830Y-28032774D01*
X56527830Y-28032774D02*
X69355046Y-28060720D01*
X69355046Y-28060720D02*
X72465978Y-28067498D01*
X115773200Y-27965400D02*
X142443200Y-27965400D01*
X160378112Y-136800574D02*
X165709600Y-139966700D01*
X160248600Y-136728200D02*
X160378112Y-136800574D01*
X160097383Y-136645459D02*
X160248600Y-136728200D01*
X156756100Y-134759700D02*
X160097383Y-136645459D01*
X165709600Y-146824700D02*
X165709600Y-150571200D01*
X165709600Y-145364200D02*
X165709600Y-146824700D01*
X165709600Y-143840200D02*
X165709600Y-145364200D01*
X165709600Y-139966700D02*
X165709600Y-143840200D01*
X162407600Y-152476200D02*
X156692600Y-155778200D01*
X165709600Y-150571200D02*
X162407600Y-152476200D01*
X153967449Y-154239290D02*
X147548600Y-150571200D01*
X156692600Y-155778200D02*
X153967449Y-154239290D01*
X147548600Y-146189700D02*
X147548600Y-139903200D01*
X147548600Y-150571200D02*
X147548600Y-146189700D01*
X151011982Y-137949444D02*
X156756100Y-134759700D01*
X147548600Y-139903200D02*
X151011982Y-137949444D01*
X153959634Y-154252967D02*
X153967449Y-154239290D01*
X153276300Y-153911300D02*
X153959634Y-154252967D01*
X153197634Y-153871967D02*
X153276300Y-153911300D01*
X147548600Y-146570700D02*
X147548600Y-146189700D01*
X147548600Y-146697700D02*
X147548600Y-146570700D01*
X150850600Y-137998200D02*
X150630982Y-138139944D01*
X160121600Y-136601200D02*
X160097383Y-136645459D01*
X165773100Y-145364200D02*
X165709600Y-145364200D01*
X153327100Y-153809700D02*
X153276300Y-153911300D01*
D16*
X145618200Y-109829600D02*
X145770600Y-109982000D01*
X145618200Y-104368600D02*
X145618200Y-109829600D01*
X145415000Y-104165400D02*
X145618200Y-104368600D01*
X143535400Y-104165400D02*
X145415000Y-104165400D01*
X143510000Y-104190800D02*
X143535400Y-104165400D01*
X155549600Y-104165400D02*
X155575000Y-104140000D01*
X155575000Y-104140000D02*
X157454600Y-104140000D01*
X157454600Y-104140000D02*
X157657800Y-104343200D01*
X157657800Y-104343200D02*
X157657800Y-109804200D01*
X157657800Y-109804200D02*
X157810200Y-109956600D01*
X168071800Y-116357400D02*
X167919400Y-116509800D01*
X173532800Y-116357400D02*
X168071800Y-116357400D01*
X173736000Y-116154200D02*
X173532800Y-116357400D01*
X173736000Y-114274600D02*
X173736000Y-116154200D01*
X173710600Y-114249200D02*
X173736000Y-114274600D01*
X168046400Y-44145200D02*
X167894000Y-44297600D01*
X173507400Y-44145200D02*
X168046400Y-44145200D01*
X173710600Y-43942000D02*
X173507400Y-44145200D01*
X173710600Y-42062400D02*
X173710600Y-43942000D01*
X173685200Y-42037000D02*
X173710600Y-42062400D01*
X173685200Y-54076600D02*
X173710600Y-54102000D01*
X173710600Y-54102000D02*
X173710600Y-55981600D01*
X173710600Y-55981600D02*
X173507400Y-56184800D01*
X173507400Y-56184800D02*
X168046400Y-56184800D01*
X168046400Y-56184800D02*
X167894000Y-56337200D01*
X168046400Y-80238600D02*
X167894000Y-80391000D01*
X173507400Y-80238600D02*
X168046400Y-80238600D01*
X173710600Y-80035400D02*
X173507400Y-80238600D01*
X173710600Y-78155800D02*
X173710600Y-80035400D01*
X173685200Y-78130400D02*
X173710600Y-78155800D01*
X173685200Y-66090800D02*
X173710600Y-66116200D01*
X173710600Y-66116200D02*
X173710600Y-67995800D01*
X173710600Y-67995800D02*
X173507400Y-68199000D01*
X173507400Y-68199000D02*
X168046400Y-68199000D01*
X168046400Y-68199000D02*
X167894000Y-68351400D01*
X168046400Y-92278200D02*
X167894000Y-92430600D01*
X173507400Y-92278200D02*
X168046400Y-92278200D01*
X173710600Y-92075000D02*
X173507400Y-92278200D01*
X173710600Y-90195400D02*
X173710600Y-92075000D01*
X173685200Y-90170000D02*
X173710600Y-90195400D01*
X173685200Y-102209600D02*
X173710600Y-102235000D01*
X173710600Y-102235000D02*
X173710600Y-104114600D01*
X173710600Y-104114600D02*
X173507400Y-104317800D01*
X173507400Y-104317800D02*
X168046400Y-104317800D01*
X168046400Y-104317800D02*
X167894000Y-104470200D01*
M02*
