G04 #@! TF.FileFunction,Profile,NP*
%FSLAX46Y46*%
G04 Gerber Fmt 4.6, Leading zero omitted, Abs format (unit mm)*
G04 Created by KiCad (PCBNEW 4.0.7) date 10/29/17 08:22:04*
%MOMM*%
%LPD*%
G01*
G04 APERTURE LIST*
%ADD10C,0.100000*%
%ADD11C,0.150000*%
G04 APERTURE END LIST*
D10*
X150418800Y-127635000D02*
X138861800Y-117551200D01*
X162991800Y-92837000D02*
X162941000Y-85547200D01*
X162966400Y-99898200D02*
X162966400Y-103530400D01*
X116535200Y-99872800D02*
X162966400Y-99898200D01*
X116484400Y-92862400D02*
X162991800Y-92837000D01*
X162941000Y-72161400D02*
X116408200Y-72186800D01*
X162941000Y-83007200D02*
X162941000Y-72161400D01*
X116484400Y-44551600D02*
X162941000Y-44526200D01*
X162941000Y-61468000D02*
X164338000Y-61468000D01*
X116662200Y-60807600D02*
X116662200Y-58293000D01*
X111429800Y-60807600D02*
X116662200Y-60807600D01*
X116382800Y-65176400D02*
X111429800Y-60807600D01*
X162941000Y-65151000D02*
X116382800Y-65176400D01*
X162941000Y-61493400D02*
X162941000Y-65151000D01*
X164338000Y-61468000D02*
X164338000Y-58978800D01*
X162966400Y-58978800D02*
X164338000Y-58978800D01*
X164338000Y-49428400D02*
X162966400Y-49428400D01*
X164338000Y-46964600D02*
X164338000Y-49428400D01*
D11*
X116433600Y-37515800D02*
X175056800Y-37439600D01*
X87503000Y-129921000D02*
X102717600Y-129921000D01*
D10*
X162941000Y-44526200D02*
X162941000Y-46939200D01*
D11*
X138861800Y-115011600D02*
X138861800Y-117551600D01*
X163271200Y-126314200D02*
X162661600Y-127635000D01*
X169773600Y-130352800D02*
X163271200Y-126314200D01*
X168833800Y-131191000D02*
X169773600Y-130352800D01*
X174955200Y-134696200D02*
X175082200Y-109702600D01*
X138836400Y-113715800D02*
X138836400Y-114909600D01*
X138912600Y-102793800D02*
X138912600Y-106730800D01*
X111658400Y-106730800D02*
X138912600Y-106730800D01*
X113360200Y-113715800D02*
X138811000Y-113715800D01*
X138887200Y-102844600D02*
X148412200Y-102844600D01*
X148387200Y-103530400D02*
X150927200Y-103530400D01*
X148386800Y-103530400D02*
X148386800Y-102819200D01*
X150926800Y-103505000D02*
X150926800Y-102819200D01*
X148386800Y-103505000D02*
X148386800Y-102793800D01*
X160426400Y-103505000D02*
X160426400Y-102793800D01*
X160426800Y-103505000D02*
X162966800Y-103505000D01*
X150926800Y-102819200D02*
X160451800Y-102819200D01*
X175056800Y-109626400D02*
X175056800Y-119151400D01*
X174371000Y-107086400D02*
X175082200Y-107086400D01*
X174371000Y-109626400D02*
X175056800Y-109626400D01*
X174345600Y-49453800D02*
X175031400Y-49453800D01*
X174345600Y-46913800D02*
X175056800Y-46913800D01*
X162966400Y-46964600D02*
X164312600Y-46964600D01*
X174345600Y-58953400D02*
X175056800Y-58953400D01*
X175031400Y-37414200D02*
X175031400Y-46939200D01*
X174345600Y-46914200D02*
X174345600Y-49454200D01*
X174345600Y-58953800D02*
X174345600Y-61493800D01*
D10*
X162966400Y-58978800D02*
X162966400Y-49453800D01*
D11*
X175031400Y-49453800D02*
X175031400Y-58978800D01*
X175031400Y-61493400D02*
X174371000Y-61493400D01*
X175031400Y-85547200D02*
X174371000Y-85547200D01*
X162941000Y-85521800D02*
X164338000Y-85521800D01*
X175031400Y-73507600D02*
X175031400Y-83032600D01*
X174345600Y-83007600D02*
X174345600Y-85547600D01*
X164338000Y-83007600D02*
X164338000Y-85547600D01*
X174345600Y-70968000D02*
X174345600Y-73508000D01*
X175031400Y-61468000D02*
X175031400Y-70993000D01*
X164338000Y-83007200D02*
X162941000Y-83007200D01*
X174345600Y-83007200D02*
X175056800Y-83007200D01*
X174345600Y-70967600D02*
X175056800Y-70967600D01*
X174345600Y-73507600D02*
X175031400Y-73507600D01*
X174345600Y-97586800D02*
X175031400Y-97586800D01*
X174345600Y-95046800D02*
X175056800Y-95046800D01*
X174345600Y-107086400D02*
X175056800Y-107086400D01*
X175031400Y-85547200D02*
X175031400Y-95072200D01*
X174345600Y-95047200D02*
X174345600Y-97587200D01*
X138176000Y-153162000D02*
X138176000Y-148767800D01*
X144322800Y-159435800D02*
X137744200Y-160324800D01*
X112699800Y-153162000D02*
X138226800Y-153162000D01*
X112699800Y-129895600D02*
X138252200Y-129997200D01*
X138150600Y-141782800D02*
X138150600Y-136931400D01*
X138201400Y-129946400D02*
X144322800Y-131191000D01*
X112826800Y-160299400D02*
X137845800Y-160299400D01*
X113309400Y-136982200D02*
X138277600Y-136982200D01*
X98704400Y-106680000D02*
X106832400Y-106680000D01*
X87503000Y-106756200D02*
X93903800Y-106756200D01*
X111683800Y-104089200D02*
X111683800Y-106730800D01*
X98704400Y-104140000D02*
X98704400Y-106680000D01*
X18542000Y-106629200D02*
X41249600Y-106654600D01*
X51181000Y-106527600D02*
X66776600Y-106553000D01*
X106832400Y-104140400D02*
X106832400Y-106680400D01*
X98755200Y-104114600D02*
X98729800Y-104114600D01*
X23774400Y-99822000D02*
X41071800Y-99872800D01*
X27203400Y-169773600D02*
X126314200Y-169799000D01*
X50977800Y-162687000D02*
X102768400Y-162610800D01*
X78079600Y-160248600D02*
X102844600Y-160324800D01*
X112826800Y-162788600D02*
X135153400Y-162788600D01*
X112674400Y-123240800D02*
X126847600Y-123240800D01*
X50596800Y-146532600D02*
X102768400Y-146634200D01*
X50495200Y-139395200D02*
X103327200Y-139522200D01*
X86969600Y-153263600D02*
X102768400Y-153212800D01*
X126669800Y-146456400D02*
X112725200Y-146456400D01*
X113360200Y-139496800D02*
X135636000Y-139522200D01*
X103327200Y-136931400D02*
X78536800Y-136931400D01*
X50647600Y-123291600D02*
X102641400Y-123266200D01*
X51384200Y-116154200D02*
X103327200Y-116255800D01*
X103352600Y-113715800D02*
X78536800Y-113639600D01*
X135661400Y-116205000D02*
X113334800Y-116281200D01*
D10*
X68363258Y-125713149D02*
X65856609Y-129898045D01*
X74799725Y-136874482D02*
X68363258Y-125713149D01*
X69870624Y-136910530D02*
X74799725Y-136874482D01*
X68338552Y-125716904D02*
X70777648Y-129910026D01*
X65860829Y-129911796D02*
X68338552Y-125716904D01*
X17679936Y-136893607D02*
X17642723Y-129929153D01*
X70777648Y-129910026D02*
X74812283Y-136898220D01*
X21779952Y-146492774D02*
X17745317Y-139504580D01*
X26696771Y-146491004D02*
X24219048Y-150685896D01*
X24219048Y-150685896D02*
X21779952Y-146492774D01*
X22686976Y-139492270D02*
X17757875Y-139528318D01*
X17757875Y-139528318D02*
X24194342Y-150689651D01*
X24194342Y-150689651D02*
X26700991Y-146504755D01*
D11*
X50520600Y-136906400D02*
X50520600Y-139446400D01*
X40513000Y-136906400D02*
X40513000Y-139446400D01*
X41376600Y-113589200D02*
X41376600Y-116129200D01*
X51384200Y-113589200D02*
X51384200Y-116129200D01*
D10*
X25057942Y-127372451D02*
X27564591Y-123187555D01*
X18621475Y-116211118D02*
X25057942Y-127372451D01*
X23550576Y-116175070D02*
X18621475Y-116211118D01*
X25082648Y-127368696D02*
X22643552Y-123175574D01*
X27560371Y-123173804D02*
X25082648Y-127368696D01*
X22643552Y-123175574D02*
X18608917Y-116187380D01*
X71641248Y-106592826D02*
X75675883Y-113581020D01*
X18543536Y-113576407D02*
X18506323Y-106611953D01*
X66724429Y-106594596D02*
X69202152Y-102399704D01*
X69202152Y-102399704D02*
X71641248Y-106592826D01*
X70734224Y-113593330D02*
X75663325Y-113557282D01*
X75663325Y-113557282D02*
X69226858Y-102395949D01*
X69226858Y-102395949D02*
X66720209Y-106580845D01*
D11*
X41021000Y-160147400D02*
X41021000Y-162687400D01*
X51028600Y-160147400D02*
X51028600Y-162687400D01*
D10*
X24702342Y-173930651D02*
X27208991Y-169745755D01*
X18265875Y-162769318D02*
X24702342Y-173930651D01*
X23194976Y-162733270D02*
X18265875Y-162769318D01*
X24727048Y-173926896D02*
X22287952Y-169733774D01*
X27204771Y-169732004D02*
X24727048Y-173926896D01*
X22287952Y-169733774D02*
X18253317Y-162745580D01*
X71285648Y-153151026D02*
X75320283Y-160139220D01*
X18187936Y-160134607D02*
X18150723Y-153170153D01*
X66368829Y-153152796D02*
X68846552Y-148957904D01*
X68846552Y-148957904D02*
X71285648Y-153151026D01*
X70378624Y-160151530D02*
X75307725Y-160115482D01*
X75307725Y-160115482D02*
X68871258Y-148954149D01*
X68871258Y-148954149D02*
X66364609Y-153139045D01*
D11*
X50647600Y-146456800D02*
X50647600Y-148996800D01*
X40640000Y-146456800D02*
X40640000Y-148996800D01*
X50673000Y-150597000D02*
X50673000Y-153137000D01*
X40665400Y-150597000D02*
X40665400Y-153137000D01*
X50673000Y-153136600D02*
X50673000Y-146431000D01*
X50673000Y-146431000D02*
X50673000Y-146507200D01*
X40665400Y-153136600D02*
X40640000Y-146481800D01*
X50673000Y-153035000D02*
X66471800Y-153035000D01*
X18161000Y-153162000D02*
X40690800Y-153136600D01*
X40665400Y-146481800D02*
X26670000Y-146481800D01*
X41021000Y-162737800D02*
X18313400Y-162763200D01*
X41071800Y-160172400D02*
X18186400Y-160172400D01*
X17754600Y-139522200D02*
X40538400Y-139471400D01*
X17703800Y-136855200D02*
X40589200Y-136880600D01*
X74828400Y-136880600D02*
X50571400Y-136906000D01*
X75438000Y-162737800D02*
X75387200Y-162763200D01*
X75311000Y-160121600D02*
X51054000Y-160197800D01*
X40614600Y-129895600D02*
X40589200Y-123240800D01*
X50622200Y-123190000D02*
X50622200Y-123266200D01*
X50622200Y-129895600D02*
X50622200Y-123190000D01*
X40614600Y-127356000D02*
X40614600Y-129896000D01*
X50622200Y-127356000D02*
X50622200Y-129896000D01*
X40589200Y-123215800D02*
X40589200Y-125755800D01*
X50596800Y-123215800D02*
X50596800Y-125755800D01*
X50622200Y-129844800D02*
X65938400Y-129870200D01*
X65938400Y-129870200D02*
X65938400Y-129895600D01*
X65938400Y-129895600D02*
X65913000Y-129870200D01*
X51409600Y-113563400D02*
X75692000Y-113538000D01*
X17653000Y-129921000D02*
X40640000Y-129844800D01*
X40589200Y-123266200D02*
X27508200Y-123240800D01*
X41427400Y-116078000D02*
X18669000Y-116179600D01*
X18516600Y-113538000D02*
X41376600Y-113563400D01*
X93903800Y-104191200D02*
X93903800Y-106731200D01*
X174345600Y-107086800D02*
X174345600Y-109626800D01*
X89077800Y-99923600D02*
X51181000Y-99898200D01*
X41173400Y-106578400D02*
X41148000Y-99923600D01*
X51181000Y-99872800D02*
X51181000Y-99949000D01*
X51181000Y-106578400D02*
X51181000Y-99872800D01*
X41173400Y-104038800D02*
X41173400Y-106578800D01*
X51181000Y-104038800D02*
X51181000Y-106578800D01*
X41148000Y-99898600D02*
X41148000Y-102438600D01*
X51155600Y-99898600D02*
X51155600Y-102438600D01*
X102743000Y-153111200D02*
X102717600Y-146456400D01*
X112750600Y-146405600D02*
X112750600Y-146481800D01*
X112750600Y-153111200D02*
X112750600Y-146405600D01*
X102743000Y-150571600D02*
X102743000Y-153111600D01*
X112750600Y-150571600D02*
X112750600Y-153111600D01*
X102717600Y-146431400D02*
X102717600Y-148971400D01*
X112725200Y-146431400D02*
X112725200Y-148971400D01*
D10*
X126696584Y-146407874D02*
X129187734Y-150618471D01*
X129187734Y-150618471D02*
X135630900Y-139463795D01*
X135630900Y-139463795D02*
X130716583Y-139445032D01*
X131608147Y-146431960D02*
X135642782Y-139443767D01*
X126691328Y-146430191D02*
X129169051Y-150625082D01*
X129169051Y-150625082D02*
X131608147Y-146431960D01*
D11*
X103314500Y-136969900D02*
X103314500Y-139509900D01*
X113322100Y-136969900D02*
X113322100Y-139509900D01*
D10*
X85016449Y-125739618D02*
X82577353Y-129932740D01*
X87494172Y-129934509D02*
X85016449Y-125739618D01*
X82577353Y-129932740D02*
X78542718Y-136920933D01*
X78554600Y-136900905D02*
X83468917Y-136919668D01*
X84997766Y-125746229D02*
X78554600Y-136900905D01*
X87488916Y-129956826D02*
X84997766Y-125746229D01*
D11*
X102717600Y-129895600D02*
X102692200Y-123240800D01*
X112725200Y-123190000D02*
X112725200Y-123266200D01*
X112725200Y-129895600D02*
X112725200Y-123190000D01*
X102717600Y-127356000D02*
X102717600Y-129896000D01*
X112725200Y-127356000D02*
X112725200Y-129896000D01*
X102692200Y-123215800D02*
X102692200Y-125755800D01*
X112699800Y-123215800D02*
X112699800Y-125755800D01*
D10*
X86980916Y-153248626D02*
X84489766Y-149038029D01*
X84489766Y-149038029D02*
X78046600Y-160192705D01*
X78046600Y-160192705D02*
X82960917Y-160211468D01*
X82069353Y-153224540D02*
X78034718Y-160212733D01*
X86986172Y-153226309D02*
X84508449Y-149031418D01*
X84508449Y-149031418D02*
X82069353Y-153224540D01*
D11*
X112814100Y-160261700D02*
X112814100Y-162801700D01*
X102806500Y-160261700D02*
X102806500Y-162801700D01*
D10*
X128661051Y-173916882D02*
X131100147Y-169723760D01*
X126183328Y-169721991D02*
X128661051Y-173916882D01*
X131100147Y-169723760D02*
X135134782Y-162735567D01*
X135122900Y-162755595D02*
X130208583Y-162736832D01*
X128679734Y-173910271D02*
X135122900Y-162755595D01*
X126188584Y-169699674D02*
X128679734Y-173910271D01*
X126721984Y-123141474D02*
X129213134Y-127352071D01*
X129213134Y-127352071D02*
X135656300Y-116197395D01*
X135656300Y-116197395D02*
X130741983Y-116178632D01*
X131633547Y-123165560D02*
X135668182Y-116177367D01*
X126716728Y-123163791D02*
X129194451Y-127358682D01*
X129194451Y-127358682D02*
X131633547Y-123165560D01*
D11*
X103339900Y-113703500D02*
X103339900Y-116243500D01*
X113347500Y-113703500D02*
X113347500Y-116243500D01*
X106654600Y-51206400D02*
X84251800Y-51231800D01*
X116662200Y-51231800D02*
X149555200Y-51257200D01*
D10*
X116662200Y-48717200D02*
X111607600Y-48717200D01*
D11*
X106781600Y-78917800D02*
X84353400Y-78943200D01*
X66751200Y-44475400D02*
X89001600Y-44500800D01*
X56718200Y-47015400D02*
X61595000Y-47015400D01*
X56667400Y-74650600D02*
X61747400Y-74650600D01*
X116789200Y-78892400D02*
X149758400Y-78943200D01*
X111607600Y-76377800D02*
X116789200Y-76377800D01*
X66725800Y-72136000D02*
X88900000Y-72161400D01*
X23774400Y-92811600D02*
X56591200Y-92837000D01*
X23647400Y-72161400D02*
X56718200Y-72161400D01*
X23622000Y-65125600D02*
X56489600Y-65100200D01*
X23723600Y-44500800D02*
X56743600Y-44526200D01*
X106629200Y-60807600D02*
X106730800Y-61010800D01*
D10*
X116662200Y-58293000D02*
X149580600Y-58293000D01*
D11*
X84277200Y-58293000D02*
X106654600Y-58318400D01*
X88925400Y-65151000D02*
X66446400Y-65100200D01*
X23647400Y-65125600D02*
X56464200Y-65100200D01*
X56464200Y-62509400D02*
X61620400Y-62509400D01*
X106654600Y-51231400D02*
X106654600Y-48691400D01*
X116662200Y-51231400D02*
X116662200Y-48691400D01*
X66687700Y-72123700D02*
X66687700Y-74663700D01*
X56680100Y-72123700D02*
X56680100Y-74663700D01*
X56451500Y-62522500D02*
X56451500Y-65062500D01*
X66459100Y-62522500D02*
X66459100Y-65062500D01*
D10*
X109108276Y-72187979D02*
X104257378Y-72172221D01*
X106714255Y-76431196D02*
X109108276Y-72187979D01*
X104257378Y-72172221D02*
X96188107Y-72172221D01*
X21302299Y-63117801D02*
X23642299Y-65137801D01*
X18292298Y-65117801D02*
X21302299Y-63117801D01*
X18282298Y-72117802D02*
X18292298Y-65117801D01*
X21292299Y-74117802D02*
X18282298Y-72117802D01*
X23652304Y-72137802D02*
X21292299Y-74117802D01*
X93792300Y-76427802D02*
X88920482Y-72171020D01*
X98652302Y-76437802D02*
X93792300Y-76427802D01*
X96211393Y-72172497D02*
X98652302Y-76437802D01*
X109093209Y-72175105D02*
X96211393Y-72172497D01*
X106692300Y-76437802D02*
X109093209Y-72175105D01*
X116420482Y-72176589D02*
X111552303Y-76427802D01*
X109093201Y-65161071D02*
X106722300Y-60897801D01*
X96208970Y-65154548D02*
X109093201Y-65161071D01*
X98642302Y-60867797D02*
X96208970Y-65154548D01*
X93752302Y-60867797D02*
X98642302Y-60867797D01*
X88922302Y-65137797D02*
X93752302Y-60867797D01*
X21302299Y-63117801D02*
X23622299Y-65117801D01*
X18292298Y-65117801D02*
X21302299Y-63117801D01*
X18292298Y-72117802D02*
X18292298Y-65117801D01*
X21292299Y-74137802D02*
X18292298Y-72117802D01*
X23652304Y-72157802D02*
X21292299Y-74137802D01*
X109102302Y-65137797D02*
X104251404Y-65153555D01*
X106708281Y-60894580D02*
X109102302Y-65137797D01*
X104251404Y-65153555D02*
X96182133Y-65153555D01*
D11*
X106654600Y-60832600D02*
X106654600Y-58292600D01*
D10*
X64081624Y-51217921D02*
X68932522Y-51233679D01*
X66475645Y-46974704D02*
X64081624Y-51217921D01*
X68932522Y-51233679D02*
X77001793Y-51233679D01*
X151887601Y-60288099D02*
X149547601Y-58268099D01*
X154897602Y-58288099D02*
X151887601Y-60288099D01*
X154907602Y-51288098D02*
X154897602Y-58288099D01*
X151897601Y-49288098D02*
X154907602Y-51288098D01*
X149537596Y-51268098D02*
X151897601Y-49288098D01*
X79397600Y-46978098D02*
X84269418Y-51234880D01*
X74537598Y-46968098D02*
X79397600Y-46978098D01*
X76978507Y-51233403D02*
X74537598Y-46968098D01*
X64096691Y-51230795D02*
X76978507Y-51233403D01*
X66497600Y-46968098D02*
X64096691Y-51230795D01*
X56769418Y-51229311D02*
X61637597Y-46978098D01*
X17887597Y-51221436D02*
X56769418Y-51229311D01*
X17887597Y-58221436D02*
X17887597Y-51221436D01*
X56797599Y-58238099D02*
X17887597Y-58221436D01*
X61647599Y-62488099D02*
X56797599Y-58238099D01*
X64096699Y-58244829D02*
X66467600Y-62508099D01*
X76980930Y-58251352D02*
X64096699Y-58244829D01*
X74547598Y-62538103D02*
X76980930Y-58251352D01*
X79437598Y-62538103D02*
X74547598Y-62538103D01*
X84267598Y-58268103D02*
X79437598Y-62538103D01*
X151887601Y-60288099D02*
X149567601Y-58288099D01*
X154897602Y-58288099D02*
X151887601Y-60288099D01*
X154897602Y-51288098D02*
X154897602Y-58288099D01*
X151897601Y-49268098D02*
X154897602Y-51288098D01*
X149537596Y-51248098D02*
X151897601Y-49268098D01*
X64087598Y-58268103D02*
X68938496Y-58252345D01*
X66481619Y-62511320D02*
X64087598Y-58268103D01*
X68938496Y-58252345D02*
X77007767Y-58252345D01*
X69065496Y-85938345D02*
X77134767Y-85938345D01*
X66608619Y-90197320D02*
X64214598Y-85954103D01*
X64214598Y-85954103D02*
X69065496Y-85938345D01*
X149664596Y-78934098D02*
X152024601Y-76954098D01*
X152024601Y-76954098D02*
X155024602Y-78974098D01*
X155024602Y-78974098D02*
X155024602Y-85974099D01*
X155024602Y-85974099D02*
X152014601Y-87974099D01*
X152014601Y-87974099D02*
X149694601Y-85974099D01*
X84394598Y-85954103D02*
X79564598Y-90224103D01*
X79564598Y-90224103D02*
X74674598Y-90224103D01*
X74674598Y-90224103D02*
X77107930Y-85937352D01*
X77107930Y-85937352D02*
X64223699Y-85930829D01*
X64223699Y-85930829D02*
X66594600Y-90194099D01*
X61774599Y-90174099D02*
X56924599Y-85924099D01*
X56924599Y-85924099D02*
X18014597Y-85907436D01*
X18014597Y-85907436D02*
X18014597Y-78907436D01*
X18014597Y-78907436D02*
X56896418Y-78915311D01*
X56896418Y-78915311D02*
X61764597Y-74664098D01*
X66624600Y-74654098D02*
X64223691Y-78916795D01*
X64223691Y-78916795D02*
X77105507Y-78919403D01*
X77105507Y-78919403D02*
X74664598Y-74654098D01*
X74664598Y-74654098D02*
X79524600Y-74664098D01*
X79524600Y-74664098D02*
X84396418Y-78920880D01*
X149664596Y-78954098D02*
X152024601Y-76974098D01*
X152024601Y-76974098D02*
X155034602Y-78974098D01*
X155034602Y-78974098D02*
X155024602Y-85974099D01*
X155024602Y-85974099D02*
X152014601Y-87974099D01*
X152014601Y-87974099D02*
X149674601Y-85954099D01*
X69059522Y-78919679D02*
X77128793Y-78919679D01*
X66602645Y-74660704D02*
X64208624Y-78903921D01*
X64208624Y-78903921D02*
X69059522Y-78919679D01*
D11*
X106781600Y-88518600D02*
X106781600Y-85978600D01*
X116789200Y-88518600D02*
X116789200Y-85978600D01*
D10*
X104378404Y-92839555D02*
X96309133Y-92839555D01*
X106835281Y-88580580D02*
X109229302Y-92823797D01*
X109229302Y-92823797D02*
X104378404Y-92839555D01*
X23779304Y-99843802D02*
X21419299Y-101823802D01*
X21419299Y-101823802D02*
X18419298Y-99803802D01*
X18419298Y-99803802D02*
X18419298Y-92803801D01*
X18419298Y-92803801D02*
X21429299Y-90803801D01*
X21429299Y-90803801D02*
X23749299Y-92803801D01*
X89049302Y-92823797D02*
X93879302Y-88553797D01*
X93879302Y-88553797D02*
X98769302Y-88553797D01*
X98769302Y-88553797D02*
X96335970Y-92840548D01*
X96335970Y-92840548D02*
X109220201Y-92847071D01*
X109220201Y-92847071D02*
X106849300Y-88583801D01*
X111669301Y-88603801D02*
X116519301Y-92853801D01*
X116547482Y-99862589D02*
X111679303Y-104113802D01*
X106819300Y-104123802D02*
X109220209Y-99861105D01*
X109220209Y-99861105D02*
X96338393Y-99858497D01*
X96338393Y-99858497D02*
X98779302Y-104123802D01*
X93919300Y-104113802D02*
X89047482Y-99857020D01*
X23779304Y-99823802D02*
X21419299Y-101803802D01*
X21419299Y-101803802D02*
X18409298Y-99803802D01*
X18409298Y-99803802D02*
X18419298Y-92803801D01*
X18419298Y-92803801D02*
X21429299Y-90803801D01*
X21429299Y-90803801D02*
X23769299Y-92823801D01*
X104384378Y-99858221D02*
X96315107Y-99858221D01*
X106841255Y-104117196D02*
X109235276Y-99873979D01*
X109235276Y-99873979D02*
X104384378Y-99858221D01*
D11*
X66586100Y-90208500D02*
X66586100Y-92748500D01*
X56578500Y-90208500D02*
X56578500Y-92748500D01*
X116789200Y-78917400D02*
X116789200Y-76377400D01*
X106781600Y-78917400D02*
X106781600Y-76377400D01*
X56591200Y-90195400D02*
X61747400Y-90195400D01*
X23774400Y-92811600D02*
X56591200Y-92786200D01*
X89052400Y-92837000D02*
X66573400Y-92786200D01*
X84404200Y-85979000D02*
X106781600Y-86004400D01*
X116789200Y-85979000D02*
X149707600Y-85979000D01*
X116789200Y-88493600D02*
X111633000Y-88493600D01*
X111582200Y-88519000D02*
X111709200Y-88620600D01*
X106756200Y-88493600D02*
X106857800Y-88696800D01*
X106680000Y-33172400D02*
X106781600Y-33375600D01*
X111506000Y-33197800D02*
X111633000Y-33299400D01*
X116713000Y-33172400D02*
X111556800Y-33172400D01*
X116713000Y-30657800D02*
X149631400Y-30657800D01*
X84328000Y-30657800D02*
X106705400Y-30683200D01*
X88976200Y-37515800D02*
X66497200Y-37465000D01*
X23698200Y-37490400D02*
X56515000Y-37465000D01*
X56515000Y-34874200D02*
X61671200Y-34874200D01*
X66738500Y-44488500D02*
X66738500Y-47028500D01*
X56730900Y-44488500D02*
X56730900Y-47028500D01*
X56502300Y-34887300D02*
X56502300Y-37427300D01*
X66509900Y-34887300D02*
X66509900Y-37427300D01*
D10*
X109159076Y-44552779D02*
X104308178Y-44537021D01*
X106765055Y-48795996D02*
X109159076Y-44552779D01*
X104308178Y-44537021D02*
X96238907Y-44537021D01*
X21353099Y-35482601D02*
X23693099Y-37502601D01*
X18343098Y-37482601D02*
X21353099Y-35482601D01*
X18333098Y-44482602D02*
X18343098Y-37482601D01*
X21343099Y-46482602D02*
X18333098Y-44482602D01*
X23703104Y-44502602D02*
X21343099Y-46482602D01*
X93843100Y-48792602D02*
X88971282Y-44535820D01*
X98703102Y-48802602D02*
X93843100Y-48792602D01*
X96262193Y-44537297D02*
X98703102Y-48802602D01*
X109144009Y-44539905D02*
X96262193Y-44537297D01*
X106743100Y-48802602D02*
X109144009Y-44539905D01*
X116471282Y-44541389D02*
X111603103Y-48792602D01*
X111593101Y-33282601D02*
X116443101Y-37532601D01*
X109144001Y-37525871D02*
X106773100Y-33262601D01*
X96259770Y-37519348D02*
X109144001Y-37525871D01*
X98693102Y-33232597D02*
X96259770Y-37519348D01*
X93803102Y-33232597D02*
X98693102Y-33232597D01*
X88973102Y-37502597D02*
X93803102Y-33232597D01*
X21353099Y-35482601D02*
X23673099Y-37482601D01*
X18343098Y-37482601D02*
X21353099Y-35482601D01*
X18343098Y-44482602D02*
X18343098Y-37482601D01*
X21343099Y-46502602D02*
X18343098Y-44482602D01*
X23703104Y-44522602D02*
X21343099Y-46502602D01*
X109153102Y-37502597D02*
X104302204Y-37518355D01*
X106759081Y-33259380D02*
X109153102Y-37502597D01*
X104302204Y-37518355D02*
X96232933Y-37518355D01*
D11*
X116713000Y-33197400D02*
X116713000Y-30657400D01*
X106705400Y-33197400D02*
X106705400Y-30657400D01*
D10*
X85041849Y-102473218D02*
X82602753Y-106666340D01*
X87519572Y-106668109D02*
X85041849Y-102473218D01*
X82602753Y-106666340D02*
X78568118Y-113654533D01*
X78580000Y-113634505D02*
X83494317Y-113653268D01*
X85023166Y-102479829D02*
X78580000Y-113634505D01*
X87514316Y-106690426D02*
X85023166Y-102479829D01*
X64132424Y-23582721D02*
X68983322Y-23598479D01*
X66526445Y-19339504D02*
X64132424Y-23582721D01*
X68983322Y-23598479D02*
X77052593Y-23598479D01*
X151938401Y-32652899D02*
X149598401Y-30632899D01*
X154948402Y-30652899D02*
X151938401Y-32652899D01*
X154958402Y-23652898D02*
X154948402Y-30652899D01*
X151948401Y-21652898D02*
X154958402Y-23652898D01*
X149588396Y-23632898D02*
X151948401Y-21652898D01*
X84320218Y-23599680D02*
X149588396Y-23612898D01*
X79448400Y-19342898D02*
X84320218Y-23599680D01*
X74588398Y-19332898D02*
X79448400Y-19342898D01*
X77029307Y-23598203D02*
X74588398Y-19332898D01*
X64147491Y-23595595D02*
X77029307Y-23598203D01*
X66548400Y-19332898D02*
X64147491Y-23595595D01*
X61688397Y-19342898D02*
X66548400Y-19332898D01*
X56820218Y-23594111D02*
X61688397Y-19342898D01*
X17938397Y-23586236D02*
X56820218Y-23594111D01*
X17938397Y-30586236D02*
X17938397Y-23586236D01*
X56848399Y-30602899D02*
X17938397Y-30586236D01*
X61698399Y-34852899D02*
X56848399Y-30602899D01*
X64147499Y-30609629D02*
X66518400Y-34872899D01*
X77031730Y-30616152D02*
X64147499Y-30609629D01*
X74598398Y-34902903D02*
X77031730Y-30616152D01*
X79488398Y-34902903D02*
X74598398Y-34902903D01*
X84318398Y-30632903D02*
X79488398Y-34902903D01*
X151938401Y-32652899D02*
X149618401Y-30652899D01*
X154948402Y-30652899D02*
X151938401Y-32652899D01*
X154948402Y-23652898D02*
X154948402Y-30652899D01*
X151948401Y-21632898D02*
X154948402Y-23652898D01*
X149588396Y-23612898D02*
X151948401Y-21632898D01*
X64138398Y-30632903D02*
X68989296Y-30617145D01*
X66532419Y-34876120D02*
X64138398Y-30632903D01*
X68989296Y-30617145D02*
X77058567Y-30617145D01*
X138183796Y-141773698D02*
X140543801Y-139793698D01*
X140543801Y-139793698D02*
X143543802Y-141813698D01*
X143543802Y-141813698D02*
X143543802Y-148813699D01*
X143543802Y-148813699D02*
X140533801Y-150813699D01*
X140533801Y-150813699D02*
X138213801Y-148813699D01*
X138183796Y-141793698D02*
X140543801Y-139813698D01*
X140543801Y-139813698D02*
X143553802Y-141813698D01*
X143553802Y-141813698D02*
X143543802Y-148813699D01*
X143543802Y-148813699D02*
X140533801Y-150813699D01*
X140533801Y-150813699D02*
X138193801Y-148793699D01*
X150419456Y-127640463D02*
X153314189Y-128694287D01*
X153314189Y-128694287D02*
X153087139Y-132301023D01*
X153087139Y-132301023D02*
X147019961Y-135792363D01*
X147019961Y-135792363D02*
X143782910Y-134185627D01*
X143782910Y-134185627D02*
X144362281Y-131149127D01*
X174955099Y-155818964D02*
X174945094Y-155878965D01*
X174945094Y-155878965D02*
X174955099Y-148758964D01*
X174955099Y-148758964D02*
X172595094Y-150738964D01*
X172595094Y-150738964D02*
X169585094Y-148738964D01*
X169585094Y-148738964D02*
X169595094Y-141738964D01*
X169595094Y-141738964D02*
X172605094Y-139738964D01*
X172605094Y-139738964D02*
X174945094Y-141758964D01*
X174945094Y-141758964D02*
X174955099Y-134658964D01*
X138242444Y-155925912D02*
X138195484Y-155887247D01*
X144356583Y-159455912D02*
X143821855Y-156422088D01*
X143821855Y-156422088D02*
X147058906Y-154815352D01*
X147058906Y-154815352D02*
X153116084Y-158324012D01*
X153116084Y-158324012D02*
X153343135Y-161930748D01*
X153343135Y-161930748D02*
X150423764Y-162947248D01*
X150423764Y-162947248D02*
X156567542Y-166505913D01*
X174908894Y-134661586D02*
X174955853Y-134700251D01*
X168794754Y-131131586D02*
X169329482Y-134165410D01*
X169329482Y-134165410D02*
X166092431Y-135772147D01*
X166092431Y-135772147D02*
X160035253Y-132263486D01*
X160035253Y-132263486D02*
X159808202Y-128656750D01*
X159808202Y-128656750D02*
X162727574Y-127640250D01*
X156627130Y-166465091D02*
X156570165Y-166486426D01*
X156570165Y-166486426D02*
X162741270Y-162935091D01*
X162741270Y-162935091D02*
X159846537Y-161881267D01*
X159846537Y-161881267D02*
X160073588Y-158274530D01*
X160073588Y-158274530D02*
X166140766Y-154783190D01*
X166140766Y-154783190D02*
X169377817Y-156389927D01*
X169377817Y-156389927D02*
X168798445Y-159426426D01*
X168798445Y-159426426D02*
X174952228Y-155885091D01*
D11*
X175031400Y-97586800D02*
X175031400Y-107111800D01*
M02*
