M48
;DRILL file {KiCad 4.0.7} date 10/29/17 08:22:08
;FORMAT={-:-/ absolute / inch / decimal}
FMAT,2
INCH,TZ
T1C0.016
T2C0.039
%
G90
G05
M72
T1
X0.756Y-2.089
X0.758Y-1.001
X0.761Y-3.179
X0.8207Y-5.2009
X0.8407Y-6.1159
X0.85Y-2.757
X0.852Y-1.669
X0.8525Y-2.647
X0.8545Y-1.559
X0.8547Y-4.2829
X0.855Y-3.847
X0.8575Y-3.737
X0.939Y-5.5825
X0.959Y-6.4975
X0.973Y-4.6645
X0.9835Y-5.6896
X1.0035Y-6.6046
X1.006Y-2.189
X1.008Y-1.101
X1.011Y-3.279
X1.0175Y-4.7716
X1.0252Y-5.3051
X1.0452Y-6.2201
X1.0592Y-4.3871
X1.1725Y-2.6695
X1.1745Y-1.5815
X1.1775Y-3.7595
X1.4773Y-5.5748
X1.4973Y-6.4898
X1.5113Y-4.6568
X1.5625Y-2.7695
X1.5645Y-1.6815
X1.5675Y-3.8595
X1.756Y-2.089
X1.758Y-1.001
X1.761Y-3.179
X1.8123Y-5.1884
X1.8317Y-5.6936
X1.8323Y-6.1034
X1.8463Y-4.2704
X1.8517Y-6.6086
X1.8657Y-4.7756
X2.1667Y-5.3072
X2.1867Y-6.2222
X2.2007Y-4.3892
X2.2235Y-2.194
X2.2255Y-1.106
X2.2285Y-3.284
X2.345Y-2.662
X2.347Y-1.574
X2.35Y-3.752
X2.5335Y-2.0915
X2.5355Y-1.0035
X2.5385Y-3.1815
X2.6188Y-5.5769
X2.6388Y-6.4919
X2.6528Y-4.6589
X2.6605Y-5.1924
X2.6805Y-6.1074
X2.69Y-2.7795
X2.692Y-1.6915
X2.6945Y-4.2744
X2.695Y-3.8695
X2.705Y-5.2995
X2.725Y-6.2145
X2.7285Y-2.1984
X2.7305Y-1.1104
X2.7335Y-3.2884
X2.739Y-4.3815
X2.8233Y-5.6811
X2.831Y-2.089
X2.833Y-1.001
X2.836Y-3.179
X2.8433Y-6.5961
X2.851Y-2.189
X2.853Y-1.101
X2.856Y-3.279
X2.8573Y-4.7631
X2.921Y-2.089
X2.923Y-1.001
X2.926Y-3.179
X3.1911Y-6.4686
X3.2111Y-5.5516
X3.2121Y-4.6356
X3.3137Y-6.2112
X3.3337Y-5.2942
X3.3347Y-4.3782
X3.3576Y-6.1276
X3.3635Y-2.1915
X3.3655Y-1.1035
X3.3685Y-3.2815
X3.3776Y-5.2106
X3.3786Y-4.2946
X3.455Y-2.667
X3.457Y-1.579
X3.46Y-3.757
X3.4637Y-6.5914
X3.4837Y-5.6744
X3.4847Y-4.7584
X3.8422Y-6.1251
X3.8622Y-5.2081
X3.8632Y-4.2921
X3.8975Y-2.7695
X3.8995Y-1.6815
X3.9025Y-3.8595
X3.9675Y-2.6695
X3.9695Y-1.5815
X3.9725Y-3.7595
X3.9875Y-2.7695
X3.9895Y-1.6815
X3.9925Y-3.8595
X4.09Y-2.6601
X4.092Y-1.5721
X4.095Y-3.7501
X4.1285Y-2.079
X4.1305Y-0.991
X4.1335Y-3.169
X4.1883Y-6.4613
X4.2042Y-6.2532
X4.2083Y-5.5443
X4.2093Y-4.6283
X4.2242Y-5.3362
X4.2252Y-4.4202
X4.285Y-2.767
X4.287Y-1.679
X4.29Y-3.857
X4.4735Y-2.1965
X4.4755Y-1.1085
X4.4785Y-3.2865
X4.5503Y-6.5894
X4.5703Y-5.6724
X4.5713Y-4.7564
X4.595Y-2.6645
X4.597Y-1.5765
X4.6Y-3.7545
X4.9288Y-6.1231
X4.9488Y-5.2061
X4.9498Y-4.2901
X5.0349Y-6.5869
X5.0549Y-5.6699
X5.0559Y-4.7539
X5.0625Y-2.7695
X5.0645Y-1.6815
X5.0675Y-3.8595
X5.0788Y-6.5033
X5.0988Y-5.5863
X5.0998Y-4.6703
X5.2014Y-6.2459
X5.2214Y-5.3289
X5.2224Y-4.4129
X5.256Y-2.089
X5.258Y-1.001
X5.261Y-3.179
X5.646Y-2.189
X5.648Y-1.101
X5.65Y-4.102
X5.651Y-3.279
X5.694Y-5.613
X5.739Y-4.33
X5.7465Y-5.4255
X5.809Y-5.7755
X5.8125Y-2.6695
X5.8145Y-1.5815
X5.8175Y-3.7595
X5.824Y-6.068
X5.939Y-5.433
X5.966Y-2.2115
X5.968Y-1.1235
X5.9685Y-2.1015
X5.9705Y-1.0135
X5.971Y-3.3015
X5.9735Y-3.1915
X6.0365Y-5.253
X6.0365Y-6.0555
X6.0625Y-2.7695
X6.0645Y-1.6815
X6.0675Y-3.8595
X6.124Y-4.101
X6.213Y-4.329
X6.2965Y-6.1855
X6.2969Y-6.1862
X6.304Y-5.378
X6.394Y-6.003
X6.4915Y-5.363
X6.524Y-5.663
X6.524Y-5.7805
X6.5265Y-5.723
X6.534Y-5.3955
X6.5915Y-5.423
X6.61Y-1.744
X6.61Y-2.218
X6.61Y-2.691
X6.61Y-3.165
X6.61Y-3.639
X6.61Y-4.113
X6.611Y-4.587
X6.838Y-1.655
X6.838Y-2.129
X6.838Y-2.602
X6.838Y-3.076
X6.838Y-3.55
X6.838Y-4.024
X6.839Y-4.498
T2
X1.643Y-5.439
X1.646Y-4.9
X1.647Y-5.063
X1.648Y-5.815
X1.649Y-5.978
X1.663Y-6.354
X1.668Y-3.982
X1.669Y-4.145
X1.677Y-4.521
X1.724Y-5.437
X1.727Y-4.898
X1.728Y-5.061
X1.729Y-5.813
X1.73Y-5.976
X1.744Y-6.352
X1.749Y-3.98
X1.75Y-4.143
X1.758Y-4.519
X1.81Y-5.437
X1.813Y-4.898
X1.814Y-5.061
X1.815Y-5.813
X1.816Y-5.976
X1.83Y-6.352
X1.835Y-3.98
X1.836Y-4.143
X1.844Y-4.519
X1.878Y-5.437
X1.881Y-4.898
X1.882Y-5.061
X1.883Y-5.813
X1.884Y-5.976
X1.898Y-6.352
X1.903Y-3.98
X1.904Y-4.143
X1.912Y-4.519
X1.947Y-5.439
X1.95Y-4.9
X1.951Y-5.063
X1.952Y-5.815
X1.953Y-5.978
X1.967Y-6.354
X1.972Y-3.982
X1.973Y-4.145
X1.981Y-4.521
X2.288Y-2.511
X2.29Y-1.423
X2.293Y-3.601
X2.297Y-2.889
X2.299Y-1.801
X2.372Y-2.509
X2.374Y-1.421
X2.377Y-3.599
X2.381Y-2.887
X2.383Y-1.799
X2.458Y-2.509
X2.46Y-1.421
X2.463Y-3.599
X2.467Y-2.887
X2.469Y-1.799
X2.55Y-2.515
X2.552Y-1.427
X2.555Y-3.605
X2.559Y-2.893
X2.561Y-1.805
X3.019Y-6.466
X3.021Y-6.547
X3.021Y-6.633
X3.025Y-5.547
X3.027Y-5.628
X3.027Y-5.714
X3.034Y-4.625
X3.036Y-4.706
X3.036Y-4.792
X3.745Y-4.151
X3.826Y-4.149
X4.091Y-4.9
X4.092Y-5.063
X4.092Y-5.814
X4.093Y-5.977
X4.0955Y-6.3585
X4.1155Y-5.4415
X4.1165Y-4.5255
X4.172Y-4.898
X4.173Y-5.061
X4.173Y-5.812
X4.174Y-5.975
X4.1765Y-6.3565
X4.1965Y-5.4395
X4.1975Y-4.5235
X4.251Y-1.968
X4.251Y-2.346
X4.253Y-1.258
X4.254Y-4.149
X4.256Y-3.058
X4.256Y-3.436
X4.258Y-4.898
X4.259Y-5.061
X4.259Y-5.812
X4.26Y-5.975
X4.2625Y-6.3565
X4.2825Y-5.4395
X4.2835Y-4.5235
X4.326Y-4.898
X4.327Y-5.061
X4.327Y-5.812
X4.328Y-5.975
X4.3305Y-6.3565
X4.334Y-1.968
X4.334Y-2.346
X4.335Y-4.147
X4.336Y-1.258
X4.339Y-3.058
X4.339Y-3.436
X4.3505Y-5.4395
X4.3515Y-4.5235
X4.395Y-4.9
X4.396Y-5.063
X4.396Y-5.814
X4.397Y-5.977
X4.3995Y-6.3585
X4.4195Y-5.4415
X4.4205Y-4.5255
X4.433Y-1.968
X4.433Y-2.346
X4.435Y-1.258
X4.438Y-3.058
X4.438Y-3.436
X4.545Y-1.966
X4.545Y-2.344
X4.547Y-1.256
X4.55Y-3.056
X4.55Y-3.434
X5.378Y-6.084
X5.38Y-6.165
X5.38Y-6.251
X5.395Y-5.165
X5.397Y-5.246
X5.397Y-5.332
X5.415Y-4.255
X5.415Y-4.341
X5.417Y-4.422
X5.512Y-4.575
X5.5555Y-4.1385
X5.5555Y-4.2385
X5.5555Y-4.3385
X5.5555Y-4.4385
X5.593Y-4.573
X5.679Y-4.573
X5.747Y-4.573
X5.816Y-4.575
X5.889Y-4.187
X5.889Y-4.255
X5.889Y-4.341
X5.891Y-4.118
X5.891Y-4.422
X5.902Y-4.577
X5.947Y-4.958
X5.986Y-4.576
X6.009Y-4.912
X6.0295Y-4.1375
X6.0295Y-4.2375
X6.0295Y-4.3375
X6.0295Y-4.4375
X6.072Y-4.575
X6.096Y-4.863
X6.153Y-4.573
X6.169Y-5.9105
X6.174Y-1.531
X6.174Y-1.617
X6.176Y-1.698
X6.176Y-2.617
X6.176Y-2.703
X6.176Y-3.707
X6.176Y-3.793
X6.178Y-2.784
X6.178Y-3.874
X6.227Y-4.856
X6.239Y-4.573
X6.307Y-4.573
X6.311Y-4.907
X6.359Y-1.529
X6.359Y-1.615
X6.361Y-1.696
X6.361Y-2.615
X6.361Y-2.701
X6.361Y-3.705
X6.361Y-3.791
X6.363Y-2.782
X6.363Y-3.872
X6.363Y-4.186
X6.363Y-4.254
X6.363Y-4.34
X6.365Y-4.117
X6.365Y-4.421
X6.376Y-4.575
X6.379Y-5.623
X6.379Y-5.723
X6.379Y-5.823
X6.386Y-4.953
X6.474Y-4.948
X6.5015Y-1.5605
X6.5015Y-2.0345
X6.5015Y-2.5075
X6.5015Y-2.9815
X6.5015Y-3.4555
X6.5015Y-3.9295
X6.5025Y-4.4035
X6.518Y-1.896
X6.518Y-2.37
X6.518Y-2.843
X6.518Y-3.317
X6.518Y-3.791
X6.518Y-4.265
X6.519Y-4.739
X6.549Y-4.986
X6.599Y-1.894
X6.599Y-2.368
X6.599Y-2.841
X6.599Y-3.315
X6.599Y-3.789
X6.599Y-4.263
X6.6Y-4.737
X6.6015Y-1.5605
X6.6015Y-2.0345
X6.6015Y-2.5075
X6.6015Y-2.9815
X6.6015Y-3.4555
X6.6015Y-3.9295
X6.6025Y-4.4035
X6.624Y-5.031
X6.685Y-1.894
X6.685Y-2.368
X6.685Y-2.841
X6.685Y-3.315
X6.685Y-3.789
X6.685Y-4.263
X6.686Y-4.737
X6.701Y-5.077
X6.7015Y-1.5605
X6.7015Y-2.0345
X6.7015Y-2.5075
X6.7015Y-2.9815
X6.7015Y-3.4555
X6.7015Y-3.9295
X6.7025Y-4.4035
X6.75Y-5.164
X6.753Y-1.894
X6.753Y-2.368
X6.753Y-2.841
X6.753Y-3.315
X6.753Y-3.789
X6.753Y-4.263
X6.754Y-4.737
X6.8015Y-1.5605
X6.8015Y-2.0345
X6.8015Y-2.5075
X6.8015Y-2.9815
X6.8015Y-3.4555
X6.8015Y-3.9295
X6.8025Y-4.4035
X6.822Y-1.896
X6.822Y-2.37
X6.822Y-2.843
X6.822Y-3.317
X6.822Y-3.791
X6.822Y-4.265
X6.823Y-4.739
X6.846Y-5.225
T0
M30
