G04 #@! TF.FileFunction,Soldermask,Top*
%FSLAX46Y46*%
G04 Gerber Fmt 4.6, Leading zero omitted, Abs format (unit mm)*
G04 Created by KiCad (PCBNEW 4.0.7) date 10/29/17 08:22:04*
%MOMM*%
%LPD*%
G01*
G04 APERTURE LIST*
%ADD10C,0.100000*%
%ADD11R,4.400000X2.400000*%
%ADD12R,2.100000X2.100000*%
%ADD13O,2.100000X2.100000*%
%ADD14R,1.800000X2.200000*%
%ADD15R,2.200000X1.800000*%
%ADD16R,2.400000X4.400000*%
G04 APERTURE END LIST*
D10*
D11*
X155028900Y-81064100D03*
X155028900Y-83858100D03*
D12*
X141109700Y-112737900D03*
D13*
X141109700Y-110197900D03*
X141109700Y-107657900D03*
X141109700Y-105117900D03*
D14*
X143866600Y-111188200D03*
X147166600Y-111188200D03*
X147166600Y-106388200D03*
X143866600Y-106388200D03*
X155906200Y-111162800D03*
X159206200Y-111162800D03*
X159206200Y-106362800D03*
X155906200Y-106362800D03*
D12*
X153149300Y-112712500D03*
D13*
X153149300Y-110172500D03*
X153149300Y-107632500D03*
X153149300Y-105092500D03*
D12*
X165163500Y-111848900D03*
D13*
X167703500Y-111848900D03*
X170243500Y-111848900D03*
X172783500Y-111848900D03*
D15*
X166713200Y-114605800D03*
X166713200Y-117905800D03*
X171513200Y-117905800D03*
X171513200Y-114605800D03*
D12*
X165138100Y-39636700D03*
D13*
X167678100Y-39636700D03*
X170218100Y-39636700D03*
X172758100Y-39636700D03*
D15*
X166687800Y-42393600D03*
X166687800Y-45693600D03*
X171487800Y-45693600D03*
X171487800Y-42393600D03*
X166687800Y-54433200D03*
X166687800Y-57733200D03*
X171487800Y-57733200D03*
X171487800Y-54433200D03*
D12*
X165138100Y-51676300D03*
D13*
X167678100Y-51676300D03*
X170218100Y-51676300D03*
X172758100Y-51676300D03*
D12*
X165138100Y-75730100D03*
D13*
X167678100Y-75730100D03*
X170218100Y-75730100D03*
X172758100Y-75730100D03*
D15*
X166687800Y-78487000D03*
X166687800Y-81787000D03*
X171487800Y-81787000D03*
X171487800Y-78487000D03*
X166687800Y-66447400D03*
X166687800Y-69747400D03*
X171487800Y-69747400D03*
X171487800Y-66447400D03*
D12*
X165138100Y-63690500D03*
D13*
X167678100Y-63690500D03*
X170218100Y-63690500D03*
X172758100Y-63690500D03*
D12*
X165138100Y-87769700D03*
D13*
X167678100Y-87769700D03*
X170218100Y-87769700D03*
X172758100Y-87769700D03*
D15*
X166687800Y-90526600D03*
X166687800Y-93826600D03*
X171487800Y-93826600D03*
X171487800Y-90526600D03*
D10*
G36*
X67346572Y-128721174D02*
X66141534Y-128008516D01*
X66854192Y-126803478D01*
X68059230Y-127516136D01*
X67346572Y-128721174D01*
X67346572Y-128721174D01*
G37*
G36*
X73063513Y-136183807D02*
X73078174Y-137583730D01*
X71678251Y-137598391D01*
X71663590Y-136198468D01*
X73063513Y-136183807D01*
X73063513Y-136183807D01*
G37*
G36*
X69355237Y-125957424D02*
X71673459Y-126578590D01*
X70534655Y-130828664D01*
X68216433Y-130207498D01*
X69355237Y-125957424D01*
X69355237Y-125957424D01*
G37*
G36*
X70977662Y-135194971D02*
X69777662Y-133116511D01*
X73588174Y-130916511D01*
X74788174Y-132994971D01*
X70977662Y-135194971D01*
X70977662Y-135194971D01*
G37*
D15*
X48216112Y-131596732D03*
X48216112Y-134896732D03*
X53016112Y-134896732D03*
X53016112Y-131596732D03*
X18853067Y-131538446D03*
X18853067Y-134838446D03*
X23653067Y-134838446D03*
X23653067Y-131538446D03*
X73704533Y-144864354D03*
X73704533Y-141564354D03*
X68904533Y-141564354D03*
X68904533Y-144864354D03*
X44341488Y-144806068D03*
X44341488Y-141506068D03*
X39541488Y-141506068D03*
X39541488Y-144806068D03*
D10*
G36*
X21579938Y-141207829D02*
X22779938Y-143286289D01*
X18969426Y-145486289D01*
X17769426Y-143407829D01*
X21579938Y-141207829D01*
X21579938Y-141207829D01*
G37*
G36*
X23202363Y-150445376D02*
X20884141Y-149824210D01*
X22022945Y-145574136D01*
X24341167Y-146195302D01*
X23202363Y-150445376D01*
X23202363Y-150445376D01*
G37*
G36*
X19494087Y-140218993D02*
X19479426Y-138819070D01*
X20879349Y-138804409D01*
X20894010Y-140204332D01*
X19494087Y-140218993D01*
X19494087Y-140218993D01*
G37*
G36*
X25211028Y-147681626D02*
X26416066Y-148394284D01*
X25703408Y-149599322D01*
X24498370Y-148886664D01*
X25211028Y-147681626D01*
X25211028Y-147681626D01*
G37*
G36*
X26074628Y-124364426D02*
X27279666Y-125077084D01*
X26567008Y-126282122D01*
X25361970Y-125569464D01*
X26074628Y-124364426D01*
X26074628Y-124364426D01*
G37*
G36*
X20357687Y-116901793D02*
X20343026Y-115501870D01*
X21742949Y-115487209D01*
X21757610Y-116887132D01*
X20357687Y-116901793D01*
X20357687Y-116901793D01*
G37*
G36*
X24065963Y-127128176D02*
X21747741Y-126507010D01*
X22886545Y-122256936D01*
X25204767Y-122878102D01*
X24065963Y-127128176D01*
X24065963Y-127128176D01*
G37*
G36*
X22443538Y-117890629D02*
X23643538Y-119969089D01*
X19833026Y-122169089D01*
X18633026Y-120090629D01*
X22443538Y-117890629D01*
X22443538Y-117890629D01*
G37*
D15*
X45205088Y-121488868D03*
X45205088Y-118188868D03*
X40405088Y-118188868D03*
X40405088Y-121488868D03*
X74568133Y-121547154D03*
X74568133Y-118247154D03*
X69768133Y-118247154D03*
X69768133Y-121547154D03*
X19716667Y-108221246D03*
X19716667Y-111521246D03*
X24516667Y-111521246D03*
X24516667Y-108221246D03*
X49079712Y-108279532D03*
X49079712Y-111579532D03*
X53879712Y-111579532D03*
X53879712Y-108279532D03*
D10*
G36*
X71841262Y-111877771D02*
X70641262Y-109799311D01*
X74451774Y-107599311D01*
X75651774Y-109677771D01*
X71841262Y-111877771D01*
X71841262Y-111877771D01*
G37*
G36*
X70218837Y-102640224D02*
X72537059Y-103261390D01*
X71398255Y-107511464D01*
X69080033Y-106890298D01*
X70218837Y-102640224D01*
X70218837Y-102640224D01*
G37*
G36*
X73927113Y-112866607D02*
X73941774Y-114266530D01*
X72541851Y-114281191D01*
X72527190Y-112881268D01*
X73927113Y-112866607D01*
X73927113Y-112866607D01*
G37*
G36*
X68210172Y-105403974D02*
X67005134Y-104691316D01*
X67717792Y-103486278D01*
X68922830Y-104198936D01*
X68210172Y-105403974D01*
X68210172Y-105403974D01*
G37*
G36*
X25719028Y-170922626D02*
X26924066Y-171635284D01*
X26211408Y-172840322D01*
X25006370Y-172127664D01*
X25719028Y-170922626D01*
X25719028Y-170922626D01*
G37*
G36*
X20002087Y-163459993D02*
X19987426Y-162060070D01*
X21387349Y-162045409D01*
X21402010Y-163445332D01*
X20002087Y-163459993D01*
X20002087Y-163459993D01*
G37*
G36*
X23710363Y-173686376D02*
X21392141Y-173065210D01*
X22530945Y-168815136D01*
X24849167Y-169436302D01*
X23710363Y-173686376D01*
X23710363Y-173686376D01*
G37*
G36*
X22087938Y-164448829D02*
X23287938Y-166527289D01*
X19477426Y-168727289D01*
X18277426Y-166648829D01*
X22087938Y-164448829D01*
X22087938Y-164448829D01*
G37*
D15*
X44849488Y-168047068D03*
X44849488Y-164747068D03*
X40049488Y-164747068D03*
X40049488Y-168047068D03*
X74212533Y-168105354D03*
X74212533Y-164805354D03*
X69412533Y-164805354D03*
X69412533Y-168105354D03*
X19361067Y-154779446D03*
X19361067Y-158079446D03*
X24161067Y-158079446D03*
X24161067Y-154779446D03*
X48724112Y-154837732D03*
X48724112Y-158137732D03*
X53524112Y-158137732D03*
X53524112Y-154837732D03*
D10*
G36*
X71485662Y-158435971D02*
X70285662Y-156357511D01*
X74096174Y-154157511D01*
X75296174Y-156235971D01*
X71485662Y-158435971D01*
X71485662Y-158435971D01*
G37*
G36*
X69863237Y-149198424D02*
X72181459Y-149819590D01*
X71042655Y-154069664D01*
X68724433Y-153448498D01*
X69863237Y-149198424D01*
X69863237Y-149198424D01*
G37*
G36*
X73571513Y-159424807D02*
X73586174Y-160824730D01*
X72186251Y-160839391D01*
X72171590Y-159439468D01*
X73571513Y-159424807D01*
X73571513Y-159424807D01*
G37*
G36*
X67854572Y-151962174D02*
X66649534Y-151249516D01*
X67362192Y-150044478D01*
X68567230Y-150757136D01*
X67854572Y-151962174D01*
X67854572Y-151962174D01*
G37*
D15*
X108942478Y-140864971D03*
X108942478Y-144164971D03*
X113742478Y-144164971D03*
X113742478Y-140864971D03*
X79721168Y-140931764D03*
X79721168Y-144231764D03*
X84521168Y-144231764D03*
X84521168Y-140931764D03*
D10*
G36*
X134286466Y-146163818D02*
X133086466Y-148242278D01*
X129275954Y-146042278D01*
X130475954Y-143963818D01*
X134286466Y-146163818D01*
X134286466Y-146163818D01*
G37*
G36*
X135533223Y-143877371D02*
X134333223Y-145955831D01*
X130522711Y-143755831D01*
X131722711Y-141677371D01*
X135533223Y-143877371D01*
X135533223Y-143877371D01*
G37*
G36*
X126952363Y-148241893D02*
X128157401Y-147529235D01*
X128870059Y-148734273D01*
X127665021Y-149446931D01*
X126952363Y-148241893D01*
X126952363Y-148241893D01*
G37*
G36*
X133912246Y-138753420D02*
X133897585Y-140153343D01*
X132497662Y-140138682D01*
X132512323Y-138738759D01*
X133912246Y-138753420D01*
X133912246Y-138753420D01*
G37*
G36*
X80273254Y-137611280D02*
X80287915Y-136211357D01*
X81687838Y-136226018D01*
X81673177Y-137625941D01*
X80273254Y-137611280D01*
X80273254Y-137611280D01*
G37*
G36*
X87233137Y-128122807D02*
X86028099Y-128835465D01*
X85315441Y-127630427D01*
X86520479Y-126917769D01*
X87233137Y-128122807D01*
X87233137Y-128122807D01*
G37*
G36*
X78652277Y-132487329D02*
X79852277Y-130408869D01*
X83662789Y-132608869D01*
X82462789Y-134687329D01*
X78652277Y-132487329D01*
X78652277Y-132487329D01*
G37*
G36*
X79899034Y-130200882D02*
X81099034Y-128122422D01*
X84909546Y-130322422D01*
X83709546Y-132400882D01*
X79899034Y-130200882D01*
X79899034Y-130200882D01*
G37*
D15*
X134464332Y-135432936D03*
X134464332Y-132132936D03*
X129664332Y-132132936D03*
X129664332Y-135432936D03*
X105243022Y-135499729D03*
X105243022Y-132199729D03*
X100443022Y-132199729D03*
X100443022Y-135499729D03*
X104735022Y-158791529D03*
X104735022Y-155491529D03*
X99935022Y-155491529D03*
X99935022Y-158791529D03*
X133956332Y-158724736D03*
X133956332Y-155424736D03*
X129156332Y-155424736D03*
X129156332Y-158724736D03*
D10*
G36*
X79391034Y-153492682D02*
X80591034Y-151414222D01*
X84401546Y-153614222D01*
X83201546Y-155692682D01*
X79391034Y-153492682D01*
X79391034Y-153492682D01*
G37*
G36*
X78144277Y-155779129D02*
X79344277Y-153700669D01*
X83154789Y-155900669D01*
X81954789Y-157979129D01*
X78144277Y-155779129D01*
X78144277Y-155779129D01*
G37*
G36*
X86725137Y-151414607D02*
X85520099Y-152127265D01*
X84807441Y-150922227D01*
X86012479Y-150209569D01*
X86725137Y-151414607D01*
X86725137Y-151414607D01*
G37*
G36*
X79765254Y-160903080D02*
X79779915Y-159503157D01*
X81179838Y-159517818D01*
X81165177Y-160917741D01*
X79765254Y-160903080D01*
X79765254Y-160903080D01*
G37*
G36*
X133404246Y-162045220D02*
X133389585Y-163445143D01*
X131989662Y-163430482D01*
X132004323Y-162030559D01*
X133404246Y-162045220D01*
X133404246Y-162045220D01*
G37*
G36*
X126444363Y-171533693D02*
X127649401Y-170821035D01*
X128362059Y-172026073D01*
X127157021Y-172738731D01*
X126444363Y-171533693D01*
X126444363Y-171533693D01*
G37*
G36*
X135025223Y-167169171D02*
X133825223Y-169247631D01*
X130014711Y-167047631D01*
X131214711Y-164969171D01*
X135025223Y-167169171D01*
X135025223Y-167169171D01*
G37*
G36*
X133778466Y-169455618D02*
X132578466Y-171534078D01*
X128767954Y-169334078D01*
X129967954Y-167255618D01*
X133778466Y-169455618D01*
X133778466Y-169455618D01*
G37*
D15*
X79213168Y-164223564D03*
X79213168Y-167523564D03*
X84013168Y-167523564D03*
X84013168Y-164223564D03*
X108434478Y-164156771D03*
X108434478Y-167456771D03*
X113234478Y-167456771D03*
X113234478Y-164156771D03*
X108967878Y-117598571D03*
X108967878Y-120898571D03*
X113767878Y-120898571D03*
X113767878Y-117598571D03*
X79746568Y-117665364D03*
X79746568Y-120965364D03*
X84546568Y-120965364D03*
X84546568Y-117665364D03*
D10*
G36*
X134311866Y-122897418D02*
X133111866Y-124975878D01*
X129301354Y-122775878D01*
X130501354Y-120697418D01*
X134311866Y-122897418D01*
X134311866Y-122897418D01*
G37*
G36*
X135558623Y-120610971D02*
X134358623Y-122689431D01*
X130548111Y-120489431D01*
X131748111Y-118410971D01*
X135558623Y-120610971D01*
X135558623Y-120610971D01*
G37*
G36*
X126977763Y-124975493D02*
X128182801Y-124262835D01*
X128895459Y-125467873D01*
X127690421Y-126180531D01*
X126977763Y-124975493D01*
X126977763Y-124975493D01*
G37*
G36*
X133937646Y-115487020D02*
X133922985Y-116886943D01*
X132523062Y-116872282D01*
X132537723Y-115472359D01*
X133937646Y-115487020D01*
X133937646Y-115487020D01*
G37*
G36*
X19578229Y-65092719D02*
X18803481Y-63926629D01*
X19969571Y-63151881D01*
X20744319Y-64317971D01*
X19578229Y-65092719D01*
X19578229Y-65092719D01*
G37*
G36*
X20744319Y-72918229D02*
X19969571Y-74084319D01*
X18803481Y-73309571D01*
X19578229Y-72143481D01*
X20744319Y-72918229D01*
X20744319Y-72918229D01*
G37*
G36*
X96455518Y-74016083D02*
X97675217Y-73328818D01*
X98362482Y-74548517D01*
X97142783Y-75235782D01*
X96455518Y-74016083D01*
X96455518Y-74016083D01*
G37*
G36*
X106996518Y-62776583D02*
X108216217Y-62089318D01*
X108903482Y-63309017D01*
X107683783Y-63996282D01*
X106996518Y-62776583D01*
X106996518Y-62776583D01*
G37*
G36*
X97675217Y-63996282D02*
X96455518Y-63309017D01*
X97142783Y-62089318D01*
X98362482Y-62776583D01*
X97675217Y-63996282D01*
X97675217Y-63996282D01*
G37*
G36*
X108152717Y-75299282D02*
X106933018Y-74612017D01*
X107620283Y-73392318D01*
X108839982Y-74079583D01*
X108152717Y-75299282D01*
X108152717Y-75299282D01*
G37*
D11*
X18288000Y-70027800D03*
X18288000Y-67233800D03*
D16*
X101282500Y-72250300D03*
X103886000Y-72186800D03*
D10*
G36*
X108385663Y-65898012D02*
X106688607Y-67595068D01*
X103577337Y-64483798D01*
X105274393Y-62786742D01*
X108385663Y-65898012D01*
X108385663Y-65898012D01*
G37*
D16*
X100774500Y-64884300D03*
D15*
X95427500Y-70661800D03*
X95427500Y-67361800D03*
X90627500Y-67361800D03*
X90627500Y-70661800D03*
X66217500Y-70598300D03*
X66217500Y-67298300D03*
X61417500Y-67298300D03*
X61417500Y-70598300D03*
X37007500Y-70725300D03*
X37007500Y-67425300D03*
X32207500Y-67425300D03*
X32207500Y-70725300D03*
X154101500Y-70725300D03*
X154101500Y-67425300D03*
X149301500Y-67425300D03*
X149301500Y-70725300D03*
X124828000Y-70661800D03*
X124828000Y-67361800D03*
X120028000Y-67361800D03*
X120028000Y-70661800D03*
D10*
G36*
X153611671Y-58313181D02*
X154386419Y-59479271D01*
X153220329Y-60254019D01*
X152445581Y-59087929D01*
X153611671Y-58313181D01*
X153611671Y-58313181D01*
G37*
G36*
X152445581Y-50487671D02*
X153220329Y-49321581D01*
X154386419Y-50096329D01*
X153611671Y-51262419D01*
X152445581Y-50487671D01*
X152445581Y-50487671D01*
G37*
G36*
X76734382Y-49389817D02*
X75514683Y-50077082D01*
X74827418Y-48857383D01*
X76047117Y-48170118D01*
X76734382Y-49389817D01*
X76734382Y-49389817D01*
G37*
G36*
X66193382Y-60629317D02*
X64973683Y-61316582D01*
X64286418Y-60096883D01*
X65506117Y-59409618D01*
X66193382Y-60629317D01*
X66193382Y-60629317D01*
G37*
G36*
X75514683Y-59409618D02*
X76734382Y-60096883D01*
X76047117Y-61316582D01*
X74827418Y-60629317D01*
X75514683Y-59409618D01*
X75514683Y-59409618D01*
G37*
G36*
X65037183Y-48106618D02*
X66256882Y-48793883D01*
X65569617Y-50013582D01*
X64349918Y-49326317D01*
X65037183Y-48106618D01*
X65037183Y-48106618D01*
G37*
D11*
X154901900Y-53378100D03*
X154901900Y-56172100D03*
D16*
X71907400Y-51155600D03*
X69303900Y-51219100D03*
D10*
G36*
X64804237Y-57507888D02*
X66501293Y-55810832D01*
X69612563Y-58922102D01*
X67915507Y-60619158D01*
X64804237Y-57507888D01*
X64804237Y-57507888D01*
G37*
D16*
X72415400Y-58521600D03*
D15*
X77762400Y-52744100D03*
X77762400Y-56044100D03*
X82562400Y-56044100D03*
X82562400Y-52744100D03*
X106972400Y-52807600D03*
X106972400Y-56107600D03*
X111772400Y-56107600D03*
X111772400Y-52807600D03*
X136182400Y-52680600D03*
X136182400Y-55980600D03*
X140982400Y-55980600D03*
X140982400Y-52680600D03*
X19088400Y-52680600D03*
X19088400Y-55980600D03*
X23888400Y-55980600D03*
X23888400Y-52680600D03*
X48361900Y-52744100D03*
X48361900Y-56044100D03*
X53161900Y-56044100D03*
X53161900Y-52744100D03*
X48488900Y-80430100D03*
X48488900Y-83730100D03*
X53288900Y-83730100D03*
X53288900Y-80430100D03*
X19215400Y-80366600D03*
X19215400Y-83666600D03*
X24015400Y-83666600D03*
X24015400Y-80366600D03*
X136309400Y-80366600D03*
X136309400Y-83666600D03*
X141109400Y-83666600D03*
X141109400Y-80366600D03*
X107099400Y-80493600D03*
X107099400Y-83793600D03*
X111899400Y-83793600D03*
X111899400Y-80493600D03*
X77889400Y-80430100D03*
X77889400Y-83730100D03*
X82689400Y-83730100D03*
X82689400Y-80430100D03*
D16*
X72542400Y-86207600D03*
D10*
G36*
X64931237Y-85193888D02*
X66628293Y-83496832D01*
X69739563Y-86608102D01*
X68042507Y-88305158D01*
X64931237Y-85193888D01*
X64931237Y-85193888D01*
G37*
D16*
X69430900Y-78905100D03*
X72034400Y-78841600D03*
D10*
G36*
X65164183Y-75792618D02*
X66383882Y-76479883D01*
X65696617Y-77699582D01*
X64476918Y-77012317D01*
X65164183Y-75792618D01*
X65164183Y-75792618D01*
G37*
G36*
X75641683Y-87095618D02*
X76861382Y-87782883D01*
X76174117Y-89002582D01*
X74954418Y-88315317D01*
X75641683Y-87095618D01*
X75641683Y-87095618D01*
G37*
G36*
X66320382Y-88315317D02*
X65100683Y-89002582D01*
X64413418Y-87782883D01*
X65633117Y-87095618D01*
X66320382Y-88315317D01*
X66320382Y-88315317D01*
G37*
G36*
X76861382Y-77075817D02*
X75641683Y-77763082D01*
X74954418Y-76543383D01*
X76174117Y-75856118D01*
X76861382Y-77075817D01*
X76861382Y-77075817D01*
G37*
G36*
X152572581Y-78173671D02*
X153347329Y-77007581D01*
X154513419Y-77782329D01*
X153738671Y-78948419D01*
X152572581Y-78173671D01*
X152572581Y-78173671D01*
G37*
G36*
X153738671Y-85999181D02*
X154513419Y-87165271D01*
X153347329Y-87940019D01*
X152572581Y-86773929D01*
X153738671Y-85999181D01*
X153738671Y-85999181D01*
G37*
D15*
X124955000Y-98347800D03*
X124955000Y-95047800D03*
X120155000Y-95047800D03*
X120155000Y-98347800D03*
X154228500Y-98411300D03*
X154228500Y-95111300D03*
X149428500Y-95111300D03*
X149428500Y-98411300D03*
X37134500Y-98411300D03*
X37134500Y-95111300D03*
X32334500Y-95111300D03*
X32334500Y-98411300D03*
X66344500Y-98284300D03*
X66344500Y-94984300D03*
X61544500Y-94984300D03*
X61544500Y-98284300D03*
X95554500Y-98347800D03*
X95554500Y-95047800D03*
X90754500Y-95047800D03*
X90754500Y-98347800D03*
D16*
X100901500Y-92570300D03*
D10*
G36*
X108512663Y-93584012D02*
X106815607Y-95281068D01*
X103704337Y-92169798D01*
X105401393Y-90472742D01*
X108512663Y-93584012D01*
X108512663Y-93584012D01*
G37*
D16*
X104013000Y-99872800D03*
X101409500Y-99936300D03*
D11*
X18415000Y-97713800D03*
X18415000Y-94919800D03*
D10*
G36*
X108279717Y-102985282D02*
X107060018Y-102298017D01*
X107747283Y-101078318D01*
X108966982Y-101765583D01*
X108279717Y-102985282D01*
X108279717Y-102985282D01*
G37*
G36*
X97802217Y-91682282D02*
X96582518Y-90995017D01*
X97269783Y-89775318D01*
X98489482Y-90462583D01*
X97802217Y-91682282D01*
X97802217Y-91682282D01*
G37*
G36*
X107123518Y-90462583D02*
X108343217Y-89775318D01*
X109030482Y-90995017D01*
X107810783Y-91682282D01*
X107123518Y-90462583D01*
X107123518Y-90462583D01*
G37*
G36*
X96582518Y-101702083D02*
X97802217Y-101014818D01*
X98489482Y-102234517D01*
X97269783Y-102921782D01*
X96582518Y-101702083D01*
X96582518Y-101702083D01*
G37*
G36*
X20871319Y-100604229D02*
X20096571Y-101770319D01*
X18930481Y-100995571D01*
X19705229Y-99829481D01*
X20871319Y-100604229D01*
X20871319Y-100604229D01*
G37*
G36*
X19705229Y-92778719D02*
X18930481Y-91612629D01*
X20096571Y-90837881D01*
X20871319Y-92003971D01*
X19705229Y-92778719D01*
X19705229Y-92778719D01*
G37*
G36*
X19629029Y-37457519D02*
X18854281Y-36291429D01*
X20020371Y-35516681D01*
X20795119Y-36682771D01*
X19629029Y-37457519D01*
X19629029Y-37457519D01*
G37*
G36*
X20795119Y-45283029D02*
X20020371Y-46449119D01*
X18854281Y-45674371D01*
X19629029Y-44508281D01*
X20795119Y-45283029D01*
X20795119Y-45283029D01*
G37*
G36*
X96506318Y-46380883D02*
X97726017Y-45693618D01*
X98413282Y-46913317D01*
X97193583Y-47600582D01*
X96506318Y-46380883D01*
X96506318Y-46380883D01*
G37*
G36*
X107047318Y-35141383D02*
X108267017Y-34454118D01*
X108954282Y-35673817D01*
X107734583Y-36361082D01*
X107047318Y-35141383D01*
X107047318Y-35141383D01*
G37*
G36*
X97726017Y-36361082D02*
X96506318Y-35673817D01*
X97193583Y-34454118D01*
X98413282Y-35141383D01*
X97726017Y-36361082D01*
X97726017Y-36361082D01*
G37*
G36*
X108203517Y-47664082D02*
X106983818Y-46976817D01*
X107671083Y-45757118D01*
X108890782Y-46444383D01*
X108203517Y-47664082D01*
X108203517Y-47664082D01*
G37*
D11*
X18338800Y-42392600D03*
X18338800Y-39598600D03*
D16*
X101333300Y-44615100D03*
X103936800Y-44551600D03*
D10*
G36*
X108436463Y-38262812D02*
X106739407Y-39959868D01*
X103628137Y-36848598D01*
X105325193Y-35151542D01*
X108436463Y-38262812D01*
X108436463Y-38262812D01*
G37*
D16*
X100825300Y-37249100D03*
D15*
X95478300Y-43026600D03*
X95478300Y-39726600D03*
X90678300Y-39726600D03*
X90678300Y-43026600D03*
X66268300Y-42963100D03*
X66268300Y-39663100D03*
X61468300Y-39663100D03*
X61468300Y-42963100D03*
X37058300Y-43090100D03*
X37058300Y-39790100D03*
X32258300Y-39790100D03*
X32258300Y-43090100D03*
X154152300Y-43090100D03*
X154152300Y-39790100D03*
X149352300Y-39790100D03*
X149352300Y-43090100D03*
X124878800Y-43026600D03*
X124878800Y-39726600D03*
X120078800Y-39726600D03*
X120078800Y-43026600D03*
D10*
G36*
X80298654Y-114344880D02*
X80313315Y-112944957D01*
X81713238Y-112959618D01*
X81698577Y-114359541D01*
X80298654Y-114344880D01*
X80298654Y-114344880D01*
G37*
G36*
X87258537Y-104856407D02*
X86053499Y-105569065D01*
X85340841Y-104364027D01*
X86545879Y-103651369D01*
X87258537Y-104856407D01*
X87258537Y-104856407D01*
G37*
G36*
X78677677Y-109220929D02*
X79877677Y-107142469D01*
X83688189Y-109342469D01*
X82488189Y-111420929D01*
X78677677Y-109220929D01*
X78677677Y-109220929D01*
G37*
G36*
X79924434Y-106934482D02*
X81124434Y-104856022D01*
X84934946Y-107056022D01*
X83734946Y-109134482D01*
X79924434Y-106934482D01*
X79924434Y-106934482D01*
G37*
D15*
X134489732Y-112166536D03*
X134489732Y-108866536D03*
X129689732Y-108866536D03*
X129689732Y-112166536D03*
X105268422Y-112233329D03*
X105268422Y-108933329D03*
X100468422Y-108933329D03*
X100468422Y-112233329D03*
D10*
G36*
X153662471Y-30677981D02*
X154437219Y-31844071D01*
X153271129Y-32618819D01*
X152496381Y-31452729D01*
X153662471Y-30677981D01*
X153662471Y-30677981D01*
G37*
G36*
X152496381Y-22852471D02*
X153271129Y-21686381D01*
X154437219Y-22461129D01*
X153662471Y-23627219D01*
X152496381Y-22852471D01*
X152496381Y-22852471D01*
G37*
G36*
X76785182Y-21754617D02*
X75565483Y-22441882D01*
X74878218Y-21222183D01*
X76097917Y-20534918D01*
X76785182Y-21754617D01*
X76785182Y-21754617D01*
G37*
G36*
X66244182Y-32994117D02*
X65024483Y-33681382D01*
X64337218Y-32461683D01*
X65556917Y-31774418D01*
X66244182Y-32994117D01*
X66244182Y-32994117D01*
G37*
G36*
X75565483Y-31774418D02*
X76785182Y-32461683D01*
X76097917Y-33681382D01*
X74878218Y-32994117D01*
X75565483Y-31774418D01*
X75565483Y-31774418D01*
G37*
G36*
X65087983Y-20471418D02*
X66307682Y-21158683D01*
X65620417Y-22378382D01*
X64400718Y-21691117D01*
X65087983Y-20471418D01*
X65087983Y-20471418D01*
G37*
D11*
X154952700Y-25742900D03*
X154952700Y-28536900D03*
D16*
X71958200Y-23520400D03*
X69354700Y-23583900D03*
D10*
G36*
X64855037Y-29872688D02*
X66552093Y-28175632D01*
X69663363Y-31286902D01*
X67966307Y-32983958D01*
X64855037Y-29872688D01*
X64855037Y-29872688D01*
G37*
D16*
X72466200Y-30886400D03*
D15*
X77813200Y-25108900D03*
X77813200Y-28408900D03*
X82613200Y-28408900D03*
X82613200Y-25108900D03*
X107023200Y-25172400D03*
X107023200Y-28472400D03*
X111823200Y-28472400D03*
X111823200Y-25172400D03*
X136233200Y-25045400D03*
X136233200Y-28345400D03*
X141033200Y-28345400D03*
X141033200Y-25045400D03*
X19139200Y-25045400D03*
X19139200Y-28345400D03*
X23939200Y-28345400D03*
X23939200Y-25045400D03*
X48412700Y-25108900D03*
X48412700Y-28408900D03*
X53212700Y-28408900D03*
X53212700Y-25108900D03*
D12*
X162026600Y-142824200D03*
D13*
X162026600Y-145364200D03*
X162026600Y-147904200D03*
D12*
X156692600Y-150126700D03*
D15*
X154038600Y-143206200D03*
X154038600Y-146506200D03*
X158838600Y-146506200D03*
X158838600Y-143206200D03*
D11*
X143548100Y-143903700D03*
X143548100Y-146697700D03*
X169583100Y-143840200D03*
X169583100Y-146634200D03*
D10*
G36*
X148791860Y-158393441D02*
X146713400Y-157193441D01*
X148913400Y-153382929D01*
X150991860Y-154582929D01*
X148791860Y-158393441D01*
X148791860Y-158393441D01*
G37*
G36*
X151211535Y-159790441D02*
X149133075Y-158590441D01*
X151333075Y-154779929D01*
X153411535Y-155979929D01*
X151211535Y-159790441D01*
X151211535Y-159790441D01*
G37*
G36*
X161809360Y-135850941D02*
X159730900Y-134650941D01*
X161930900Y-130840429D01*
X164009360Y-132040429D01*
X161809360Y-135850941D01*
X161809360Y-135850941D01*
G37*
G36*
X164229035Y-137247941D02*
X162150575Y-136047941D01*
X164350575Y-132237429D01*
X166429035Y-133437429D01*
X164229035Y-137247941D01*
X164229035Y-137247941D01*
G37*
G36*
X149121840Y-132010959D02*
X151200300Y-130810959D01*
X153400300Y-134621471D01*
X151321840Y-135821471D01*
X149121840Y-132010959D01*
X149121840Y-132010959D01*
G37*
G36*
X146702165Y-133407959D02*
X148780625Y-132207959D01*
X150980625Y-136018471D01*
X148902165Y-137218471D01*
X146702165Y-133407959D01*
X146702165Y-133407959D01*
G37*
G36*
X162139340Y-154489959D02*
X164217800Y-153289959D01*
X166417800Y-157100471D01*
X164339340Y-158300471D01*
X162139340Y-154489959D01*
X162139340Y-154489959D01*
G37*
G36*
X159719665Y-155886959D02*
X161798125Y-154686959D01*
X163998125Y-158497471D01*
X161919665Y-159697471D01*
X159719665Y-155886959D01*
X159719665Y-155886959D01*
G37*
G36*
X141091781Y-141013271D02*
X141866529Y-139847181D01*
X143032619Y-140621929D01*
X142257871Y-141788019D01*
X141091781Y-141013271D01*
X141091781Y-141013271D01*
G37*
G36*
X146353243Y-134685246D02*
X145730754Y-135939243D01*
X144476757Y-135316754D01*
X145099246Y-134062757D01*
X146353243Y-134685246D01*
X146353243Y-134685246D01*
G37*
G36*
X152558135Y-129762628D02*
X153955372Y-129850535D01*
X153867465Y-131247772D01*
X152470228Y-131159865D01*
X152558135Y-129762628D01*
X152558135Y-129762628D01*
G37*
G36*
X160660972Y-131109065D02*
X159263735Y-131196972D01*
X159175828Y-129799735D01*
X160573065Y-129711828D01*
X160660972Y-131109065D01*
X160660972Y-131109065D01*
G37*
G36*
X168031954Y-134037357D02*
X168654443Y-135291354D01*
X167400446Y-135913843D01*
X166777957Y-134659846D01*
X168031954Y-134037357D01*
X168031954Y-134037357D01*
G37*
G36*
X170898729Y-141686419D02*
X170123981Y-140520329D01*
X171290071Y-139745581D01*
X172064819Y-140911671D01*
X170898729Y-141686419D01*
X170898729Y-141686419D01*
G37*
G36*
X172039419Y-149537329D02*
X171264671Y-150703419D01*
X170098581Y-149928671D01*
X170873329Y-148762581D01*
X172039419Y-149537329D01*
X172039419Y-149537329D01*
G37*
G36*
X166828757Y-155916154D02*
X167451246Y-154662157D01*
X168705243Y-155284646D01*
X168082754Y-156538643D01*
X166828757Y-155916154D01*
X166828757Y-155916154D01*
G37*
G36*
X160623865Y-160813372D02*
X159226628Y-160725465D01*
X159314535Y-159328228D01*
X160711772Y-159416135D01*
X160623865Y-160813372D01*
X160623865Y-160813372D01*
G37*
G36*
X152495628Y-159466935D02*
X153892865Y-159379028D01*
X153980772Y-160776265D01*
X152583535Y-160864172D01*
X152495628Y-159466935D01*
X152495628Y-159466935D01*
G37*
G36*
X145150046Y-156538643D02*
X144527557Y-155284646D01*
X145781554Y-154662157D01*
X146404043Y-155916154D01*
X145150046Y-156538643D01*
X145150046Y-156538643D01*
G37*
G36*
X142257871Y-148838781D02*
X143032619Y-150004871D01*
X141866529Y-150779619D01*
X141091781Y-149613529D01*
X142257871Y-148838781D01*
X142257871Y-148838781D01*
G37*
D15*
X166687800Y-102566200D03*
X166687800Y-105866200D03*
X171487800Y-105866200D03*
X171487800Y-102566200D03*
D12*
X165138100Y-99809300D03*
D13*
X167678100Y-99809300D03*
X170218100Y-99809300D03*
X172758100Y-99809300D03*
M02*
